
<svg viewBox="0 0 286 506" fill="none" xmlns="http://www.w3.org/2000/svg">
<g opacity="0.5" filter="url('#filter0_d_1392_16677')">
<rect x="18" y="13.8438" width="250.268" height="470.311" rx="3.293" fill="white"></rect>
<path d="M40.5569 28.9914H38.5811V28.4975C38.5811 28.1045 38.425 27.7275 38.1471 27.4496C37.8692 27.1717 37.4923 27.0156 37.0993 27.0156C36.7063 27.0156 36.3293 27.1717 36.0514 27.4496C35.7735 27.7275 35.6174 28.1045 35.6174 28.4975V28.9914H33.6416C32.9868 28.9922 32.3591 29.2527 31.8961 29.7157C31.4331 30.1787 31.1727 30.8064 31.1719 31.4612V36.4007C31.1727 37.0554 31.4331 37.6832 31.8961 38.1462C32.3591 38.6092 32.9868 38.8696 33.6416 38.8704H40.5569C41.2117 38.8696 41.8394 38.6092 42.3024 38.1462C42.7654 37.6832 43.0259 37.0554 43.0267 36.4007V31.4612C43.0259 30.8064 42.7654 30.1787 42.3024 29.7157C41.8394 29.2527 41.2117 28.9922 40.5569 28.9914V28.9914ZM36.6053 28.4975C36.6053 28.3665 36.6574 28.2408 36.75 28.1482C36.8426 28.0556 36.9683 28.0035 37.0993 28.0035C37.2303 28.0035 37.3559 28.0556 37.4485 28.1482C37.5412 28.2408 37.5932 28.3665 37.5932 28.4975V29.4854C37.5932 29.6164 37.5412 29.742 37.4485 29.8346C37.3559 29.9273 37.2303 29.9793 37.0993 29.9793C36.9683 29.9793 36.8426 29.9273 36.75 29.8346C36.6574 29.742 36.6053 29.6164 36.6053 29.4854V28.4975ZM42.0388 36.4007C42.0388 36.7937 41.8826 37.1706 41.6047 37.4485C41.3268 37.7264 40.9499 37.8825 40.5569 37.8825H33.6416C33.2486 37.8825 32.8717 37.7264 32.5938 37.4485C32.3159 37.1706 32.1598 36.7937 32.1598 36.4007V31.4612C32.1598 31.0682 32.3159 30.6912 32.5938 30.4133C32.8717 30.1354 33.2486 29.9793 33.6416 29.9793H35.7083C35.8089 30.2681 35.9969 30.5183 36.2461 30.6954C36.4953 30.8725 36.7935 30.9677 37.0993 30.9677C37.405 30.9677 37.7032 30.8725 37.9524 30.6954C38.2017 30.5183 38.3896 30.2681 38.4902 29.9793H40.5569C40.9499 29.9793 41.3268 30.1354 41.6047 30.4133C41.8826 30.6912 42.0388 31.0682 42.0388 31.4612V36.4007ZM36.1114 31.9551H33.6416C33.5106 31.9551 33.385 32.0072 33.2923 32.0998C33.1997 32.1924 33.1477 32.3181 33.1477 32.4491V36.4007C33.1477 36.5317 33.1997 36.6573 33.2923 36.7499C33.385 36.8426 33.5106 36.8946 33.6416 36.8946H36.1114C36.2424 36.8946 36.368 36.8426 36.4606 36.7499C36.5533 36.6573 36.6053 36.5317 36.6053 36.4007V32.4491C36.6053 32.3181 36.5533 32.1924 36.4606 32.0998C36.368 32.0072 36.2424 31.9551 36.1114 31.9551ZM35.6174 35.9067H34.1356V32.943H35.6174V35.9067ZM41.0509 34.4249C41.0509 34.5559 40.9988 34.6815 40.9062 34.7741C40.8136 34.8668 40.6879 34.9188 40.5569 34.9188H38.0872C37.9562 34.9188 37.8305 34.8668 37.7379 34.7741C37.6453 34.6815 37.5932 34.5559 37.5932 34.4249C37.5932 34.2939 37.6453 34.1682 37.7379 34.0756C37.8305 33.983 37.9562 33.9309 38.0872 33.9309H40.5569C40.6879 33.9309 40.8136 33.983 40.9062 34.0756C40.9988 34.1682 41.0509 34.2939 41.0509 34.4249ZM41.0509 32.4491C41.0509 32.5801 40.9988 32.7057 40.9062 32.7983C40.8136 32.891 40.6879 32.943 40.5569 32.943H38.0872C37.9562 32.943 37.8305 32.891 37.7379 32.7983C37.6453 32.7057 37.5932 32.5801 37.5932 32.4491C37.5932 32.3181 37.6453 32.1924 37.7379 32.0998C37.8305 32.0072 37.9562 31.9551 38.0872 31.9551H40.5569C40.6879 31.9551 40.8136 32.0072 40.9062 32.0998C40.9988 32.1924 41.0509 32.3181 41.0509 32.4491ZM40.063 36.4007C40.063 36.5317 40.0109 36.6573 39.9183 36.7499C39.8257 36.8426 39.7 36.8946 39.569 36.8946H38.0872C37.9562 36.8946 37.8305 36.8426 37.7379 36.7499C37.6453 36.6573 37.5932 36.5317 37.5932 36.4007C37.5932 36.2697 37.6453 36.144 37.7379 36.0514C37.8305 35.9588 37.9562 35.9067 38.0872 35.9067H39.569C39.7 35.9067 39.8257 35.9588 39.9183 36.0514C40.0109 36.144 40.063 36.2697 40.063 36.4007Z" fill="#142558"></path>
<path d="M52.6692 29.4195C53.5824 29.4195 54.2533 29.6232 54.6819 30.0307C55.1104 30.4311 55.3247 30.9931 55.3247 31.7167C55.3247 32.1452 55.2404 32.5457 55.0718 32.918C54.9032 33.2903 54.6186 33.5924 54.2182 33.8242C53.8178 34.0561 53.2733 34.172 52.5849 34.172H51.9105V36.9434H50.4984V29.4195H52.6692ZM52.6165 30.5365H51.9105V33.055H52.4374C52.894 33.055 53.2523 32.9566 53.5122 32.7599C53.7721 32.5562 53.9021 32.226 53.9021 31.7694C53.9021 30.9475 53.4736 30.5365 52.6165 30.5365ZM58.7806 31.1266C59.5182 31.1266 60.1013 31.3549 60.5298 31.8116C60.9583 32.2682 61.1726 32.9039 61.1726 33.7189V34.3933H57.6741C57.6882 34.9131 57.8146 35.3171 58.0535 35.6051C58.2923 35.8861 58.6366 36.0266 59.0862 36.0266C59.4304 36.0266 59.7395 35.9915 60.0135 35.9212C60.2945 35.8439 60.5825 35.735 60.8776 35.5945V36.6588C60.6106 36.7923 60.3296 36.8907 60.0345 36.9539C59.7465 37.0171 59.3953 37.0487 58.9808 37.0487C58.4469 37.0487 57.9727 36.9434 57.5582 36.7326C57.1508 36.5148 56.8311 36.1917 56.5993 35.7631C56.3675 35.3276 56.2516 34.7832 56.2516 34.1298C56.2516 33.1533 56.4834 32.4087 56.947 31.8959C57.4177 31.383 58.0289 31.1266 58.7806 31.1266ZM58.8017 32.1066C58.4925 32.1066 58.2361 32.2225 58.0324 32.4543C57.8357 32.6791 57.7233 33.0163 57.6952 33.466H59.8449C59.8378 33.0726 59.75 32.7494 59.5814 32.4965C59.4128 32.2366 59.1529 32.1066 58.8017 32.1066ZM65.2898 31.1266C65.3811 31.1266 65.4794 31.1336 65.5848 31.1477C65.6972 31.1547 65.7885 31.1652 65.8588 31.1793L65.7323 32.4122C65.5778 32.3771 65.3951 32.3595 65.1844 32.3595C64.9526 32.3595 64.7278 32.4192 64.51 32.5386C64.2922 32.651 64.1131 32.8267 63.9726 33.0655C63.8391 33.3044 63.7723 33.61 63.7723 33.9823V36.9434H62.3708V31.232H63.4457L63.6354 32.2225H63.7091C63.8707 31.9204 64.0885 31.664 64.3625 31.4533C64.6364 31.2355 64.9455 31.1266 65.2898 31.1266ZM70.5372 35.289C70.5372 35.865 70.3475 36.3041 69.9681 36.6062C69.5958 36.9012 69.0373 37.0487 68.2926 37.0487C67.9133 37.0487 67.5831 37.0206 67.3021 36.9644C67.0211 36.9082 66.7506 36.8204 66.4907 36.701V35.5735C66.7717 35.7069 67.0738 35.8193 67.397 35.9107C67.7271 36.002 68.0257 36.0477 68.2926 36.0477C68.6088 36.0477 68.8371 35.9915 68.9776 35.8791C69.1181 35.7667 69.1883 35.6156 69.1883 35.4259C69.1883 35.3135 69.1567 35.2117 69.0935 35.1204C69.0303 35.029 68.9109 34.9307 68.7352 34.8253C68.5596 34.7199 68.3032 34.5935 67.966 34.4459C67.6358 34.2984 67.3583 34.1509 67.1335 34.0034C66.9157 33.8558 66.7506 33.6802 66.6382 33.4765C66.5329 33.2728 66.4802 33.0093 66.4802 32.6862C66.4802 32.1733 66.6734 31.787 67.0597 31.527C67.4461 31.2601 67.959 31.1266 68.5982 31.1266C68.9425 31.1266 69.2621 31.1617 69.5572 31.232C69.8522 31.3022 70.1543 31.4076 70.4634 31.5481L70.0524 32.5281C69.7925 32.4157 69.5361 32.3209 69.2832 32.2436C69.0303 32.1663 68.7949 32.1277 68.5772 32.1277C68.0784 32.1277 67.829 32.2928 67.829 32.6229C67.829 32.7424 67.8606 32.8477 67.9238 32.9391C67.9941 33.0234 68.1135 33.1112 68.2821 33.2025C68.4577 33.2938 68.7071 33.4062 69.0303 33.5397C69.3534 33.6732 69.6239 33.8137 69.8417 33.9612C70.0665 34.1017 70.2386 34.2773 70.358 34.4881C70.4774 34.6918 70.5372 34.9588 70.5372 35.289ZM76.615 34.0771C76.615 35.0255 76.3796 35.7596 75.9089 36.2795C75.4453 36.7923 74.8095 37.0487 74.0016 37.0487C73.5029 37.0487 73.0568 36.9328 72.6634 36.701C72.277 36.4692 71.9714 36.132 71.7466 35.6894C71.5288 35.2468 71.4199 34.7094 71.4199 34.0771C71.4199 33.1288 71.6518 32.4017 72.1154 31.8959C72.5861 31.383 73.2254 31.1266 74.0332 31.1266C74.532 31.1266 74.9746 31.2425 75.361 31.4743C75.7544 31.6992 76.06 32.0328 76.2778 32.4754C76.5026 32.911 76.615 33.4449 76.615 34.0771ZM72.8425 34.0771C72.8425 34.6813 72.9338 35.1485 73.1165 35.4786C73.3062 35.8088 73.6082 35.9739 74.0227 35.9739C74.4302 35.9739 74.7252 35.8088 74.9079 35.4786C75.0975 35.1485 75.1924 34.6813 75.1924 34.0771C75.1924 33.473 75.0975 33.0093 74.9079 32.6862C74.7252 32.363 74.4267 32.2014 74.0122 32.2014C73.5977 32.2014 73.2991 32.363 73.1165 32.6862C72.9338 33.0093 72.8425 33.473 72.8425 34.0771ZM80.8409 31.1266C81.438 31.1266 81.9087 31.2917 82.2529 31.6219C82.5971 31.9521 82.7692 32.486 82.7692 33.2236V36.9434H81.3677V33.487C81.3677 32.63 81.0622 32.2014 80.451 32.2014C79.9803 32.2014 79.6607 32.37 79.4921 32.7072C79.3234 33.0444 79.2391 33.5257 79.2391 34.1509V36.9434H77.8376V31.232H78.9125L79.1127 31.9802H79.1759C79.3445 31.6851 79.5764 31.4708 79.8714 31.3374C80.1665 31.1969 80.4896 31.1266 80.8409 31.1266ZM86.5457 31.1266C87.2341 31.1266 87.761 31.2882 88.1263 31.6113C88.4916 31.9345 88.6742 32.4333 88.6742 33.1077V36.9434H87.6942L87.4203 36.153H87.3781C87.1463 36.4621 86.9004 36.6905 86.6405 36.838C86.3876 36.9785 86.0363 37.0487 85.5867 37.0487C85.109 37.0487 84.7086 36.9047 84.3854 36.6167C84.0693 36.3287 83.9113 35.8826 83.9113 35.2784C83.9113 34.6883 84.115 34.2457 84.5224 33.9507C84.9299 33.6556 85.5446 33.4905 86.3665 33.4554L87.2727 33.4238V33.1393C87.2727 32.774 87.1955 32.5141 87.0409 32.3595C86.8934 32.205 86.6826 32.1277 86.4087 32.1277C86.1487 32.1277 85.8888 32.1698 85.6289 32.2541C85.376 32.3314 85.1301 32.4298 84.8912 32.5492L84.4592 31.6219C84.7402 31.4743 85.0563 31.3549 85.4076 31.2636C85.7588 31.1723 86.1382 31.1266 86.5457 31.1266ZM87.2833 34.2457L86.6826 34.2668C86.1839 34.2879 85.8361 34.3897 85.6394 34.5724C85.4427 34.748 85.3444 34.9869 85.3444 35.289C85.3444 35.5629 85.4111 35.7596 85.5446 35.8791C85.6851 35.9915 85.8677 36.0477 86.0925 36.0477C86.4227 36.0477 86.7037 35.9388 86.9355 35.721C87.1674 35.4962 87.2833 35.166 87.2833 34.7305V34.2457ZM91.557 36.9434H90.1555V28.9348H91.557V36.9434ZM97.421 37.0487C96.8098 37.0487 96.3146 36.8029 95.9352 36.3111C95.5559 35.8123 95.3662 35.0747 95.3662 34.0982C95.3662 33.1147 95.5594 32.3736 95.9458 31.8748C96.3321 31.376 96.8379 31.1266 97.4632 31.1266C97.8566 31.1266 98.1727 31.2074 98.4116 31.369C98.6574 31.5305 98.8576 31.7273 99.0122 31.9591H99.0543C99.0403 31.8607 99.0227 31.7132 99.0017 31.5165C98.9806 31.3128 98.97 31.1196 98.97 30.9369V28.9348H100.372V36.9434H99.2967L99.0333 36.1952H98.97C98.8295 36.434 98.6328 36.6378 98.3799 36.8064C98.1341 36.9679 97.8144 37.0487 97.421 37.0487ZM97.8847 35.9739C98.3132 35.9739 98.6153 35.8334 98.7909 35.5524C98.9665 35.2714 99.0543 34.8464 99.0543 34.2773V34.1087C99.0543 33.4976 98.97 33.0304 98.8014 32.7072C98.6399 32.3771 98.3308 32.212 97.8741 32.212C97.5229 32.212 97.2524 32.3806 97.0627 32.7178C96.8801 33.048 96.7888 33.5151 96.7888 34.1193C96.7888 34.7234 96.8801 35.1836 97.0627 35.4997C97.2524 35.8158 97.5264 35.9739 97.8847 35.9739ZM104.131 31.1266C104.869 31.1266 105.452 31.3549 105.881 31.8116C106.309 32.2682 106.523 32.9039 106.523 33.7189V34.3933H103.025C103.039 34.9131 103.165 35.3171 103.404 35.6051C103.643 35.8861 103.987 36.0266 104.437 36.0266C104.781 36.0266 105.09 35.9915 105.364 35.9212C105.645 35.8439 105.933 35.735 106.228 35.5945V36.6588C105.961 36.7923 105.68 36.8907 105.385 36.9539C105.097 37.0171 104.746 37.0487 104.332 37.0487C103.798 37.0487 103.323 36.9434 102.909 36.7326C102.502 36.5148 102.182 36.1917 101.95 35.7631C101.718 35.3276 101.602 34.7832 101.602 34.1298C101.602 33.1533 101.834 32.4087 102.298 31.8959C102.768 31.383 103.38 31.1266 104.131 31.1266ZM104.152 32.1066C103.843 32.1066 103.587 32.2225 103.383 32.4543C103.186 32.6791 103.074 33.0163 103.046 33.466H105.196C105.189 33.0726 105.101 32.7494 104.932 32.4965C104.764 32.2366 104.504 32.1066 104.152 32.1066ZM109.956 35.9844C110.11 35.9844 110.258 35.9704 110.398 35.9423C110.546 35.9072 110.683 35.8685 110.809 35.8264V36.8169C110.662 36.8872 110.482 36.9434 110.272 36.9855C110.061 37.0277 109.826 37.0487 109.566 37.0487C109.25 37.0487 108.965 36.996 108.712 36.8907C108.459 36.7853 108.259 36.5991 108.111 36.3322C107.964 36.0652 107.89 35.6894 107.89 35.2047V32.2331H107.174V31.6535L107.975 31.1898L108.396 29.978H109.281V31.232H110.756V32.2331H109.281V35.1941C109.281 35.4611 109.341 35.6613 109.46 35.7948C109.587 35.9212 109.752 35.9844 109.956 35.9844ZM114.135 31.1266C114.823 31.1266 115.35 31.2882 115.715 31.6113C116.081 31.9345 116.263 32.4333 116.263 33.1077V36.9434H115.283L115.009 36.153H114.967C114.735 36.4621 114.49 36.6905 114.23 36.838C113.977 36.9785 113.625 37.0487 113.176 37.0487C112.698 37.0487 112.298 36.9047 111.975 36.6167C111.658 36.3287 111.5 35.8826 111.5 35.2784C111.5 34.6883 111.704 34.2457 112.112 33.9507C112.519 33.6556 113.134 33.4905 113.956 33.4554L114.862 33.4238V33.1393C114.862 32.774 114.785 32.5141 114.63 32.3595C114.483 32.205 114.272 32.1277 113.998 32.1277C113.738 32.1277 113.478 32.1698 113.218 32.2541C112.965 32.3314 112.719 32.4298 112.48 32.5492L112.048 31.6219C112.329 31.4743 112.645 31.3549 112.997 31.2636C113.348 31.1723 113.727 31.1266 114.135 31.1266ZM114.872 34.2457L114.272 34.2668C113.773 34.2879 113.425 34.3897 113.229 34.5724C113.032 34.748 112.934 34.9869 112.934 35.289C112.934 35.5629 113 35.7596 113.134 35.8791C113.274 35.9915 113.457 36.0477 113.682 36.0477C114.012 36.0477 114.293 35.9388 114.525 35.721C114.757 35.4962 114.872 35.166 114.872 34.7305V34.2457ZM118.461 29.0296C118.658 29.0296 118.83 29.0823 118.978 29.1877C119.132 29.286 119.209 29.4652 119.209 29.7251C119.209 29.985 119.132 30.1677 118.978 30.2731C118.83 30.3784 118.658 30.4311 118.461 30.4311C118.243 30.4311 118.061 30.3784 117.913 30.2731C117.766 30.1677 117.692 29.985 117.692 29.7251C117.692 29.4652 117.766 29.286 117.913 29.1877C118.061 29.0823 118.243 29.0296 118.461 29.0296ZM119.146 31.232V36.9434H117.755V31.232H119.146ZM122.069 36.9434H120.667V28.9348H122.069V36.9434ZM127.352 35.289C127.352 35.865 127.162 36.3041 126.783 36.6062C126.41 36.9012 125.852 37.0487 125.107 37.0487C124.728 37.0487 124.398 37.0206 124.117 36.9644C123.836 36.9082 123.565 36.8204 123.305 36.701V35.5735C123.586 35.7069 123.888 35.8193 124.211 35.9107C124.542 36.002 124.84 36.0477 125.107 36.0477C125.423 36.0477 125.652 35.9915 125.792 35.8791C125.933 35.7667 126.003 35.6156 126.003 35.4259C126.003 35.3135 125.971 35.2117 125.908 35.1204C125.845 35.029 125.725 34.9307 125.55 34.8253C125.374 34.7199 125.118 34.5935 124.78 34.4459C124.45 34.2984 124.173 34.1509 123.948 34.0034C123.73 33.8558 123.565 33.6802 123.453 33.4765C123.347 33.2728 123.295 33.0093 123.295 32.6862C123.295 32.1733 123.488 31.787 123.874 31.527C124.261 31.2601 124.773 31.1266 125.413 31.1266C125.757 31.1266 126.077 31.1617 126.372 31.232C126.667 31.3022 126.969 31.4076 127.278 31.5481L126.867 32.5281C126.607 32.4157 126.351 32.3209 126.098 32.2436C125.845 32.1663 125.609 32.1277 125.392 32.1277C124.893 32.1277 124.643 32.2928 124.643 32.6229C124.643 32.7424 124.675 32.8477 124.738 32.9391C124.809 33.0234 124.928 33.1112 125.097 33.2025C125.272 33.2938 125.522 33.4062 125.845 33.5397C126.168 33.6732 126.438 33.8137 126.656 33.9612C126.881 34.1017 127.053 34.2773 127.173 34.4881C127.292 34.6918 127.352 34.9588 127.352 35.289Z" fill="#142558"></path>
<g clip-path="url('#clip0_1392_16677')">
<path d="M254.517 35.2213C254.364 35.2212 254.218 35.1604 254.11 35.0523L251.163 32.1048C251.073 32.0156 250.967 31.9448 250.851 31.8966C250.734 31.8483 250.609 31.8234 250.483 31.8234C250.357 31.8234 250.232 31.8483 250.116 31.8966C249.999 31.9448 249.893 32.0156 249.804 32.1048L246.86 35.0484C246.752 35.1534 246.606 35.2115 246.455 35.2102C246.304 35.2089 246.159 35.1483 246.053 35.0414C245.946 34.9346 245.885 34.79 245.884 34.6389C245.883 34.4878 245.941 34.3423 246.046 34.2336L248.987 31.29C249.383 30.8942 249.921 30.6719 250.481 30.6719C251.041 30.6719 251.579 30.8942 251.975 31.29L254.925 34.2374C255.005 34.318 255.06 34.4207 255.083 34.5325C255.105 34.6444 255.094 34.7603 255.05 34.8656C255.006 34.9709 254.932 35.061 254.838 35.1243C254.743 35.1876 254.631 35.2214 254.517 35.2213V35.2213Z" fill="#142558"></path>
</g>
<path d="M261.682 50.396H24.5859V51.0546H261.682V50.396Z" fill="black" fill-opacity="0.3" mask="url('#path-2-inside-1_1392_16677')"></path>
<path d="M33.3136 66.2536C34.0091 66.2536 34.5149 66.3985 34.8311 66.6883C35.1472 66.9781 35.3052 67.3864 35.3052 67.9133C35.3052 68.2241 35.2394 68.5166 35.1077 68.7905C34.9759 69.0592 34.7547 69.2779 34.4438 69.4465C34.1382 69.6151 33.722 69.6994 33.1951 69.6994H32.5945V71.8965H31.8911V66.2536H33.3136ZM33.2583 66.8621H32.5945V69.0909H33.1161C33.6061 69.0909 33.9722 69.0039 34.2146 68.83C34.457 68.6562 34.5782 68.3611 34.5782 67.9449C34.5782 67.5813 34.4701 67.31 34.2541 67.1309C34.0434 66.9517 33.7114 66.8621 33.2583 66.8621ZM37.2096 65.8901V67.6525C37.2096 67.8632 37.1964 68.0608 37.1701 68.2452H37.2175C37.3439 68.0292 37.5178 67.8659 37.7391 67.7552C37.9604 67.6446 38.1975 67.5892 38.4504 67.5892C38.9298 67.5892 39.2934 67.7131 39.541 67.9607C39.7886 68.2031 39.9125 68.5956 39.9125 69.1383V71.8965H39.2249V69.1857C39.2249 68.506 38.9351 68.1662 38.3555 68.1662C37.9182 68.1662 37.6179 68.3005 37.4546 68.5692C37.2912 68.8327 37.2096 69.212 37.2096 69.7073V71.8965H36.522V65.8901H37.2096ZM44.8334 69.7705C44.8334 70.4713 44.6648 71.014 44.3276 71.3986C43.9904 71.7832 43.5346 71.9755 42.9603 71.9755C42.6073 71.9755 42.2912 71.8912 42.012 71.7226C41.738 71.5487 41.522 71.2985 41.3639 70.9718C41.2058 70.6399 41.1268 70.2394 41.1268 69.7705C41.1268 69.0698 41.2928 68.5297 41.6247 68.1504C41.9566 67.771 42.4097 67.5813 42.984 67.5813C43.3423 67.5813 43.6611 67.6683 43.9403 67.8421C44.2196 68.0107 44.4382 68.2584 44.5963 68.585C44.7544 68.9064 44.8334 69.3016 44.8334 69.7705ZM41.8381 69.7705C41.8381 70.2711 41.9277 70.6689 42.1068 70.9639C42.2912 71.2537 42.581 71.3986 42.9761 71.3986C43.3713 71.3986 43.6611 71.2537 43.8455 70.9639C44.0299 70.6689 44.1221 70.2711 44.1221 69.7705C44.1221 69.27 44.0299 68.8775 43.8455 68.5929C43.6611 68.3084 43.3687 68.1662 42.9682 68.1662C42.5731 68.1662 42.2859 68.3084 42.1068 68.5929C41.9277 68.8775 41.8381 69.27 41.8381 69.7705ZM47.4334 71.4065C47.5335 71.4065 47.6362 71.3986 47.7416 71.3828C47.847 71.367 47.9339 71.3459 48.0024 71.3196V71.8491C47.9286 71.8859 47.8233 71.9149 47.6863 71.936C47.5546 71.9623 47.4281 71.9755 47.3069 71.9755C47.0962 71.9755 46.9012 71.9386 46.7221 71.8649C46.543 71.7858 46.3981 71.6515 46.2874 71.4618C46.182 71.2721 46.1294 71.0061 46.1294 70.6636V68.1978H45.5682V67.8659L46.1452 67.5892L46.406 66.6883H46.8169V67.6604H47.9708V68.1978H46.8169V70.6478C46.8169 70.906 46.8749 71.0983 46.9908 71.2247C47.1067 71.3459 47.2542 71.4065 47.4334 71.4065ZM52.4866 69.7705C52.4866 70.4713 52.318 71.014 51.9808 71.3986C51.6436 71.7832 51.1879 71.9755 50.6136 71.9755C50.2606 71.9755 49.9444 71.8912 49.6652 71.7226C49.3912 71.5487 49.1752 71.2985 49.0171 70.9718C48.8591 70.6399 48.78 70.2394 48.78 69.7705C48.78 69.0698 48.946 68.5297 49.2779 68.1504C49.6099 67.771 50.063 67.5813 50.6373 67.5813C50.9956 67.5813 51.3143 67.6683 51.5936 67.8421C51.8728 68.0107 52.0915 68.2584 52.2495 68.585C52.4076 68.9064 52.4866 69.3016 52.4866 69.7705ZM49.4913 69.7705C49.4913 70.2711 49.5809 70.6689 49.76 70.9639C49.9444 71.2537 50.2342 71.3986 50.6294 71.3986C51.0245 71.3986 51.3143 71.2537 51.4987 70.9639C51.6831 70.6689 51.7753 70.2711 51.7753 69.7705C51.7753 69.27 51.6831 68.8775 51.4987 68.5929C51.3143 68.3084 51.0219 68.1662 50.6215 68.1662C50.2263 68.1662 49.9392 68.3084 49.76 68.5929C49.5809 68.8775 49.4913 69.27 49.4913 69.7705ZM55.4976 65.8901L55.3474 67.4075L56.77 66.9807L56.8727 67.7078L55.5134 67.8263L56.3985 69.075L55.7426 69.4465L55.1182 68.0634L54.5492 69.4465L53.8774 69.075L54.7389 67.8263L53.3953 67.7078L53.506 66.9807L54.9048 67.4075L54.7547 65.8901H55.4976Z" fill="black"></path>
<g filter="url('#filter1_d_1392_16677')">
<path d="M143.134 151.714C123.511 151.714 107.57 135.6 107.57 115.94H102.301C102.301 138.473 120.564 156.983 143.134 156.983V151.714ZM178.699 115.94C178.699 135.6 162.757 151.714 143.134 151.714V156.983C165.705 156.983 183.967 138.473 183.967 115.94H178.699ZM143.134 80.1656C162.757 80.1656 178.699 96.2794 178.699 115.94H183.967C183.967 93.4072 165.705 74.8969 143.134 74.8969V80.1656ZM143.134 74.8969C120.564 74.8969 102.301 93.4072 102.301 115.94H107.57C107.57 96.2794 123.511 80.1656 143.134 80.1656V74.8969Z" fill="white"></path>
</g>
<path opacity="0.3" d="M97.1222 159.885C96.5637 159.885 96.1237 160.088 95.8023 160.493C95.4862 160.899 95.3281 161.455 95.3281 162.161C95.3281 162.862 95.4757 163.418 95.7707 163.829C96.071 164.234 96.5189 164.437 97.1143 164.437C97.3408 164.437 97.5595 164.416 97.7702 164.374C97.981 164.332 98.1891 164.279 98.3946 164.216V164.832C98.1944 164.911 97.9863 164.969 97.7702 165.006C97.5595 165.043 97.3092 165.061 97.0194 165.061C96.4767 165.061 96.0236 164.943 95.6601 164.706C95.3018 164.469 95.0331 164.132 94.854 163.694C94.6748 163.257 94.5852 162.743 94.5852 162.153C94.5852 161.584 94.6827 161.084 94.8777 160.651C95.0726 160.214 95.3598 159.874 95.7391 159.632C96.1185 159.384 96.5821 159.261 97.1301 159.261C97.6833 159.261 98.1733 159.371 98.6001 159.592L98.3235 160.193C98.1549 160.114 97.9704 160.043 97.7702 159.98C97.57 159.916 97.354 159.885 97.1222 159.885ZM100.35 164.982H99.6624V158.976H100.35V164.982ZM102.166 159.158C102.271 159.158 102.364 159.195 102.443 159.268C102.522 159.337 102.561 159.448 102.561 159.6C102.561 159.753 102.522 159.866 102.443 159.94C102.364 160.009 102.271 160.043 102.166 160.043C102.055 160.043 101.961 160.009 101.881 159.94C101.802 159.866 101.763 159.753 101.763 159.6C101.763 159.448 101.802 159.337 101.881 159.268C101.961 159.195 102.055 159.158 102.166 159.158ZM102.506 160.746V164.982H101.818V160.746H102.506ZM105.57 165.061C105.212 165.061 104.896 164.985 104.622 164.832C104.348 164.679 104.132 164.442 103.974 164.121C103.821 163.8 103.745 163.389 103.745 162.888C103.745 162.366 103.826 161.942 103.99 161.616C104.153 161.289 104.374 161.049 104.654 160.896C104.938 160.744 105.26 160.667 105.618 160.667C105.823 160.667 106.021 160.691 106.211 160.738C106.405 160.781 106.564 160.833 106.685 160.896L106.471 161.473C106.35 161.426 106.208 161.381 106.045 161.339C105.887 161.297 105.739 161.276 105.602 161.276C104.838 161.276 104.456 161.811 104.456 162.88C104.456 163.391 104.548 163.784 104.733 164.058C104.922 164.326 105.202 164.461 105.57 164.461C105.786 164.461 105.979 164.437 106.147 164.39C106.316 164.342 106.471 164.284 106.614 164.216V164.832C106.477 164.906 106.326 164.961 106.163 164.998C106 165.04 105.802 165.061 105.57 165.061ZM108.445 158.976V162.114C108.445 162.198 108.44 162.309 108.43 162.445C108.424 162.582 108.419 162.701 108.414 162.801H108.445C108.477 162.759 108.522 162.698 108.58 162.619C108.638 162.54 108.698 162.461 108.761 162.382C108.825 162.298 108.88 162.229 108.927 162.177L110.184 160.746H110.982L109.37 162.556L111.093 164.982H110.271L108.904 163.007L108.445 163.425V164.982H107.766V158.976H108.445ZM115.497 164.492C115.597 164.492 115.7 164.485 115.805 164.469C115.911 164.453 115.998 164.432 116.066 164.405V164.935C115.992 164.972 115.887 165.001 115.75 165.022C115.618 165.048 115.492 165.061 115.371 165.061C115.16 165.061 114.965 165.025 114.786 164.951C114.607 164.872 114.462 164.737 114.351 164.548C114.246 164.358 114.193 164.092 114.193 163.75V161.284H113.632V160.952L114.209 160.675L114.47 159.774H114.881V160.746H116.035V161.284H114.881V163.734C114.881 163.992 114.939 164.184 115.055 164.311C115.171 164.432 115.318 164.492 115.497 164.492ZM120.55 162.856C120.55 163.557 120.382 164.1 120.045 164.485C119.707 164.869 119.252 165.061 118.677 165.061C118.324 165.061 118.008 164.977 117.729 164.809C117.455 164.635 117.239 164.384 117.081 164.058C116.923 163.726 116.844 163.325 116.844 162.856C116.844 162.156 117.01 161.616 117.342 161.236C117.674 160.857 118.127 160.667 118.701 160.667C119.059 160.667 119.378 160.754 119.657 160.928C119.937 161.097 120.155 161.344 120.313 161.671C120.471 161.992 120.55 162.388 120.55 162.856ZM117.555 162.856C117.555 163.357 117.645 163.755 117.824 164.05C118.008 164.34 118.298 164.485 118.693 164.485C119.088 164.485 119.378 164.34 119.563 164.05C119.747 163.755 119.839 163.357 119.839 162.856C119.839 162.356 119.747 161.963 119.563 161.679C119.378 161.394 119.086 161.252 118.685 161.252C118.29 161.252 118.003 161.394 117.824 161.679C117.645 161.963 117.555 162.356 117.555 162.856ZM127.282 160.746V164.982H126.729L126.626 164.421H126.595C126.463 164.643 126.284 164.806 126.057 164.911C125.831 165.011 125.588 165.061 125.33 165.061C124.856 165.061 124.495 164.94 124.247 164.698C124.005 164.45 123.884 164.058 123.884 163.52V160.746H124.579V163.473C124.579 164.147 124.869 164.485 125.449 164.485C125.881 164.485 126.178 164.353 126.342 164.089C126.51 163.826 126.595 163.447 126.595 162.951V160.746H127.282ZM130.662 160.667C131.152 160.667 131.545 160.849 131.84 161.213C132.14 161.576 132.29 162.124 132.29 162.856C132.29 163.578 132.14 164.126 131.84 164.5C131.54 164.874 131.144 165.061 130.654 165.061C130.344 165.061 130.091 165.001 129.896 164.88C129.701 164.758 129.545 164.614 129.429 164.445H129.382C129.393 164.535 129.403 164.648 129.414 164.785C129.424 164.922 129.429 165.04 129.429 165.14V166.879H128.742V160.746H129.303L129.398 161.323H129.429C129.545 161.139 129.698 160.983 129.888 160.857C130.083 160.731 130.341 160.667 130.662 160.667ZM130.528 161.252C130.133 161.252 129.851 161.373 129.682 161.616C129.514 161.858 129.429 162.227 129.429 162.722V162.856C129.429 163.378 129.508 163.781 129.666 164.066C129.825 164.345 130.117 164.485 130.544 164.485C130.781 164.485 130.976 164.416 131.129 164.279C131.281 164.137 131.395 163.942 131.468 163.694C131.542 163.447 131.579 163.165 131.579 162.849C131.579 162.364 131.492 161.977 131.318 161.687C131.15 161.397 130.886 161.252 130.528 161.252ZM134.217 164.982H133.529V158.976H134.217V164.982ZM139.163 162.856C139.163 163.557 138.994 164.1 138.657 164.485C138.32 164.869 137.864 165.061 137.29 165.061C136.937 165.061 136.62 164.977 136.341 164.809C136.067 164.635 135.851 164.384 135.693 164.058C135.535 163.726 135.456 163.325 135.456 162.856C135.456 162.156 135.622 161.616 135.954 161.236C136.286 160.857 136.739 160.667 137.313 160.667C137.672 160.667 137.99 160.754 138.27 160.928C138.549 161.097 138.767 161.344 138.926 161.671C139.084 161.992 139.163 162.388 139.163 162.856ZM136.167 162.856C136.167 163.357 136.257 163.755 136.436 164.05C136.62 164.34 136.91 164.485 137.305 164.485C137.701 164.485 137.99 164.34 138.175 164.05C138.359 163.755 138.451 163.357 138.451 162.856C138.451 162.356 138.359 161.963 138.175 161.679C137.99 161.394 137.698 161.252 137.297 161.252C136.902 161.252 136.615 161.394 136.436 161.679C136.257 161.963 136.167 162.356 136.167 162.856ZM141.921 160.675C142.405 160.675 142.766 160.788 143.003 161.015C143.246 161.242 143.367 161.602 143.367 162.098V164.982H142.869L142.735 164.382H142.703C142.529 164.614 142.347 164.785 142.158 164.895C141.968 165.006 141.705 165.061 141.367 165.061C141.009 165.061 140.709 164.961 140.466 164.761C140.229 164.556 140.111 164.237 140.111 163.805C140.111 163.383 140.266 163.059 140.577 162.833C140.888 162.601 141.367 162.474 142.015 162.453L142.687 162.43V162.177C142.687 161.824 142.616 161.579 142.474 161.442C142.337 161.305 142.139 161.236 141.881 161.236C141.676 161.236 141.478 161.271 141.288 161.339C141.099 161.402 140.922 161.476 140.759 161.56L140.545 161.039C140.725 160.939 140.933 160.854 141.17 160.786C141.407 160.712 141.657 160.675 141.921 160.675ZM142.687 162.912L142.11 162.935C141.626 162.957 141.288 163.041 141.099 163.188C140.914 163.336 140.822 163.544 140.822 163.813C140.822 164.05 140.888 164.224 141.02 164.334C141.151 164.445 141.323 164.5 141.533 164.5C141.86 164.5 142.134 164.403 142.355 164.208C142.577 164.008 142.687 163.702 142.687 163.291V162.912ZM146.211 165.061C145.721 165.061 145.326 164.88 145.026 164.516C144.731 164.147 144.583 163.599 144.583 162.872C144.583 162.145 144.734 161.597 145.034 161.228C145.334 160.854 145.729 160.667 146.219 160.667C146.525 160.667 146.775 160.728 146.97 160.849C147.165 160.97 147.323 161.118 147.444 161.292H147.492C147.486 161.223 147.476 161.123 147.46 160.991C147.45 160.854 147.444 160.746 147.444 160.667V158.976H148.132V164.982H147.579L147.476 164.413H147.444C147.323 164.593 147.165 164.745 146.97 164.872C146.775 164.998 146.522 165.061 146.211 165.061ZM146.338 164.485C146.749 164.485 147.036 164.363 147.199 164.121C147.368 163.873 147.452 163.502 147.452 163.007V162.88C147.452 162.353 147.373 161.95 147.215 161.671C147.057 161.386 146.762 161.244 146.33 161.244C145.982 161.244 145.721 161.394 145.548 161.695C145.379 161.99 145.295 162.388 145.295 162.888C145.295 163.394 145.379 163.786 145.548 164.066C145.721 164.345 145.985 164.485 146.338 164.485ZM151.116 160.746H151.859L152.705 163.157C152.778 163.373 152.844 163.576 152.902 163.765C152.96 163.955 153.002 164.137 153.029 164.311H153.052C153.084 164.179 153.129 164.008 153.187 163.797C153.245 163.581 153.31 163.365 153.384 163.149L154.182 160.746H154.933L153.218 165.567C153.076 165.968 152.892 166.286 152.665 166.524C152.438 166.761 152.133 166.879 151.748 166.879C151.627 166.879 151.522 166.871 151.432 166.855C151.343 166.845 151.266 166.832 151.203 166.816V166.263C151.256 166.273 151.321 166.284 151.4 166.294C151.48 166.305 151.561 166.31 151.645 166.31C151.872 166.31 152.054 166.242 152.191 166.105C152.333 165.968 152.444 165.786 152.523 165.559L152.72 164.998L151.116 160.746ZM159.257 162.856C159.257 163.557 159.088 164.1 158.751 164.485C158.414 164.869 157.958 165.061 157.384 165.061C157.031 165.061 156.714 164.977 156.435 164.809C156.161 164.635 155.945 164.384 155.787 164.058C155.629 163.726 155.55 163.325 155.55 162.856C155.55 162.156 155.716 161.616 156.048 161.236C156.38 160.857 156.833 160.667 157.407 160.667C157.766 160.667 158.084 160.754 158.364 160.928C158.643 161.097 158.861 161.344 159.019 161.671C159.178 161.992 159.257 162.388 159.257 162.856ZM156.261 162.856C156.261 163.357 156.351 163.755 156.53 164.05C156.714 164.34 157.004 164.485 157.399 164.485C157.794 164.485 158.084 164.34 158.269 164.05C158.453 163.755 158.545 163.357 158.545 162.856C158.545 162.356 158.453 161.963 158.269 161.679C158.084 161.394 157.792 161.252 157.391 161.252C156.996 161.252 156.709 161.394 156.53 161.679C156.351 161.963 156.261 162.356 156.261 162.856ZM163.848 160.746V164.982H163.295L163.192 164.421H163.161C163.029 164.643 162.85 164.806 162.623 164.911C162.397 165.011 162.154 165.061 161.896 165.061C161.422 165.061 161.061 164.94 160.813 164.698C160.571 164.45 160.45 164.058 160.45 163.52V160.746H161.145V163.473C161.145 164.147 161.435 164.485 162.015 164.485C162.447 164.485 162.744 164.353 162.908 164.089C163.076 163.826 163.161 163.447 163.161 162.951V160.746H163.848ZM167.197 160.667C167.27 160.667 167.349 160.673 167.434 160.683C167.518 160.688 167.592 160.699 167.655 160.715L167.576 161.355C167.513 161.339 167.442 161.326 167.363 161.315C167.289 161.305 167.218 161.3 167.149 161.3C166.949 161.3 166.759 161.36 166.58 161.481C166.406 161.597 166.264 161.763 166.153 161.979C166.048 162.19 165.995 162.438 165.995 162.722V164.982H165.308V160.746H165.869L165.948 161.521H165.979C166.106 161.289 166.272 161.089 166.477 160.92C166.683 160.752 166.923 160.667 167.197 160.667ZM172.666 160.667C173.156 160.667 173.549 160.849 173.844 161.213C174.144 161.576 174.294 162.124 174.294 162.856C174.294 163.578 174.144 164.126 173.844 164.5C173.544 164.874 173.148 165.061 172.658 165.061C172.348 165.061 172.095 165.001 171.9 164.88C171.705 164.758 171.549 164.614 171.433 164.445H171.386C171.397 164.535 171.407 164.648 171.418 164.785C171.428 164.922 171.433 165.04 171.433 165.14V166.879H170.746V160.746H171.307L171.402 161.323H171.433C171.549 161.139 171.702 160.983 171.892 160.857C172.087 160.731 172.345 160.667 172.666 160.667ZM172.532 161.252C172.137 161.252 171.855 161.373 171.686 161.616C171.518 161.858 171.433 162.227 171.433 162.722V162.856C171.433 163.378 171.512 163.781 171.671 164.066C171.829 164.345 172.121 164.485 172.548 164.485C172.785 164.485 172.98 164.416 173.133 164.279C173.285 164.137 173.399 163.942 173.472 163.694C173.546 163.447 173.583 163.165 173.583 162.849C173.583 162.364 173.496 161.977 173.322 161.687C173.154 161.397 172.89 161.252 172.532 161.252ZM176.221 158.976V160.738C176.221 160.949 176.208 161.147 176.181 161.331H176.229C176.355 161.115 176.529 160.952 176.75 160.841C176.972 160.731 177.209 160.675 177.462 160.675C177.941 160.675 178.305 160.799 178.552 161.047C178.8 161.289 178.924 161.682 178.924 162.224V164.982H178.236V162.272C178.236 161.592 177.946 161.252 177.367 161.252C176.93 161.252 176.629 161.386 176.466 161.655C176.303 161.919 176.221 162.298 176.221 162.793V164.982H175.533V158.976H176.221ZM183.845 162.856C183.845 163.557 183.676 164.1 183.339 164.485C183.002 164.869 182.546 165.061 181.972 165.061C181.619 165.061 181.303 164.977 181.023 164.809C180.749 164.635 180.533 164.384 180.375 164.058C180.217 163.726 180.138 163.325 180.138 162.856C180.138 162.156 180.304 161.616 180.636 161.236C180.968 160.857 181.421 160.667 181.995 160.667C182.354 160.667 182.672 160.754 182.952 160.928C183.231 161.097 183.45 161.344 183.608 161.671C183.766 161.992 183.845 162.388 183.845 162.856ZM180.849 162.856C180.849 163.357 180.939 163.755 181.118 164.05C181.303 164.34 181.592 164.485 181.988 164.485C182.383 164.485 182.672 164.34 182.857 164.05C183.041 163.755 183.133 163.357 183.133 162.856C183.133 162.356 183.041 161.963 182.857 161.679C182.672 161.394 182.38 161.252 181.98 161.252C181.584 161.252 181.297 161.394 181.118 161.679C180.939 161.963 180.849 162.356 180.849 162.856ZM186.445 164.492C186.545 164.492 186.648 164.485 186.753 164.469C186.858 164.453 186.945 164.432 187.014 164.405V164.935C186.94 164.972 186.835 165.001 186.698 165.022C186.566 165.048 186.439 165.061 186.318 165.061C186.108 165.061 185.913 165.025 185.733 164.951C185.554 164.872 185.409 164.737 185.299 164.548C185.193 164.358 185.141 164.092 185.141 163.75V161.284H184.58V160.952L185.157 160.675L185.417 159.774H185.828V160.746H186.982V161.284H185.828V163.734C185.828 163.992 185.886 164.184 186.002 164.311C186.118 164.432 186.266 164.492 186.445 164.492ZM191.498 162.856C191.498 163.557 191.329 164.1 190.992 164.485C190.655 164.869 190.199 165.061 189.625 165.061C189.272 165.061 188.956 164.977 188.677 164.809C188.403 164.635 188.187 164.384 188.029 164.058C187.87 163.726 187.791 163.325 187.791 162.856C187.791 162.156 187.957 161.616 188.289 161.236C188.621 160.857 189.074 160.667 189.649 160.667C190.007 160.667 190.326 160.754 190.605 160.928C190.884 161.097 191.103 161.344 191.261 161.671C191.419 161.992 191.498 162.388 191.498 162.856ZM188.503 162.856C188.503 163.357 188.592 163.755 188.771 164.05C188.956 164.34 189.246 164.485 189.641 164.485C190.036 164.485 190.326 164.34 190.51 164.05C190.695 163.755 190.787 163.357 190.787 162.856C190.787 162.356 190.695 161.963 190.51 161.679C190.326 161.394 190.033 161.252 189.633 161.252C189.238 161.252 188.951 161.394 188.771 161.679C188.592 161.963 188.503 162.356 188.503 162.856Z" fill="black"></path>
<path d="M32.5945 190.471H31.8911V184.828H34.8627V185.452H32.5945V187.452H34.7204V188.076H32.5945V190.471ZM39.248 186.235V190.471H38.6947L38.592 189.91H38.5604C38.4287 190.131 38.2495 190.294 38.023 190.4C37.7964 190.5 37.5541 190.55 37.2959 190.55C36.8217 190.55 36.4608 190.429 36.2131 190.186C35.9708 189.939 35.8496 189.546 35.8496 189.009V186.235H36.5451V188.961C36.5451 189.636 36.8349 189.973 37.4144 189.973C37.8465 189.973 38.1442 189.841 38.3075 189.578C38.4761 189.314 38.5604 188.935 38.5604 188.44V186.235H39.248ZM41.3951 190.471H40.7075V184.464H41.3951V190.471ZM43.543 190.471H42.8555V184.464H43.543V190.471ZM49.0878 186.156C49.562 186.156 49.9203 186.279 50.1627 186.527C50.4103 186.775 50.5341 187.17 50.5341 187.712V190.471H49.8465V187.76C49.8465 187.08 49.5568 186.74 48.9772 186.74C48.5399 186.74 48.2396 186.872 48.0762 187.136C47.9129 187.399 47.8312 187.778 47.8312 188.274V190.471H47.1437V186.235H47.6969L47.7996 186.812H47.8391C47.9656 186.59 48.1421 186.427 48.3686 186.322C48.5952 186.211 48.8349 186.156 49.0878 186.156ZM53.4951 186.163C53.9798 186.163 54.3407 186.277 54.5778 186.503C54.8202 186.73 54.9413 187.091 54.9413 187.586V190.471H54.4434L54.3091 189.87H54.2775C54.1036 190.102 53.9218 190.273 53.7322 190.384C53.5425 190.494 53.279 190.55 52.9418 190.55C52.5836 190.55 52.2832 190.45 52.0409 190.249C51.8038 190.044 51.6852 189.725 51.6852 189.293C51.6852 188.872 51.8407 188.548 52.1515 188.321C52.4624 188.089 52.9418 187.963 53.5899 187.942L54.2617 187.918V187.665C54.2617 187.312 54.1905 187.067 54.0483 186.93C53.9113 186.793 53.7137 186.725 53.4555 186.725C53.2501 186.725 53.0525 186.759 52.8628 186.827C52.6731 186.891 52.4966 186.964 52.3333 187.049L52.1199 186.527C52.299 186.427 52.5072 186.343 52.7443 186.274C52.9814 186.2 53.2316 186.163 53.4951 186.163ZM54.2617 188.4L53.6847 188.424C53.2 188.445 52.8628 188.529 52.6731 188.677C52.4887 188.824 52.3965 189.032 52.3965 189.301C52.3965 189.538 52.4624 189.712 52.5941 189.823C52.7258 189.933 52.8971 189.989 53.1078 189.989C53.4345 189.989 53.7085 189.891 53.9297 189.696C54.151 189.496 54.2617 189.19 54.2617 188.779V188.4ZM60.7812 186.156C61.2343 186.156 61.5715 186.279 61.7928 186.527C62.0141 186.775 62.1247 187.17 62.1247 187.712V190.471H61.445V187.744C61.445 187.075 61.1789 186.74 60.6468 186.74C60.2674 186.74 59.9961 186.859 59.8328 187.096C59.6747 187.333 59.5957 187.678 59.5957 188.131V190.471H58.9081V187.744C58.9081 187.075 58.642 186.74 58.1099 186.74C57.7147 186.74 57.4407 186.872 57.2879 187.136C57.1404 187.399 57.0667 187.778 57.0667 188.274V190.471H56.3791V186.235H56.9323L57.035 186.812H57.0746C57.1957 186.59 57.3617 186.427 57.5725 186.322C57.7832 186.211 58.0071 186.156 58.2442 186.156C58.5498 186.156 58.8054 186.214 59.0108 186.329C59.2163 186.445 59.3665 186.624 59.4613 186.867H59.5087C59.6405 186.624 59.8196 186.445 60.0462 186.329C60.2727 186.214 60.5177 186.156 60.7812 186.156ZM65.1082 186.156C65.4506 186.156 65.7457 186.235 65.9933 186.393C66.241 186.551 66.4306 186.775 66.5624 187.064C66.6993 187.349 66.7678 187.684 66.7678 188.068V188.487H64.0491C64.0597 188.966 64.173 189.333 64.389 189.586C64.605 189.833 64.908 189.957 65.2978 189.957C65.5508 189.957 65.7747 189.933 65.9696 189.886C66.1698 189.833 66.3753 189.759 66.5861 189.665V190.273C66.3806 190.368 66.1777 190.436 65.9775 190.479C65.7826 190.526 65.5455 190.55 65.2662 190.55C64.8816 190.55 64.5444 190.468 64.2546 190.305C63.9701 190.141 63.7462 189.899 63.5829 189.578C63.4195 189.256 63.3379 188.858 63.3379 188.384C63.3379 187.921 63.4116 187.523 63.5591 187.191C63.7067 186.859 63.9122 186.603 64.1756 186.424C64.4443 186.245 64.7552 186.156 65.1082 186.156ZM65.1082 186.725C64.7973 186.725 64.5523 186.833 64.3732 187.049C64.1993 187.259 64.0966 187.554 64.065 187.934H66.0566C66.0513 187.575 65.9723 187.286 65.8195 187.064C65.6667 186.838 65.4296 186.725 65.1082 186.725ZM69.7544 184.464L69.6042 185.982L71.0268 185.555L71.1296 186.282L69.7702 186.401L70.6554 187.649L69.9994 188.021L69.3751 186.638L68.806 188.021L68.1342 187.649L68.9957 186.401L67.6522 186.282L67.7628 185.555L69.1617 185.982L69.0115 184.464H69.7544Z" fill="black"></path>
<rect x="31.1719" y="196.105" width="223.924" height="26.344" rx="2.6344" fill="#F2F2F7"></rect>
<path opacity="0.3" d="M45.3998 212.008H42.4282V206.365H45.3998V206.989H43.1316V208.752H45.2654V209.368H43.1316V211.383H45.3998V212.008ZM48.6251 207.693C49.0993 207.693 49.4576 207.816 49.6999 208.064C49.9476 208.312 50.0714 208.707 50.0714 209.25V212.008H49.3838V209.297C49.3838 208.617 49.094 208.278 48.5145 208.278C48.0771 208.278 47.7768 208.409 47.6135 208.673C47.4502 208.936 47.3685 209.315 47.3685 209.811V212.008H46.6809V207.772H47.2341L47.3369 208.349H47.3764C47.5028 208.127 47.6794 207.964 47.9059 207.859C48.1325 207.748 48.3722 207.693 48.6251 207.693ZM52.8743 211.518C52.9744 211.518 53.0771 211.51 53.1825 211.494C53.2879 211.478 53.3748 211.457 53.4433 211.431V211.96C53.3695 211.997 53.2642 212.026 53.1272 212.047C52.9954 212.074 52.869 212.087 52.7478 212.087C52.5371 212.087 52.3421 212.05 52.163 211.976C51.9838 211.897 51.8389 211.763 51.7283 211.573C51.6229 211.383 51.5702 211.117 51.5702 210.775V208.309H51.0091V207.977L51.586 207.701L51.8468 206.8H52.2578V207.772H53.4117V208.309H52.2578V210.759C52.2578 211.017 52.3158 211.21 52.4317 211.336C52.5476 211.457 52.6951 211.518 52.8743 211.518ZM55.9912 207.693C56.3337 207.693 56.6288 207.772 56.8764 207.93C57.124 208.088 57.3137 208.312 57.4454 208.602C57.5824 208.886 57.6509 209.221 57.6509 209.605V210.024H54.9322C54.9427 210.504 55.056 210.87 55.272 211.123C55.4881 211.37 55.791 211.494 56.1809 211.494C56.4338 211.494 56.6577 211.47 56.8527 211.423C57.0529 211.37 57.2584 211.297 57.4691 211.202V211.81C57.2636 211.905 57.0608 211.974 56.8606 212.016C56.6656 212.063 56.4285 212.087 56.1493 212.087C55.7647 212.087 55.4275 212.005 55.1377 211.842C54.8532 211.679 54.6292 211.436 54.4659 211.115C54.3026 210.793 54.2209 210.396 54.2209 209.921C54.2209 209.458 54.2947 209.06 54.4422 208.728C54.5897 208.396 54.7952 208.141 55.0587 207.961C55.3274 207.782 55.6382 207.693 55.9912 207.693ZM55.9912 208.262C55.6804 208.262 55.4354 208.37 55.2562 208.586C55.0824 208.796 54.9796 209.092 54.948 209.471H56.9396C56.9343 209.113 56.8553 208.823 56.7025 208.602C56.5497 208.375 56.3126 208.262 55.9912 208.262ZM60.7481 207.693C60.8219 207.693 60.9009 207.698 60.9852 207.708C61.0695 207.714 61.1433 207.724 61.2065 207.74L61.1275 208.38C61.0642 208.364 60.9931 208.351 60.9141 208.341C60.8403 208.33 60.7692 208.325 60.7007 208.325C60.5005 208.325 60.3108 208.386 60.1317 208.507C59.9578 208.623 59.8155 208.789 59.7049 209.005C59.5995 209.215 59.5468 209.463 59.5468 209.747V212.008H58.8592V207.772H59.4204L59.4994 208.546H59.531C59.6575 208.314 59.8234 208.114 60.0289 207.946C60.2344 207.777 60.4741 207.693 60.7481 207.693ZM63.681 207.772H64.4239L65.2695 210.182C65.3433 210.398 65.4091 210.601 65.4671 210.791C65.5251 210.98 65.5672 211.162 65.5935 211.336H65.6173C65.6489 211.204 65.6937 211.033 65.7516 210.822C65.8096 210.606 65.8754 210.39 65.9492 210.174L66.7474 207.772H67.4982L65.7832 212.593C65.641 212.993 65.4566 213.312 65.23 213.549C65.0034 213.786 64.6979 213.905 64.3132 213.905C64.192 213.905 64.0867 213.897 63.9971 213.881C63.9075 213.87 63.8311 213.857 63.7679 213.841V213.288C63.8206 213.299 63.8865 213.309 63.9655 213.32C64.0445 213.33 64.1262 213.336 64.2105 213.336C64.437 213.336 64.6188 213.267 64.7558 213.13C64.8981 212.993 65.0087 212.811 65.0877 212.585L65.2853 212.024L63.681 207.772ZM71.8216 209.882C71.8216 210.583 71.653 211.125 71.3158 211.51C70.9786 211.895 70.5228 212.087 69.9485 212.087C69.5955 212.087 69.2794 212.003 69.0002 211.834C68.7262 211.66 68.5102 211.41 68.3521 211.083C68.194 210.751 68.115 210.351 68.115 209.882C68.115 209.181 68.281 208.641 68.6129 208.262C68.9448 207.882 69.3979 207.693 69.9722 207.693C70.3305 207.693 70.6493 207.78 70.9285 207.953C71.2078 208.122 71.4264 208.37 71.5845 208.696C71.7426 209.018 71.8216 209.413 71.8216 209.882ZM68.8263 209.882C68.8263 210.382 68.9159 210.78 69.095 211.075C69.2794 211.365 69.5692 211.51 69.9643 211.51C70.3595 211.51 70.6493 211.365 70.8337 211.075C71.0181 210.78 71.1103 210.382 71.1103 209.882C71.1103 209.381 71.0181 208.989 70.8337 208.704C70.6493 208.42 70.3569 208.278 69.9564 208.278C69.5613 208.278 69.2741 208.42 69.095 208.704C68.9159 208.989 68.8263 209.381 68.8263 209.882ZM76.4132 207.772V212.008H75.86L75.7572 211.447H75.7256C75.5939 211.668 75.4148 211.831 75.1882 211.937C74.9616 212.037 74.7193 212.087 74.4611 212.087C73.9869 212.087 73.626 211.966 73.3784 211.723C73.136 211.476 73.0148 211.083 73.0148 210.546V207.772H73.7103V210.498C73.7103 211.173 74.0001 211.51 74.5796 211.51C75.0117 211.51 75.3094 211.378 75.4727 211.115C75.6413 210.851 75.7256 210.472 75.7256 209.977V207.772H76.4132ZM79.7616 207.693C79.8353 207.693 79.9144 207.698 79.9987 207.708C80.083 207.714 80.1567 207.724 80.22 207.74L80.1409 208.38C80.0777 208.364 80.0066 208.351 79.9275 208.341C79.8538 208.33 79.7826 208.325 79.7141 208.325C79.5139 208.325 79.3243 208.386 79.1451 208.507C78.9712 208.623 78.829 208.789 78.7183 209.005C78.613 209.215 78.5603 209.463 78.5603 209.747V212.008H77.8727V207.772H78.4338L78.5129 208.546H78.5445C78.6709 208.314 78.8369 208.114 79.0424 207.946C79.2479 207.777 79.4876 207.693 79.7616 207.693ZM85.176 208.309H84.1802V212.008H83.4848V208.309H82.7972V207.985L83.4848 207.748V207.503C83.4848 206.955 83.598 206.563 83.8246 206.325C84.0564 206.083 84.3778 205.962 84.7888 205.962C84.9521 205.962 85.0996 205.978 85.2314 206.009C85.3683 206.036 85.4869 206.067 85.587 206.104L85.4052 206.649C85.3209 206.623 85.2261 206.597 85.1207 206.57C85.0206 206.544 84.9152 206.531 84.8046 206.531C84.5938 206.531 84.4358 206.61 84.3304 206.768C84.2303 206.921 84.1802 207.163 84.1802 207.495V207.772H85.176V208.309ZM89.4583 207.772V212.008H88.9051L88.8023 211.447H88.7707C88.639 211.668 88.4599 211.831 88.2333 211.937C88.0067 212.037 87.7644 212.087 87.5062 212.087C87.032 212.087 86.6711 211.966 86.4235 211.723C86.1811 211.476 86.0599 211.083 86.0599 210.546V207.772H86.7554V210.498C86.7554 211.173 87.0452 211.51 87.6248 211.51C88.0568 211.51 88.3545 211.378 88.5178 211.115C88.6864 210.851 88.7707 210.472 88.7707 209.977V207.772H89.4583ZM91.6054 212.008H90.9178V206.001H91.6054V212.008ZM93.7534 212.008H93.0658V206.001H93.7534V212.008ZM99.2982 207.693C99.7724 207.693 100.131 207.816 100.373 208.064C100.621 208.312 100.744 208.707 100.744 209.25V212.008H100.057V209.297C100.057 208.617 99.7671 208.278 99.1875 208.278C98.7502 208.278 98.4499 208.409 98.2866 208.673C98.1232 208.936 98.0416 209.315 98.0416 209.811V212.008H97.354V207.772H97.9072L98.0099 208.349H98.0495C98.1759 208.127 98.3524 207.964 98.579 207.859C98.8055 207.748 99.0453 207.693 99.2982 207.693ZM103.705 207.701C104.19 207.701 104.551 207.814 104.788 208.04C105.03 208.267 105.152 208.628 105.152 209.123V212.008H104.654L104.519 211.407H104.488C104.314 211.639 104.132 211.81 103.942 211.921C103.753 212.032 103.489 212.087 103.152 212.087C102.794 212.087 102.494 211.987 102.251 211.787C102.014 211.581 101.896 211.262 101.896 210.83C101.896 210.409 102.051 210.085 102.362 209.858C102.673 209.626 103.152 209.5 103.8 209.479L104.472 209.455V209.202C104.472 208.849 104.401 208.604 104.259 208.467C104.122 208.33 103.924 208.262 103.666 208.262C103.46 208.262 103.263 208.296 103.073 208.364C102.883 208.428 102.707 208.501 102.544 208.586L102.33 208.064C102.509 207.964 102.717 207.88 102.955 207.811C103.192 207.737 103.442 207.701 103.705 207.701ZM104.472 209.937L103.895 209.961C103.41 209.982 103.073 210.066 102.883 210.214C102.699 210.361 102.607 210.569 102.607 210.838C102.607 211.075 102.673 211.249 102.804 211.36C102.936 211.47 103.107 211.526 103.318 211.526C103.645 211.526 103.919 211.428 104.14 211.233C104.361 211.033 104.472 210.727 104.472 210.317V209.937ZM110.991 207.693C111.445 207.693 111.782 207.816 112.003 208.064C112.224 208.312 112.335 208.707 112.335 209.25V212.008H111.655V209.281C111.655 208.612 111.389 208.278 110.857 208.278C110.478 208.278 110.206 208.396 110.043 208.633C109.885 208.87 109.806 209.215 109.806 209.668V212.008H109.118V209.281C109.118 208.612 108.852 208.278 108.32 208.278C107.925 208.278 107.651 208.409 107.498 208.673C107.351 208.936 107.277 209.315 107.277 209.811V212.008H106.589V207.772H107.143L107.245 208.349H107.285C107.406 208.127 107.572 207.964 107.783 207.859C107.994 207.748 108.217 207.693 108.455 207.693C108.76 207.693 109.016 207.751 109.221 207.867C109.427 207.982 109.577 208.162 109.672 208.404H109.719C109.851 208.162 110.03 207.982 110.256 207.867C110.483 207.751 110.728 207.693 110.991 207.693ZM115.318 207.693C115.661 207.693 115.956 207.772 116.204 207.93C116.451 208.088 116.641 208.312 116.773 208.602C116.91 208.886 116.978 209.221 116.978 209.605V210.024H114.259C114.27 210.504 114.383 210.87 114.599 211.123C114.815 211.37 115.118 211.494 115.508 211.494C115.761 211.494 115.985 211.47 116.18 211.423C116.38 211.37 116.586 211.297 116.796 211.202V211.81C116.591 211.905 116.388 211.974 116.188 212.016C115.993 212.063 115.756 212.087 115.477 212.087C115.092 212.087 114.755 212.005 114.465 211.842C114.18 211.679 113.957 211.436 113.793 211.115C113.63 210.793 113.548 210.396 113.548 209.921C113.548 209.458 113.622 209.06 113.769 208.728C113.917 208.396 114.122 208.141 114.386 207.961C114.655 207.782 114.965 207.693 115.318 207.693ZM115.318 208.262C115.008 208.262 114.763 208.37 114.583 208.586C114.41 208.796 114.307 209.092 114.275 209.471H116.267C116.262 209.113 116.183 208.823 116.03 208.602C115.877 208.375 115.64 208.262 115.318 208.262Z" fill="black"></path>
<path d="M31.1561 247.757C31.0349 247.757 30.9295 247.747 30.8399 247.726C30.7451 247.71 30.6634 247.686 30.5949 247.655V247.054C30.674 247.08 30.7583 247.099 30.8478 247.109C30.9374 247.125 31.0323 247.133 31.1324 247.133C31.2535 247.133 31.3695 247.107 31.4801 247.054C31.5907 247.001 31.6803 246.909 31.7488 246.777C31.8173 246.651 31.8515 246.467 31.8515 246.224V240.613H32.5549V246.169C32.5549 246.712 32.4258 247.112 32.1677 247.37C31.9148 247.628 31.5776 247.757 31.1561 247.757ZM37.5453 244.13C37.5453 244.831 37.3767 245.373 37.0395 245.758C36.7023 246.143 36.2465 246.335 35.6722 246.335C35.3192 246.335 35.0031 246.251 34.7238 246.082C34.4498 245.908 34.2338 245.658 34.0758 245.331C33.9177 244.999 33.8387 244.599 33.8387 244.13C33.8387 243.429 34.0046 242.889 34.3366 242.51C34.6685 242.13 35.1216 241.941 35.6959 241.941C36.0542 241.941 36.373 242.028 36.6522 242.202C36.9315 242.37 37.1501 242.618 37.3082 242.944C37.4662 243.266 37.5453 243.661 37.5453 244.13ZM34.55 244.13C34.55 244.63 34.6395 245.028 34.8187 245.323C35.0031 245.613 35.2929 245.758 35.688 245.758C36.0832 245.758 36.373 245.613 36.5574 245.323C36.7418 245.028 36.834 244.63 36.834 244.13C36.834 243.629 36.7418 243.237 36.5574 242.952C36.373 242.668 36.0805 242.526 35.6801 242.526C35.285 242.526 34.9978 242.668 34.8187 242.952C34.6395 243.237 34.55 243.629 34.55 244.13ZM39.4656 240.249V241.712C39.4656 241.891 39.4603 242.059 39.4498 242.217C39.4392 242.37 39.4313 242.491 39.4261 242.581H39.4656C39.5762 242.402 39.729 242.252 39.924 242.13C40.1242 242.009 40.3797 241.949 40.6906 241.949C41.1858 241.949 41.581 242.133 41.8761 242.502C42.1764 242.865 42.3265 243.411 42.3265 244.138C42.3265 244.865 42.1764 245.413 41.8761 245.782C41.5757 246.15 41.1806 246.335 40.6906 246.335C40.3797 246.335 40.1242 246.274 39.924 246.153C39.729 246.032 39.5762 245.887 39.4656 245.718H39.4103L39.2759 246.256H38.778V240.249H39.4656ZM40.5641 242.526C40.1479 242.526 39.8607 242.655 39.7027 242.913C39.5446 243.171 39.4656 243.571 39.4656 244.114V244.146C39.4656 244.667 39.542 245.068 39.6948 245.347C39.8528 245.621 40.1479 245.758 40.5799 245.758C40.9224 245.758 41.1806 245.618 41.3544 245.339C41.5283 245.06 41.6152 244.657 41.6152 244.13C41.6152 243.06 41.2649 242.526 40.5641 242.526ZM47.073 245.766C47.1731 245.766 47.2758 245.758 47.3812 245.742C47.4866 245.726 47.5735 245.705 47.642 245.679V246.208C47.5683 246.245 47.4629 246.274 47.3259 246.295C47.1942 246.322 47.0677 246.335 46.9465 246.335C46.7358 246.335 46.5409 246.298 46.3617 246.224C46.1826 246.145 46.0377 246.011 45.927 245.821C45.8217 245.632 45.769 245.365 45.769 245.023V242.557H45.2078V242.225L45.7848 241.949L46.0456 241.048H46.4566V242.02H47.6104V242.557H46.4566V245.007C46.4566 245.265 46.5145 245.458 46.6304 245.584C46.7463 245.705 46.8939 245.766 47.073 245.766ZM48.9966 240.431C49.102 240.431 49.1942 240.468 49.2732 240.542C49.3522 240.61 49.3917 240.721 49.3917 240.874C49.3917 241.027 49.3522 241.14 49.2732 241.214C49.1942 241.282 49.102 241.316 48.9966 241.316C48.8859 241.316 48.7911 241.282 48.7121 241.214C48.633 241.14 48.5935 241.027 48.5935 240.874C48.5935 240.721 48.633 240.61 48.7121 240.542C48.7911 240.468 48.8859 240.431 48.9966 240.431ZM49.3364 242.02V246.256H48.6488V242.02H49.3364ZM52.1639 245.766C52.264 245.766 52.3667 245.758 52.4721 245.742C52.5775 245.726 52.6644 245.705 52.7329 245.679V246.208C52.6591 246.245 52.5538 246.274 52.4168 246.295C52.2851 246.322 52.1586 246.335 52.0374 246.335C51.8267 246.335 51.6317 246.298 51.4526 246.224C51.2734 246.145 51.1286 246.011 51.0179 245.821C50.9125 245.632 50.8598 245.365 50.8598 245.023V242.557H50.2987V242.225L50.8757 241.949L51.1365 241.048H51.5474V242.02H52.7013V242.557H51.5474V245.007C51.5474 245.265 51.6054 245.458 51.7213 245.584C51.8372 245.705 51.9847 245.766 52.1639 245.766ZM54.4194 246.256H53.7318V240.249H54.4194V246.256ZM57.4288 241.941C57.7713 241.941 58.0663 242.02 58.314 242.178C58.5616 242.336 58.7513 242.56 58.883 242.85C59.02 243.134 59.0885 243.469 59.0885 243.853V244.272H56.3698C56.3803 244.752 56.4936 245.118 56.7096 245.371C56.9256 245.618 57.2286 245.742 57.6185 245.742C57.8714 245.742 58.0953 245.718 58.2902 245.671C58.4905 245.618 58.6959 245.545 58.9067 245.45V246.058C58.7012 246.153 58.4984 246.222 58.2981 246.264C58.1032 246.311 57.8661 246.335 57.5869 246.335C57.2022 246.335 56.865 246.253 56.5753 246.09C56.2907 245.927 56.0668 245.684 55.9035 245.363C55.7401 245.041 55.6585 244.644 55.6585 244.169C55.6585 243.706 55.7322 243.308 55.8798 242.976C56.0273 242.644 56.2328 242.389 56.4962 242.209C56.7649 242.03 57.0758 241.941 57.4288 241.941ZM57.4288 242.51C57.1179 242.51 56.8729 242.618 56.6938 242.834C56.5199 243.045 56.4172 243.34 56.3856 243.719H58.3772C58.3719 243.361 58.2929 243.071 58.1401 242.85C57.9873 242.623 57.7502 242.51 57.4288 242.51Z" fill="black"></path>
<rect x="31.1719" y="251.891" width="223.924" height="26.344" rx="2.6344" fill="#F2F2F7"></rect>
<path opacity="0.3" d="M45.3998 267.793H42.4282V262.15H45.3998V262.774H43.1316V264.537H45.2654V265.153H43.1316V267.169H45.3998V267.793ZM48.6251 263.478C49.0993 263.478 49.4576 263.602 49.6999 263.849C49.9476 264.097 50.0714 264.492 50.0714 265.035V267.793H49.3838V265.082C49.3838 264.402 49.094 264.063 48.5145 264.063C48.0771 264.063 47.7768 264.194 47.6135 264.458C47.4502 264.721 47.3685 265.101 47.3685 265.596V267.793H46.6809V263.557H47.2341L47.3369 264.134H47.3764C47.5028 263.913 47.6794 263.749 47.9059 263.644C48.1325 263.533 48.3722 263.478 48.6251 263.478ZM52.8743 267.303C52.9744 267.303 53.0771 267.295 53.1825 267.279C53.2879 267.263 53.3748 267.242 53.4433 267.216V267.746C53.3695 267.782 53.2642 267.811 53.1272 267.832C52.9954 267.859 52.869 267.872 52.7478 267.872C52.5371 267.872 52.3421 267.835 52.163 267.761C51.9838 267.682 51.8389 267.548 51.7283 267.358C51.6229 267.169 51.5702 266.903 51.5702 266.56V264.094H51.0091V263.762L51.586 263.486L51.8468 262.585H52.2578V263.557H53.4117V264.094H52.2578V266.544C52.2578 266.802 52.3158 266.995 52.4317 267.121C52.5476 267.242 52.6951 267.303 52.8743 267.303ZM55.9912 263.478C56.3337 263.478 56.6288 263.557 56.8764 263.715C57.124 263.873 57.3137 264.097 57.4454 264.387C57.5824 264.671 57.6509 265.006 57.6509 265.39V265.809H54.9322C54.9427 266.289 55.056 266.655 55.272 266.908C55.4881 267.155 55.791 267.279 56.1809 267.279C56.4338 267.279 56.6577 267.256 56.8527 267.208C57.0529 267.155 57.2584 267.082 57.4691 266.987V267.595C57.2636 267.69 57.0608 267.759 56.8606 267.801C56.6656 267.848 56.4285 267.872 56.1493 267.872C55.7647 267.872 55.4275 267.79 55.1377 267.627C54.8532 267.464 54.6292 267.221 54.4659 266.9C54.3026 266.579 54.2209 266.181 54.2209 265.707C54.2209 265.243 54.2947 264.845 54.4422 264.513C54.5897 264.181 54.7952 263.926 55.0587 263.747C55.3274 263.567 55.6382 263.478 55.9912 263.478ZM55.9912 264.047C55.6804 264.047 55.4354 264.155 55.2562 264.371C55.0824 264.582 54.9796 264.877 54.948 265.256H56.9396C56.9343 264.898 56.8553 264.608 56.7025 264.387C56.5497 264.16 56.3126 264.047 55.9912 264.047ZM60.7481 263.478C60.8219 263.478 60.9009 263.483 60.9852 263.494C61.0695 263.499 61.1433 263.509 61.2065 263.525L61.1275 264.165C61.0642 264.15 60.9931 264.136 60.9141 264.126C60.8403 264.115 60.7692 264.11 60.7007 264.11C60.5005 264.11 60.3108 264.171 60.1317 264.292C59.9578 264.408 59.8155 264.574 59.7049 264.79C59.5995 265.001 59.5468 265.248 59.5468 265.533V267.793H58.8592V263.557H59.4204L59.4994 264.331H59.531C59.6575 264.1 59.8234 263.899 60.0289 263.731C60.2344 263.562 60.4741 263.478 60.7481 263.478ZM63.681 263.557H64.4239L65.2695 265.967C65.3433 266.183 65.4091 266.386 65.4671 266.576C65.5251 266.766 65.5672 266.947 65.5935 267.121H65.6173C65.6489 266.989 65.6937 266.818 65.7516 266.607C65.8096 266.391 65.8754 266.175 65.9492 265.959L66.7474 263.557H67.4982L65.7832 268.378C65.641 268.778 65.4566 269.097 65.23 269.334C65.0034 269.571 64.6979 269.69 64.3132 269.69C64.192 269.69 64.0867 269.682 63.9971 269.666C63.9075 269.655 63.8311 269.642 63.7679 269.627V269.073C63.8206 269.084 63.8865 269.094 63.9655 269.105C64.0445 269.115 64.1262 269.121 64.2105 269.121C64.437 269.121 64.6188 269.052 64.7558 268.915C64.8981 268.778 65.0087 268.596 65.0877 268.37L65.2853 267.809L63.681 263.557ZM71.8216 265.667C71.8216 266.368 71.653 266.91 71.3158 267.295C70.9786 267.68 70.5228 267.872 69.9485 267.872C69.5955 267.872 69.2794 267.788 69.0002 267.619C68.7262 267.445 68.5102 267.195 68.3521 266.868C68.194 266.536 68.115 266.136 68.115 265.667C68.115 264.966 68.281 264.426 68.6129 264.047C68.9448 263.668 69.3979 263.478 69.9722 263.478C70.3305 263.478 70.6493 263.565 70.9285 263.739C71.2078 263.907 71.4264 264.155 71.5845 264.482C71.7426 264.803 71.8216 265.198 71.8216 265.667ZM68.8263 265.667C68.8263 266.168 68.9159 266.565 69.095 266.86C69.2794 267.15 69.5692 267.295 69.9643 267.295C70.3595 267.295 70.6493 267.15 70.8337 266.86C71.0181 266.565 71.1103 266.168 71.1103 265.667C71.1103 265.166 71.0181 264.774 70.8337 264.489C70.6493 264.205 70.3569 264.063 69.9564 264.063C69.5613 264.063 69.2741 264.205 69.095 264.489C68.9159 264.774 68.8263 265.166 68.8263 265.667ZM76.4132 263.557V267.793H75.86L75.7572 267.232H75.7256C75.5939 267.453 75.4148 267.616 75.1882 267.722C74.9616 267.822 74.7193 267.872 74.4611 267.872C73.9869 267.872 73.626 267.751 73.3784 267.508C73.136 267.261 73.0148 266.868 73.0148 266.331V263.557H73.7103V266.283C73.7103 266.958 74.0001 267.295 74.5796 267.295C75.0117 267.295 75.3094 267.163 75.4727 266.9C75.6413 266.636 75.7256 266.257 75.7256 265.762V263.557H76.4132ZM79.7616 263.478C79.8353 263.478 79.9144 263.483 79.9987 263.494C80.083 263.499 80.1567 263.509 80.22 263.525L80.1409 264.165C80.0777 264.15 80.0066 264.136 79.9275 264.126C79.8538 264.115 79.7826 264.11 79.7141 264.11C79.5139 264.11 79.3243 264.171 79.1451 264.292C78.9712 264.408 78.829 264.574 78.7183 264.79C78.613 265.001 78.5603 265.248 78.5603 265.533V267.793H77.8727V263.557H78.4338L78.5129 264.331H78.5445C78.6709 264.1 78.8369 263.899 79.0424 263.731C79.2479 263.562 79.4876 263.478 79.7616 263.478ZM83.2635 262.411C83.2635 262.258 83.303 262.147 83.382 262.079C83.461 262.005 83.5559 261.968 83.6665 261.968C83.7719 261.968 83.8641 262.005 83.9431 262.079C84.0222 262.147 84.0617 262.258 84.0617 262.411C84.0617 262.564 84.0222 262.677 83.9431 262.751C83.8641 262.819 83.7719 262.853 83.6665 262.853C83.5559 262.853 83.461 262.819 83.382 262.751C83.303 262.677 83.2635 262.564 83.2635 262.411ZM82.8604 269.69C82.734 269.69 82.6233 269.679 82.5285 269.658C82.4284 269.642 82.3441 269.621 82.2756 269.595V269.034C82.3493 269.06 82.4257 269.079 82.5048 269.089C82.5838 269.105 82.6707 269.113 82.7656 269.113C82.9289 269.113 83.0606 269.065 83.1607 268.971C83.2661 268.881 83.3188 268.707 83.3188 268.449V263.557H84.0064V268.425C84.0064 268.82 83.9142 269.129 83.7298 269.35C83.5506 269.576 83.2608 269.69 82.8604 269.69ZM88.9519 265.667C88.9519 266.368 88.7833 266.91 88.4461 267.295C88.1089 267.68 87.6531 267.872 87.0788 267.872C86.7258 267.872 86.4097 267.788 86.1304 267.619C85.8565 267.445 85.6404 267.195 85.4824 266.868C85.3243 266.536 85.2453 266.136 85.2453 265.667C85.2453 264.966 85.4112 264.426 85.7432 264.047C86.0751 263.668 86.5282 263.478 87.1025 263.478C87.4608 263.478 87.7796 263.565 88.0588 263.739C88.3381 263.907 88.5567 264.155 88.7148 264.482C88.8728 264.803 88.9519 265.198 88.9519 265.667ZM85.9566 265.667C85.9566 266.168 86.0461 266.565 86.2253 266.86C86.4097 267.15 86.6995 267.295 87.0946 267.295C87.4898 267.295 87.7796 267.15 87.964 266.86C88.1484 266.565 88.2406 266.168 88.2406 265.667C88.2406 265.166 88.1484 264.774 87.964 264.489C87.7796 264.205 87.4871 264.063 87.0867 264.063C86.6916 264.063 86.4044 264.205 86.2253 264.489C86.0461 264.774 85.9566 265.166 85.9566 265.667ZM90.8722 261.787V263.249C90.8722 263.428 90.8669 263.596 90.8564 263.754C90.8458 263.907 90.8379 264.028 90.8327 264.118H90.8722C90.9828 263.939 91.1356 263.789 91.3306 263.668C91.5308 263.546 91.7863 263.486 92.0972 263.486C92.5924 263.486 92.9876 263.67 93.2827 264.039C93.583 264.402 93.7331 264.948 93.7331 265.675C93.7331 266.402 93.583 266.95 93.2827 267.319C92.9823 267.688 92.5872 267.872 92.0972 267.872C91.7863 267.872 91.5308 267.811 91.3306 267.69C91.1356 267.569 90.9828 267.424 90.8722 267.256H90.8169L90.6825 267.793H90.1846V261.787H90.8722ZM91.9707 264.063C91.5545 264.063 91.2673 264.192 91.1093 264.45C90.9512 264.708 90.8722 265.109 90.8722 265.651V265.683C90.8722 266.204 90.9486 266.605 91.1014 266.884C91.2594 267.158 91.5545 267.295 91.9865 267.295C92.329 267.295 92.5872 267.155 92.761 266.876C92.9349 266.597 93.0219 266.194 93.0219 265.667C93.0219 264.597 92.6715 264.063 91.9707 264.063ZM98.4796 267.303C98.5797 267.303 98.6825 267.295 98.7878 267.279C98.8932 267.263 98.9801 267.242 99.0486 267.216V267.746C98.9749 267.782 98.8695 267.811 98.7325 267.832C98.6008 267.859 98.4743 267.872 98.3532 267.872C98.1424 267.872 97.9475 267.835 97.7683 267.761C97.5892 267.682 97.4443 267.548 97.3336 267.358C97.2283 267.169 97.1756 266.903 97.1756 266.56V264.094H96.6145V263.762L97.1914 263.486L97.4522 262.585H97.8632V263.557H99.017V264.094H97.8632V266.544C97.8632 266.802 97.9211 266.995 98.037 267.121C98.1529 267.242 98.3005 267.303 98.4796 267.303ZM100.403 261.968C100.509 261.968 100.601 262.005 100.68 262.079C100.759 262.147 100.798 262.258 100.798 262.411C100.798 262.564 100.759 262.677 100.68 262.751C100.601 262.819 100.509 262.853 100.403 262.853C100.293 262.853 100.198 262.819 100.119 262.751C100.04 262.677 100 262.564 100 262.411C100 262.258 100.04 262.147 100.119 262.079C100.198 262.005 100.293 261.968 100.403 261.968ZM100.743 263.557V267.793H100.055V263.557H100.743ZM103.57 267.303C103.671 267.303 103.773 267.295 103.879 267.279C103.984 267.263 104.071 267.242 104.14 267.216V267.746C104.066 267.782 103.96 267.811 103.823 267.832C103.692 267.859 103.565 267.872 103.444 267.872C103.233 267.872 103.038 267.835 102.859 267.761C102.68 267.682 102.535 267.548 102.425 267.358C102.319 267.169 102.266 266.903 102.266 266.56V264.094H101.705V263.762L102.282 263.486L102.543 262.585H102.954V263.557H104.108V264.094H102.954V266.544C102.954 266.802 103.012 266.995 103.128 267.121C103.244 267.242 103.391 267.303 103.57 267.303ZM105.826 267.793H105.138V261.787H105.826V267.793ZM108.835 263.478C109.178 263.478 109.473 263.557 109.721 263.715C109.968 263.873 110.158 264.097 110.29 264.387C110.427 264.671 110.495 265.006 110.495 265.39V265.809H107.776C107.787 266.289 107.9 266.655 108.116 266.908C108.332 267.155 108.635 267.279 109.025 267.279C109.278 267.279 109.502 267.256 109.697 267.208C109.897 267.155 110.103 267.082 110.313 266.987V267.595C110.108 267.69 109.905 267.759 109.705 267.801C109.51 267.848 109.273 267.872 108.993 267.872C108.609 267.872 108.272 267.79 107.982 267.627C107.697 267.464 107.473 267.221 107.31 266.9C107.147 266.579 107.065 266.181 107.065 265.707C107.065 265.243 107.139 264.845 107.286 264.513C107.434 264.181 107.639 263.926 107.903 263.747C108.172 263.567 108.482 263.478 108.835 263.478ZM108.835 264.047C108.525 264.047 108.28 264.155 108.1 264.371C107.927 264.582 107.824 264.877 107.792 265.256H109.784C109.779 264.898 109.699 264.608 109.547 264.387C109.394 264.16 109.157 264.047 108.835 264.047Z" fill="black"></path>
<path d="M38.0081 296.398L36.6014 302.041H35.8822L34.8785 298.342C34.8363 298.195 34.7942 298.045 34.752 297.892C34.7151 297.734 34.6835 297.597 34.6572 297.481C34.6308 297.36 34.615 297.275 34.6098 297.228C34.5992 297.296 34.5702 297.444 34.5228 297.671C34.4754 297.892 34.4201 298.124 34.3569 298.366L33.3769 302.041H32.6498L31.2509 296.398H31.9859L32.7999 299.844C32.8526 300.086 32.9 300.321 32.9422 300.547C32.9843 300.774 33.0186 300.987 33.0449 301.187C33.0713 300.982 33.1082 300.758 33.1556 300.516C33.2083 300.273 33.2662 300.036 33.3294 299.804L34.2462 296.398H34.9733L35.9296 299.828C35.9981 300.07 36.056 300.313 36.1035 300.555C36.1509 300.798 36.1878 301.008 36.2141 301.187C36.2352 300.993 36.2694 300.782 36.3169 300.555C36.3643 300.323 36.417 300.084 36.4749 299.836L37.281 296.398H38.0081ZM42.2687 299.915C42.2687 300.616 42.1001 301.158 41.7629 301.543C41.4257 301.928 40.9699 302.12 40.3956 302.12C40.0426 302.12 39.7265 302.036 39.4472 301.867C39.1732 301.693 38.9572 301.443 38.7992 301.116C38.6411 300.784 38.5621 300.384 38.5621 299.915C38.5621 299.214 38.728 298.674 39.06 298.295C39.3919 297.916 39.845 297.726 40.4193 297.726C40.7776 297.726 41.0964 297.813 41.3756 297.987C41.6548 298.155 41.8735 298.403 42.0316 298.73C42.1896 299.051 42.2687 299.446 42.2687 299.915ZM39.2733 299.915C39.2733 300.416 39.3629 300.813 39.5421 301.108C39.7265 301.398 40.0162 301.543 40.4114 301.543C40.8066 301.543 41.0964 301.398 41.2808 301.108C41.4652 300.813 41.5574 300.416 41.5574 299.915C41.5574 299.415 41.4652 299.022 41.2808 298.737C41.0964 298.453 40.8039 298.311 40.4035 298.311C40.0083 298.311 39.7212 298.453 39.5421 298.737C39.3629 299.022 39.2733 299.415 39.2733 299.915ZM45.3903 297.726C45.464 297.726 45.5431 297.731 45.6274 297.742C45.7117 297.747 45.7854 297.757 45.8486 297.773L45.7696 298.413C45.7064 298.398 45.6353 298.384 45.5562 298.374C45.4825 298.363 45.4113 298.358 45.3428 298.358C45.1426 298.358 44.9529 298.419 44.7738 298.54C44.5999 298.656 44.4577 298.822 44.347 299.038C44.2417 299.249 44.189 299.496 44.189 299.781V302.041H43.5014V297.805H44.0625L44.1416 298.579H44.1732C44.2996 298.348 44.4656 298.147 44.6711 297.979C44.8765 297.81 45.1163 297.726 45.3903 297.726ZM47.479 296.035V299.172C47.479 299.256 47.4737 299.367 47.4632 299.504C47.4579 299.641 47.4527 299.76 47.4474 299.86H47.479C47.5106 299.818 47.5554 299.757 47.6134 299.678C47.6713 299.599 47.7319 299.52 47.7951 299.441C47.8584 299.357 47.9137 299.288 47.9611 299.235L49.2177 297.805H50.0159L48.4037 299.615L50.1266 302.041H49.3046L47.9374 300.065L47.479 300.484V302.041H46.7993V296.035H47.479ZM52.9439 297.726C53.4339 297.726 53.8264 297.908 54.1215 298.271C54.4218 298.635 54.572 299.183 54.572 299.915C54.572 300.637 54.4218 301.185 54.1215 301.559C53.8212 301.933 53.426 302.12 52.936 302.12C52.6251 302.12 52.3722 302.059 52.1773 301.938C51.9823 301.817 51.8269 301.672 51.711 301.504H51.6636C51.6741 301.593 51.6847 301.706 51.6952 301.843C51.7057 301.98 51.711 302.099 51.711 302.199V303.938H51.0234V297.805H51.5845L51.6794 298.382H51.711C51.8269 298.197 51.9797 298.042 52.1694 297.916C52.3643 297.789 52.6225 297.726 52.9439 297.726ZM52.8095 298.311C52.4144 298.311 52.1325 298.432 51.9639 298.674C51.7953 298.917 51.711 299.285 51.711 299.781V299.915C51.711 300.437 51.79 300.84 51.9481 301.124C52.1062 301.403 52.3986 301.543 52.8254 301.543C53.0624 301.543 53.2574 301.475 53.4102 301.338C53.563 301.195 53.6763 301 53.75 300.753C53.8238 300.505 53.8607 300.223 53.8607 299.907C53.8607 299.422 53.7737 299.035 53.5999 298.745C53.4313 298.456 53.1678 298.311 52.8095 298.311ZM56.4985 302.041H55.8109V296.035H56.4985V302.041ZM59.4842 297.734C59.9689 297.734 60.3298 297.847 60.5669 298.074C60.8093 298.3 60.9305 298.661 60.9305 299.156V302.041H60.4326L60.2982 301.44H60.2666C60.0928 301.672 59.911 301.843 59.7213 301.954C59.5316 302.065 59.2682 302.12 58.931 302.12C58.5727 302.12 58.2724 302.02 58.03 301.82C57.7929 301.614 57.6744 301.295 57.6744 300.863C57.6744 300.442 57.8298 300.118 58.1407 299.891C58.4515 299.66 58.931 299.533 59.579 299.512L60.2508 299.488V299.235C60.2508 298.882 60.1797 298.637 60.0374 298.5C59.9004 298.363 59.7029 298.295 59.4447 298.295C59.2392 298.295 59.0416 298.329 58.8519 298.398C58.6623 298.461 58.4858 298.535 58.3224 298.619L58.109 298.097C58.2882 297.997 58.4963 297.913 58.7334 297.844C58.9705 297.771 59.2208 297.734 59.4842 297.734ZM60.2508 299.97L59.6739 299.994C59.1892 300.015 58.8519 300.099 58.6623 300.247C58.4779 300.395 58.3857 300.603 58.3857 300.871C58.3857 301.108 58.4515 301.282 58.5832 301.393C58.715 301.504 58.8862 301.559 59.0969 301.559C59.4236 301.559 59.6976 301.461 59.9189 301.267C60.1402 301.066 60.2508 300.761 60.2508 300.35V299.97ZM63.9726 302.12C63.6143 302.12 63.2982 302.044 63.0242 301.891C62.7502 301.738 62.5342 301.501 62.3761 301.18C62.2233 300.858 62.1469 300.447 62.1469 299.947C62.1469 299.425 62.2286 299.001 62.3919 298.674C62.5553 298.348 62.7765 298.108 63.0558 297.955C63.3403 297.802 63.6617 297.726 64.02 297.726C64.2255 297.726 64.423 297.75 64.6127 297.797C64.8077 297.839 64.9657 297.892 65.0869 297.955L64.8735 298.532C64.7523 298.485 64.6101 298.44 64.4468 298.398C64.2887 298.355 64.1412 298.334 64.0042 298.334C63.2402 298.334 62.8582 298.869 62.8582 299.939C62.8582 300.45 62.9504 300.842 63.1348 301.116C63.3245 301.385 63.6037 301.519 63.9726 301.519C64.1886 301.519 64.3809 301.496 64.5495 301.448C64.7181 301.401 64.8735 301.343 65.0158 301.274V301.891C64.8788 301.965 64.7286 302.02 64.5653 302.057C64.402 302.099 64.2044 302.12 63.9726 302.12ZM67.7168 297.726C68.0593 297.726 68.3544 297.805 68.602 297.963C68.8496 298.121 69.0393 298.345 69.171 298.635C69.308 298.919 69.3765 299.254 69.3765 299.638V300.057H66.6578C66.6684 300.537 66.7816 300.903 66.9977 301.156C67.2137 301.403 67.5166 301.527 67.9065 301.527C68.1594 301.527 68.3833 301.504 68.5783 301.456C68.7785 301.403 68.984 301.33 69.1947 301.235V301.843C68.9893 301.938 68.7864 302.007 68.5862 302.049C68.3912 302.096 68.1542 302.12 67.8749 302.12C67.4903 302.12 67.1531 302.038 66.8633 301.875C66.5788 301.712 66.3549 301.469 66.1915 301.148C66.0282 300.827 65.9465 300.429 65.9465 299.955C65.9465 299.491 66.0203 299.093 66.1678 298.761C66.3153 298.429 66.5208 298.174 66.7843 297.995C67.053 297.815 67.3638 297.726 67.7168 297.726ZM67.7168 298.295C67.406 298.295 67.161 298.403 66.9818 298.619C66.808 298.83 66.7052 299.125 66.6736 299.504H68.6652C68.66 299.146 68.5809 298.856 68.4281 298.635C68.2753 298.408 68.0382 298.295 67.7168 298.295Z" fill="black"></path>
<rect x="31.1719" y="307.676" width="223.924" height="26.344" rx="2.6344" fill="#F2F2F7"></rect>
<path opacity="0.3" d="M47.9604 320.757C47.9604 320.999 47.9341 321.236 47.8814 321.468C47.8287 321.7 47.747 321.911 47.6364 322.1C47.531 322.285 47.3967 322.435 47.2333 322.551C47.0753 322.661 46.8882 322.717 46.6722 322.717C46.4456 322.717 46.2665 322.648 46.1348 322.511C46.0031 322.369 45.9214 322.208 45.8898 322.029H45.8503C45.766 322.224 45.6369 322.387 45.463 322.519C45.2891 322.651 45.0705 322.717 44.807 322.717C44.4224 322.717 44.1274 322.582 43.9219 322.314C43.7164 322.045 43.6137 321.689 43.6137 321.247C43.6137 320.904 43.6769 320.599 43.8033 320.33C43.9351 320.061 44.1195 319.85 44.3566 319.698C44.5937 319.545 44.8755 319.468 45.2022 319.468C45.4235 319.468 45.6395 319.49 45.8503 319.532C46.061 319.569 46.227 319.611 46.3482 319.658L46.277 321.262C46.2718 321.357 46.2691 321.426 46.2691 321.468C46.2691 321.505 46.2691 321.531 46.2691 321.547C46.2691 321.826 46.3113 322.011 46.3956 322.1C46.4851 322.185 46.5905 322.227 46.7117 322.227C46.8645 322.227 46.9936 322.161 47.099 322.029C47.2043 321.892 47.2834 321.713 47.3361 321.492C47.394 321.27 47.423 321.023 47.423 320.749C47.423 320.264 47.3308 319.85 47.1464 319.508C46.962 319.166 46.7064 318.905 46.3798 318.726C46.0584 318.546 45.6948 318.457 45.2891 318.457C44.7254 318.457 44.2512 318.581 43.8666 318.828C43.4819 319.076 43.1895 319.418 42.9893 319.856C42.7891 320.288 42.689 320.783 42.689 321.342C42.689 322.121 42.8813 322.719 43.2659 323.136C43.6505 323.552 44.2064 323.76 44.9335 323.76C45.2285 323.76 45.5157 323.723 45.7949 323.649C46.0742 323.581 46.3218 323.504 46.5378 323.42V323.957C46.3218 324.052 46.0795 324.129 45.8107 324.187C45.5473 324.25 45.2549 324.282 44.9335 324.282C44.3434 324.282 43.8402 324.166 43.424 323.934C43.0077 323.702 42.689 323.37 42.4677 322.938C42.2464 322.501 42.1358 321.976 42.1358 321.365C42.1358 320.875 42.2069 320.422 42.3491 320.006C42.4967 319.584 42.7048 319.221 42.9735 318.915C43.2475 318.604 43.5794 318.365 43.9693 318.196C44.3592 318.022 44.7991 317.935 45.2891 317.935C45.8055 317.935 46.2639 318.049 46.6643 318.275C47.07 318.502 47.3861 318.826 47.6127 319.247C47.8445 319.669 47.9604 320.172 47.9604 320.757ZM44.2143 321.262C44.2143 321.605 44.2749 321.853 44.3961 322.005C44.5225 322.153 44.6911 322.227 44.9019 322.227C45.1759 322.227 45.3734 322.116 45.4946 321.895C45.6211 321.673 45.6922 321.386 45.708 321.033L45.7554 320.045C45.6869 320.024 45.6026 320.006 45.5025 319.99C45.4077 319.974 45.3102 319.966 45.2101 319.966C44.9625 319.966 44.7649 320.03 44.6174 320.156C44.4751 320.282 44.3724 320.446 44.3091 320.646C44.2459 320.841 44.2143 321.046 44.2143 321.262ZM50.7692 319.263C51.1116 319.263 51.4067 319.342 51.6543 319.5C51.9019 319.658 52.0916 319.882 52.2233 320.172C52.3603 320.456 52.4288 320.791 52.4288 321.176V321.594H49.7101C49.7207 322.074 49.8339 322.44 50.05 322.693C50.266 322.941 50.5689 323.064 50.9588 323.064C51.2117 323.064 51.4357 323.041 51.6306 322.993C51.8308 322.941 52.0363 322.867 52.2471 322.772V323.381C52.0416 323.475 51.8387 323.544 51.6385 323.586C51.4436 323.633 51.2065 323.657 50.9272 323.657C50.5426 323.657 50.2054 323.575 49.9156 323.412C49.6311 323.249 49.4072 323.006 49.2438 322.685C49.0805 322.364 48.9988 321.966 48.9988 321.492C48.9988 321.028 49.0726 320.63 49.2201 320.298C49.3677 319.966 49.5731 319.711 49.8366 319.532C50.1053 319.353 50.4161 319.263 50.7692 319.263ZM50.7692 319.832C50.4583 319.832 50.2133 319.94 50.0342 320.156C49.8603 320.367 49.7575 320.662 49.7259 321.041H51.7175C51.7123 320.683 51.6332 320.393 51.4804 320.172C51.3276 319.945 51.0905 319.832 50.7692 319.832ZM54.431 321.413L53.0559 319.342H53.8383L54.8499 320.938L55.8457 319.342H56.6281L55.2529 321.413L56.6992 323.578H55.9168L54.8499 321.887L53.7671 323.578H52.9926L54.431 321.413ZM59.1859 319.271C59.6706 319.271 60.0316 319.384 60.2686 319.611C60.511 319.837 60.6322 320.198 60.6322 320.693V323.578H60.1343L59.9999 322.977H59.9683C59.7945 323.209 59.6127 323.381 59.423 323.491C59.2333 323.602 58.9699 323.657 58.6327 323.657C58.2744 323.657 57.9741 323.557 57.7317 323.357C57.4946 323.151 57.3761 322.833 57.3761 322.401C57.3761 321.979 57.5315 321.655 57.8424 321.428C58.1532 321.197 58.6327 321.07 59.2807 321.049L59.9525 321.025V320.772C59.9525 320.419 59.8814 320.174 59.7391 320.037C59.6021 319.901 59.4046 319.832 59.1464 319.832C58.9409 319.832 58.7433 319.866 58.5537 319.935C58.364 319.998 58.1875 320.072 58.0241 320.156L57.8108 319.634C57.9899 319.534 58.198 319.45 58.4351 319.382C58.6722 319.308 58.9225 319.271 59.1859 319.271ZM59.9525 321.507L59.3756 321.531C58.8909 321.552 58.5537 321.637 58.364 321.784C58.1796 321.932 58.0874 322.14 58.0874 322.408C58.0874 322.646 58.1532 322.819 58.2849 322.93C58.4167 323.041 58.5879 323.096 58.7987 323.096C59.1253 323.096 59.3993 322.999 59.6206 322.804C59.8419 322.603 59.9525 322.298 59.9525 321.887V321.507ZM66.472 319.263C66.9251 319.263 67.2623 319.387 67.4836 319.634C67.7049 319.882 67.8155 320.277 67.8155 320.82V323.578H67.1359V320.852C67.1359 320.182 66.8698 319.848 66.3376 319.848C65.9583 319.848 65.6869 319.966 65.5236 320.203C65.3656 320.441 65.2865 320.786 65.2865 321.239V323.578H64.5989V320.852C64.5989 320.182 64.3329 319.848 63.8007 319.848C63.4056 319.848 63.1316 319.98 62.9788 320.243C62.8313 320.506 62.7575 320.886 62.7575 321.381V323.578H62.0699V319.342H62.6231L62.7259 319.919H62.7654C62.8866 319.698 63.0525 319.534 63.2633 319.429C63.4741 319.318 63.698 319.263 63.9351 319.263C64.2407 319.263 64.4962 319.321 64.7017 319.437C64.9072 319.553 65.0573 319.732 65.1522 319.974H65.1996C65.3313 319.732 65.5104 319.553 65.737 319.437C65.9636 319.321 66.2086 319.263 66.472 319.263ZM71.1705 319.263C71.6605 319.263 72.053 319.445 72.348 319.808C72.6484 320.172 72.7985 320.72 72.7985 321.452C72.7985 322.174 72.6484 322.722 72.348 323.096C72.0477 323.47 71.6526 323.657 71.1626 323.657C70.8517 323.657 70.5988 323.597 70.4039 323.475C70.2089 323.354 70.0535 323.209 69.9376 323.041H69.8902C69.9007 323.13 69.9112 323.244 69.9218 323.381C69.9323 323.518 69.9376 323.636 69.9376 323.736V325.475H69.25V319.342H69.8111L69.906 319.919H69.9376C70.0535 319.735 70.2063 319.579 70.396 319.453C70.5909 319.326 70.8491 319.263 71.1705 319.263ZM71.0361 319.848C70.641 319.848 70.3591 319.969 70.1905 320.211C70.0219 320.454 69.9376 320.823 69.9376 321.318V321.452C69.9376 321.974 70.0166 322.377 70.1747 322.661C70.3327 322.941 70.6251 323.08 71.0519 323.08C71.289 323.08 71.484 323.012 71.6368 322.875C71.7896 322.732 71.9028 322.538 71.9766 322.29C72.0504 322.042 72.0872 321.76 72.0872 321.444C72.0872 320.96 72.0003 320.572 71.8264 320.282C71.6578 319.993 71.3944 319.848 71.0361 319.848ZM74.7251 323.578H74.0375V317.572H74.7251V323.578ZM77.7345 319.263C78.077 319.263 78.372 319.342 78.6196 319.5C78.8673 319.658 79.057 319.882 79.1887 320.172C79.3257 320.456 79.3942 320.791 79.3942 321.176V321.594H76.6755C76.686 322.074 76.7993 322.44 77.0153 322.693C77.2313 322.941 77.5343 323.064 77.9242 323.064C78.1771 323.064 78.401 323.041 78.5959 322.993C78.7961 322.941 79.0016 322.867 79.2124 322.772V323.381C79.0069 323.475 78.804 323.544 78.6038 323.586C78.4089 323.633 78.1718 323.657 77.8925 323.657C77.5079 323.657 77.1707 323.575 76.8809 323.412C76.5964 323.249 76.3725 323.006 76.2092 322.685C76.0458 322.364 75.9642 321.966 75.9642 321.492C75.9642 321.028 76.0379 320.63 76.1855 320.298C76.333 319.966 76.5385 319.711 76.8019 319.532C77.0706 319.353 77.3815 319.263 77.7345 319.263ZM77.7345 319.832C77.4236 319.832 77.1786 319.94 76.9995 320.156C76.8256 320.367 76.7229 320.662 76.6913 321.041H78.6829C78.6776 320.683 78.5986 320.393 78.4458 320.172C78.293 319.945 78.0559 319.832 77.7345 319.832Z" fill="black"></path>
<path d="M31.8911 352.183H33.4164C34.0803 352.183 34.5834 352.289 34.9259 352.499C35.2684 352.71 35.4396 353.071 35.4396 353.582C35.4396 353.914 35.3553 354.191 35.1867 354.412C35.0181 354.628 34.7705 354.768 34.4438 354.831V354.87C34.6651 354.913 34.8627 354.984 35.0365 355.084C35.2157 355.184 35.3553 355.326 35.4554 355.511C35.5608 355.695 35.6135 355.932 35.6135 356.222C35.6135 356.733 35.4475 357.128 35.1156 357.407C34.7889 357.687 34.3384 357.826 33.7641 357.826H31.8911V352.183ZM32.5945 354.586H33.5507C33.9933 354.586 34.2963 354.509 34.4596 354.357C34.6282 354.199 34.7125 353.967 34.7125 353.661C34.7125 353.35 34.6098 353.129 34.4043 352.997C34.2041 352.86 33.8853 352.792 33.448 352.792H32.5945V354.586ZM32.5945 355.179V357.226H33.6377C34.0961 357.226 34.4148 357.128 34.594 356.933C34.7784 356.738 34.8706 356.483 34.8706 356.167C34.8706 355.871 34.7757 355.634 34.5861 355.455C34.4016 355.271 34.0697 355.179 33.5903 355.179H32.5945ZM37.2095 352.002C37.3149 352.002 37.4071 352.038 37.4861 352.112C37.5651 352.181 37.6047 352.291 37.6047 352.444C37.6047 352.597 37.5651 352.71 37.4861 352.784C37.4071 352.852 37.3149 352.887 37.2095 352.887C37.0989 352.887 37.004 352.852 36.925 352.784C36.846 352.71 36.8064 352.597 36.8064 352.444C36.8064 352.291 36.846 352.181 36.925 352.112C37.004 352.038 37.0989 352.002 37.2095 352.002ZM37.5493 353.59V357.826H36.8618V353.59H37.5493ZM42.4948 355.7C42.4948 356.401 42.3262 356.944 41.989 357.328C41.6518 357.713 41.1961 357.905 40.6218 357.905C40.2688 357.905 39.9527 357.821 39.6734 357.652C39.3994 357.478 39.1834 357.228 39.0253 356.901C38.8673 356.57 38.7882 356.169 38.7882 355.7C38.7882 354.999 38.9542 354.459 39.2862 354.08C39.6181 353.701 40.0712 353.511 40.6455 353.511C41.0038 353.511 41.3225 353.598 41.6018 353.772C41.881 353.94 42.0997 354.188 42.2578 354.515C42.4158 354.836 42.4948 355.231 42.4948 355.7ZM39.4995 355.7C39.4995 356.201 39.5891 356.599 39.7682 356.894C39.9527 357.183 40.2424 357.328 40.6376 357.328C41.0328 357.328 41.3225 357.183 41.5069 356.894C41.6914 356.599 41.7836 356.201 41.7836 355.7C41.7836 355.2 41.6914 354.807 41.5069 354.523C41.3225 354.238 41.0301 354.096 40.6297 354.096C40.2345 354.096 39.9474 354.238 39.7682 354.523C39.5891 354.807 39.4995 355.2 39.4995 355.7Z" fill="black"></path>
<rect x="31.1719" y="363.461" width="223.924" height="63.2256" rx="2.6344" fill="#F2F2F7"></rect>
<path opacity="0.3" d="M45.3998 379.363H42.4282V373.72H45.3998V374.345H43.1316V376.107H45.2654V376.724H43.1316V378.739H45.3998V379.363ZM48.6251 375.048C49.0993 375.048 49.4576 375.172 49.6999 375.42C49.9476 375.667 50.0714 376.062 50.0714 376.605V379.363H49.3838V376.652C49.3838 375.973 49.094 375.633 48.5145 375.633C48.0771 375.633 47.7768 375.765 47.6135 376.028C47.4502 376.292 47.3685 376.671 47.3685 377.166V379.363H46.6809V375.127H47.2341L47.3369 375.704H47.3764C47.5028 375.483 47.6794 375.319 47.9059 375.214C48.1325 375.103 48.3722 375.048 48.6251 375.048ZM52.8743 378.873C52.9744 378.873 53.0771 378.865 53.1825 378.85C53.2879 378.834 53.3748 378.813 53.4433 378.786V379.316C53.3695 379.353 53.2642 379.382 53.1272 379.403C52.9954 379.429 52.869 379.442 52.7478 379.442C52.5371 379.442 52.3421 379.405 52.163 379.332C51.9838 379.253 51.8389 379.118 51.7283 378.929C51.6229 378.739 51.5702 378.473 51.5702 378.13V375.665H51.0091V375.333L51.586 375.056L51.8468 374.155H52.2578V375.127H53.4117V375.665H52.2578V378.115C52.2578 378.373 52.3158 378.565 52.4317 378.692C52.5476 378.813 52.6951 378.873 52.8743 378.873ZM55.9912 375.048C56.3337 375.048 56.6288 375.127 56.8764 375.285C57.124 375.443 57.3137 375.667 57.4454 375.957C57.5824 376.242 57.6509 376.576 57.6509 376.961V377.38H54.9322C54.9427 377.859 55.056 378.225 55.272 378.478C55.4881 378.726 55.791 378.85 56.1809 378.85C56.4338 378.85 56.6577 378.826 56.8527 378.778C57.0529 378.726 57.2584 378.652 57.4691 378.557V379.166C57.2636 379.261 57.0608 379.329 56.8606 379.371C56.6656 379.419 56.4285 379.442 56.1493 379.442C55.7647 379.442 55.4275 379.361 55.1377 379.197C54.8532 379.034 54.6292 378.792 54.4659 378.47C54.3026 378.149 54.2209 377.751 54.2209 377.277C54.2209 376.813 54.2947 376.415 54.4422 376.083C54.5897 375.752 54.7952 375.496 55.0587 375.317C55.3274 375.138 55.6382 375.048 55.9912 375.048ZM55.9912 375.617C55.6804 375.617 55.4354 375.725 55.2562 375.941C55.0824 376.152 54.9796 376.447 54.948 376.826H56.9396C56.9343 376.468 56.8553 376.178 56.7025 375.957C56.5497 375.73 56.3126 375.617 55.9912 375.617ZM60.7481 375.048C60.8219 375.048 60.9009 375.053 60.9852 375.064C61.0695 375.069 61.1433 375.08 61.2065 375.096L61.1275 375.736C61.0642 375.72 60.9931 375.707 60.9141 375.696C60.8403 375.686 60.7692 375.68 60.7007 375.68C60.5005 375.68 60.3108 375.741 60.1317 375.862C59.9578 375.978 59.8155 376.144 59.7049 376.36C59.5995 376.571 59.5468 376.818 59.5468 377.103V379.363H58.8592V375.127H59.4204L59.4994 375.902H59.531C59.6575 375.67 59.8234 375.47 60.0289 375.301C60.2344 375.132 60.4741 375.048 60.7481 375.048ZM63.681 375.127H64.4239L65.2695 377.538C65.3433 377.754 65.4091 377.957 65.4671 378.146C65.5251 378.336 65.5672 378.518 65.5935 378.692H65.6173C65.6489 378.56 65.6937 378.389 65.7516 378.178C65.8096 377.962 65.8754 377.746 65.9492 377.53L66.7474 375.127H67.4982L65.7832 379.948C65.641 380.349 65.4566 380.667 65.23 380.904C65.0034 381.142 64.6979 381.26 64.3132 381.26C64.192 381.26 64.0867 381.252 63.9971 381.236C63.9075 381.226 63.8311 381.213 63.7679 381.197V380.644C63.8206 380.654 63.8865 380.665 63.9655 380.675C64.0445 380.686 64.1262 380.691 64.2105 380.691C64.437 380.691 64.6188 380.623 64.7558 380.486C64.8981 380.349 65.0087 380.167 65.0877 379.94L65.2853 379.379L63.681 375.127ZM71.8216 377.237C71.8216 377.938 71.653 378.481 71.3158 378.865C70.9786 379.25 70.5228 379.442 69.9485 379.442C69.5955 379.442 69.2794 379.358 69.0002 379.189C68.7262 379.016 68.5102 378.765 68.3521 378.439C68.194 378.107 68.115 377.706 68.115 377.237C68.115 376.537 68.281 375.997 68.6129 375.617C68.9448 375.238 69.3979 375.048 69.9722 375.048C70.3305 375.048 70.6493 375.135 70.9285 375.309C71.2078 375.478 71.4264 375.725 71.5845 376.052C71.7426 376.373 71.8216 376.768 71.8216 377.237ZM68.8263 377.237C68.8263 377.738 68.9159 378.136 69.095 378.431C69.2794 378.72 69.5692 378.865 69.9643 378.865C70.3595 378.865 70.6493 378.72 70.8337 378.431C71.0181 378.136 71.1103 377.738 71.1103 377.237C71.1103 376.737 71.0181 376.344 70.8337 376.06C70.6493 375.775 70.3569 375.633 69.9564 375.633C69.5613 375.633 69.2741 375.775 69.095 376.06C68.9159 376.344 68.8263 376.737 68.8263 377.237ZM76.4132 375.127V379.363H75.86L75.7572 378.802H75.7256C75.5939 379.023 75.4148 379.187 75.1882 379.292C74.9616 379.392 74.7193 379.442 74.4611 379.442C73.9869 379.442 73.626 379.321 73.3784 379.079C73.136 378.831 73.0148 378.439 73.0148 377.901V375.127H73.7103V377.854C73.7103 378.528 74.0001 378.865 74.5796 378.865C75.0117 378.865 75.3094 378.734 75.4727 378.47C75.6413 378.207 75.7256 377.827 75.7256 377.332V375.127H76.4132ZM79.7616 375.048C79.8353 375.048 79.9144 375.053 79.9987 375.064C80.083 375.069 80.1567 375.08 80.22 375.096L80.1409 375.736C80.0777 375.72 80.0066 375.707 79.9275 375.696C79.8538 375.686 79.7826 375.68 79.7141 375.68C79.5139 375.68 79.3243 375.741 79.1451 375.862C78.9712 375.978 78.829 376.144 78.7183 376.36C78.613 376.571 78.5603 376.818 78.5603 377.103V379.363H77.8727V375.127H78.4338L78.5129 375.902H78.5445C78.6709 375.67 78.8369 375.47 79.0424 375.301C79.2479 375.132 79.4876 375.048 79.7616 375.048ZM83.9985 373.357V374.819C83.9985 374.998 83.9932 375.167 83.9827 375.325C83.9721 375.478 83.9642 375.599 83.9589 375.688H83.9985C84.1091 375.509 84.2619 375.359 84.4568 375.238C84.6571 375.117 84.9126 375.056 85.2235 375.056C85.7187 375.056 86.1139 375.24 86.4089 375.609C86.7093 375.973 86.8594 376.518 86.8594 377.245C86.8594 377.972 86.7093 378.52 86.4089 378.889C86.1086 379.258 85.7135 379.442 85.2235 379.442C84.9126 379.442 84.6571 379.382 84.4568 379.261C84.2619 379.139 84.1091 378.994 83.9985 378.826H83.9431L83.8088 379.363H83.3109V373.357H83.9985ZM85.097 375.633C84.6808 375.633 84.3936 375.762 84.2356 376.02C84.0775 376.278 83.9985 376.679 83.9985 377.222V377.253C83.9985 377.775 84.0749 378.175 84.2277 378.454C84.3857 378.728 84.6808 378.865 85.1128 378.865C85.4553 378.865 85.7135 378.726 85.8873 378.447C86.0612 378.167 86.1481 377.764 86.1481 377.237C86.1481 376.168 85.7978 375.633 85.097 375.633ZM88.454 373.539C88.5594 373.539 88.6516 373.576 88.7306 373.649C88.8097 373.718 88.8492 373.828 88.8492 373.981C88.8492 374.134 88.8097 374.247 88.7306 374.321C88.6516 374.39 88.5594 374.424 88.454 374.424C88.3434 374.424 88.2486 374.39 88.1695 374.321C88.0905 374.247 88.051 374.134 88.051 373.981C88.051 373.828 88.0905 373.718 88.1695 373.649C88.2486 373.576 88.3434 373.539 88.454 373.539ZM88.7939 375.127V379.363H88.1063V375.127H88.7939ZM93.7394 377.237C93.7394 377.938 93.5708 378.481 93.2336 378.865C92.8964 379.25 92.4406 379.442 91.8663 379.442C91.5133 379.442 91.1972 379.358 90.9179 379.189C90.644 379.016 90.4279 378.765 90.2699 378.439C90.1118 378.107 90.0328 377.706 90.0328 377.237C90.0328 376.537 90.1987 375.997 90.5307 375.617C90.8626 375.238 91.3157 375.048 91.89 375.048C92.2483 375.048 92.5671 375.135 92.8463 375.309C93.1256 375.478 93.3442 375.725 93.5023 376.052C93.6603 376.373 93.7394 376.768 93.7394 377.237ZM90.7441 377.237C90.7441 377.738 90.8336 378.136 91.0128 378.431C91.1972 378.72 91.487 378.865 91.8821 378.865C92.2773 378.865 92.5671 378.72 92.7515 378.431C92.9359 378.136 93.0281 377.738 93.0281 377.237C93.0281 376.737 92.9359 376.344 92.7515 376.06C92.5671 375.775 92.2747 375.633 91.8742 375.633C91.4791 375.633 91.1919 375.775 91.0128 376.06C90.8336 376.344 90.7441 376.737 90.7441 377.237Z" fill="black"></path>
<path d="M31.1719 446.445C31.1719 444.99 32.3513 443.811 33.8063 443.811H252.461C253.916 443.811 255.096 444.99 255.096 446.445V468.348C255.096 469.803 253.916 470.983 252.461 470.983H33.8063C32.3513 470.983 31.1719 469.803 31.1719 468.348V446.445Z" fill="#007AFF"></path>
<path d="M136.682 459.363C136.682 460.03 136.454 460.553 135.997 460.933C135.548 461.312 134.919 461.502 134.111 461.502C133.303 461.502 132.639 461.372 132.119 461.112V460.037C132.4 460.164 132.72 460.279 133.078 460.385C133.437 460.483 133.798 460.532 134.164 460.532C134.62 460.532 134.961 460.434 135.186 460.237C135.418 460.041 135.534 459.777 135.534 459.447C135.534 459.215 135.481 459.022 135.376 458.867C135.277 458.706 135.112 458.558 134.88 458.425C134.656 458.284 134.353 458.14 133.974 457.993C133.616 457.845 133.303 457.677 133.036 457.487C132.776 457.297 132.573 457.062 132.425 456.781C132.278 456.5 132.204 456.156 132.204 455.748C132.204 455.13 132.418 454.645 132.847 454.294C133.282 453.943 133.851 453.767 134.554 453.767C134.94 453.767 135.302 453.809 135.639 453.894C135.976 453.978 136.289 454.087 136.577 454.22L136.208 455.158C135.941 455.039 135.664 454.94 135.376 454.863C135.088 454.786 134.803 454.747 134.522 454.747C134.136 454.747 133.844 454.839 133.647 455.021C133.458 455.204 133.363 455.443 133.363 455.738C133.363 455.97 133.412 456.163 133.51 456.317C133.609 456.472 133.767 456.616 133.985 456.749C134.202 456.876 134.49 457.016 134.849 457.171C135.242 457.34 135.576 457.519 135.85 457.708C136.124 457.891 136.331 458.116 136.472 458.383C136.612 458.643 136.682 458.969 136.682 459.363ZM140.08 455.611C140.748 455.611 141.25 455.769 141.587 456.086C141.932 456.395 142.104 456.883 142.104 457.55V461.396H141.292L141.071 460.606H141.029C140.797 460.915 140.551 461.144 140.291 461.291C140.038 461.432 139.687 461.502 139.237 461.502C138.76 461.502 138.359 461.365 138.036 461.091C137.72 460.81 137.562 460.374 137.562 459.784C137.562 458.639 138.394 458.035 140.059 457.972L140.966 457.94V457.624C140.966 457.21 140.878 456.918 140.702 456.749C140.534 456.574 140.295 456.486 139.986 456.486C139.726 456.486 139.466 456.528 139.206 456.612C138.953 456.697 138.711 456.799 138.479 456.918L138.131 456.107C138.391 455.966 138.686 455.85 139.016 455.759C139.353 455.661 139.708 455.611 140.08 455.611ZM140.966 458.667L140.281 458.688C139.698 458.716 139.294 458.825 139.069 459.015C138.851 459.205 138.742 459.465 138.742 459.795C138.742 460.09 138.819 460.304 138.974 460.438C139.136 460.571 139.343 460.638 139.596 460.638C139.982 460.638 140.305 460.515 140.565 460.269C140.832 460.023 140.966 459.654 140.966 459.163V458.667ZM144.906 461.396L142.872 455.717H144.084L145.148 459.036C145.218 459.254 145.289 459.5 145.359 459.774C145.429 460.041 145.475 460.262 145.496 460.438H145.538C145.559 460.262 145.605 460.041 145.675 459.774C145.745 459.5 145.819 459.254 145.896 459.036L146.961 455.717H148.183L146.139 461.396H144.906ZM151.133 455.611C151.835 455.611 152.394 455.843 152.808 456.307C153.223 456.763 153.43 457.389 153.43 458.183V458.794H149.858C149.872 459.377 150.012 459.823 150.279 460.132C150.546 460.441 150.922 460.596 151.407 460.596C151.751 460.596 152.056 460.564 152.323 460.501C152.597 460.431 152.875 460.329 153.156 460.195V461.123C152.889 461.256 152.615 461.351 152.334 461.407C152.06 461.47 151.726 461.502 151.333 461.502C150.813 461.502 150.353 461.393 149.952 461.175C149.559 460.957 149.25 460.634 149.025 460.206C148.8 459.777 148.688 459.243 148.688 458.604C148.688 457.649 148.913 456.911 149.362 456.391C149.812 455.871 150.402 455.611 151.133 455.611ZM151.143 456.475C150.771 456.475 150.476 456.605 150.258 456.865C150.047 457.125 149.924 457.494 149.889 457.972H152.302C152.295 457.529 152.197 457.171 152.007 456.897C151.825 456.616 151.537 456.475 151.143 456.475Z" fill="white"></path>
</g>
<defs>
<filter id="filter0_d_1392_16677" x="0.876413" y="0.671761" width="284.515" height="504.558" filterUnits="userSpaceOnUse" color-interpolation-filters="sRGB">
<feFlood flood-opacity="0" result="BackgroundImageFix"></feFlood>
<feColorMatrix in="SourceAlpha" type="matrix" values="0 0 0 0 0 0 0 0 0 0 0 0 0 0 0 0 0 0 127 0" result="hardAlpha"></feColorMatrix>
<feOffset dy="3.9516"></feOffset>
<feGaussianBlur stdDeviation="8.56179"></feGaussianBlur>
<feColorMatrix type="matrix" values="0 0 0 0 0 0 0 0 0 0 0 0 0 0 0 0 0 0 0.04 0"></feColorMatrix>
<feBlend mode="normal" in2="BackgroundImageFix" result="effect1_dropShadow_1392_16677"></feBlend>
<feBlend mode="normal" in="SourceGraphic" in2="effect1_dropShadow_1392_16677" result="shape"></feBlend>
</filter>
<filter id="filter1_d_1392_16677" x="87.812" y="64.3593" width="110.646" height="111.064" filterUnits="userSpaceOnUse" color-interpolation-filters="sRGB">
<feFlood flood-opacity="0" result="BackgroundImageFix"></feFlood>
<feColorMatrix in="SourceAlpha" type="matrix" values="0 0 0 0 0 0 0 0 0 0 0 0 0 0 0 0 0 0 127 0" result="hardAlpha"></feColorMatrix>
<feOffset dy="3.9516"></feOffset>
<feGaussianBlur stdDeviation="8.56179"></feGaussianBlur>
<feColorMatrix type="matrix" values="0 0 0 0 0 0 0 0 0 0 0 0 0 0 0 0 0 0 0.04 0"></feColorMatrix>
<feBlend mode="normal" in2="BackgroundImageFix" result="effect1_dropShadow_1392_16677"></feBlend>
<feBlend mode="normal" in="SourceGraphic" in2="effect1_dropShadow_1392_16677" result="shape"></feBlend>
</filter>
<clipPath id="clip0_1392_16677">
<rect width="9.22039" height="9.22039" fill="white" transform="translate(255.096 28.334) rotate(90)"></rect>
</clipPath>
</defs>
</svg>
