
<svg viewBox="0 0 309 542" fill="none" xmlns="http://www.w3.org/2000/svg">
<g filter="url('#filter0_d_1392_15094')">
<rect x="19" y="15" width="270.999" height="504.021" rx="3.56579" fill="white"></rect>
<g clip-path="url('#clip0_1392_15094')">
<path d="M34.3315 35.1472H40.215C40.4987 35.1472 40.7708 35.0345 40.9714 34.8339C41.172 34.6333 41.2847 34.3612 41.2847 34.0775V30.3334C41.2847 30.0497 41.172 29.7776 40.9714 29.577C40.7708 29.3764 40.4987 29.2637 40.215 29.2637H34.3315C34.0477 29.2637 33.7757 29.3764 33.575 29.577C33.3744 29.7776 33.2617 30.0497 33.2617 30.3334V34.0775C33.2617 34.3612 33.3744 34.6333 33.575 34.8339C33.7757 35.0345 34.0477 35.1472 34.3315 35.1472ZM34.3315 30.3334H40.215V34.0775H34.3315V30.3334Z" fill="#142558"></path>
<path d="M45.0298 29.2637H43.4252C43.1415 29.2637 42.8694 29.3764 42.6688 29.577C42.4682 29.7776 42.3555 30.0497 42.3555 30.3334V34.0775C42.3555 34.3612 42.4682 34.6333 42.6688 34.8339C42.8694 35.0345 43.1415 35.1472 43.4252 35.1472H45.0298C45.3135 35.1472 45.5856 35.0345 45.7862 34.8339C45.9868 34.6333 46.0995 34.3612 46.0995 34.0775V30.3334C46.0995 30.0497 45.9868 29.7776 45.7862 29.577C45.5856 29.3764 45.3135 29.2637 45.0298 29.2637V29.2637ZM45.0298 34.0775H43.4252V30.3334H45.0298V34.0775Z" fill="#142558"></path>
<path d="M35.9361 36.2168H34.3315C34.0477 36.2168 33.7757 36.3295 33.575 36.5301C33.3744 36.7307 33.2617 37.0028 33.2617 37.2865V41.0306C33.2617 41.3143 33.3744 41.5864 33.575 41.787C33.7757 41.9876 34.0477 42.1004 34.3315 42.1004H35.9361C36.2198 42.1004 36.4919 41.9876 36.6925 41.787C36.8931 41.5864 37.0058 41.3143 37.0058 41.0306V37.2865C37.0058 37.0028 36.8931 36.7307 36.6925 36.5301C36.4919 36.3295 36.2198 36.2168 35.9361 36.2168ZM35.9361 41.0306H34.3315V37.2865H35.9361V41.0306Z" fill="#142558"></path>
<path d="M45.0314 36.2168H39.1479C38.8642 36.2168 38.5921 36.3295 38.3914 36.5301C38.1908 36.7307 38.0781 37.0028 38.0781 37.2865V41.0306C38.0781 41.3143 38.1908 41.5864 38.3914 41.787C38.5921 41.9876 38.8642 42.1004 39.1479 42.1004H45.0314C45.3151 42.1004 45.5872 41.9876 45.7878 41.787C45.9884 41.5864 46.1012 41.3143 46.1012 41.0306V37.2865C46.1012 37.0028 45.9884 36.7307 45.7878 36.5301C45.5872 36.3295 45.3151 36.2168 45.0314 36.2168ZM45.0314 41.0306H39.1479V37.2865H45.0314V41.0306Z" fill="#142558"></path>
</g>
<path d="M58.7874 37.4566C58.7874 38.1793 58.5402 38.7498 58.0457 39.1682C57.5589 39.5866 56.8552 39.7957 55.9348 39.7957C55.4859 39.7957 55.0828 39.7577 54.7252 39.6816C54.3677 39.6056 54.0368 39.4915 53.7325 39.3393V37.9701C54.0748 38.1222 54.4438 38.2629 54.8394 38.3923C55.2425 38.514 55.6343 38.5748 56.0146 38.5748C56.4406 38.5748 56.7525 38.4797 56.9503 38.2896C57.1557 38.0918 57.2584 37.8407 57.2584 37.5365C57.2584 37.2018 57.1329 36.9317 56.8818 36.7263C56.6384 36.5209 56.2428 36.3079 55.6951 36.0873C55.3452 35.9428 55.0257 35.7716 54.7367 35.5739C54.4552 35.3685 54.2308 35.1136 54.0634 34.8093C53.8961 34.4975 53.8124 34.1095 53.8124 33.6455C53.8124 32.9532 54.052 32.4093 54.5313 32.0138C55.0181 31.6182 55.6571 31.4204 56.4482 31.4204C56.8894 31.4204 57.2926 31.4661 57.6578 31.5573C58.0229 31.6486 58.3728 31.7779 58.7075 31.9453L58.2283 33.1206C57.9164 32.9761 57.6083 32.8619 57.304 32.7783C56.9997 32.6946 56.6993 32.6528 56.4026 32.6528C56.0527 32.6528 55.7864 32.7402 55.6039 32.9152C55.4213 33.0902 55.33 33.3222 55.33 33.6112C55.33 33.8318 55.3833 34.0182 55.4898 34.1704C55.5963 34.3225 55.7636 34.467 55.9918 34.604C56.22 34.7333 56.5167 34.8854 56.8818 35.0604C57.285 35.2506 57.6273 35.4483 57.9088 35.6537C58.1979 35.8591 58.4147 36.1063 58.5592 36.3954C58.7113 36.6769 58.7874 37.0306 58.7874 37.4566ZM62.4549 38.6433C62.6223 38.6433 62.782 38.6281 62.9341 38.5976C63.0939 38.5596 63.2422 38.5178 63.3792 38.4721V39.5447C63.2194 39.6208 63.0254 39.6816 62.7972 39.7273C62.569 39.7729 62.3142 39.7957 62.0327 39.7957C61.6904 39.7957 61.3823 39.7387 61.1085 39.6246C60.8346 39.5105 60.6178 39.3089 60.4581 39.0198C60.2983 38.7308 60.2184 38.3238 60.2184 37.7989V34.5811H59.4425V33.9536L60.3097 33.4515L60.7661 32.1393H61.7246V33.4971H63.3221V34.5811H61.7246V37.7875C61.7246 38.0766 61.7893 38.2934 61.9186 38.4379C62.0555 38.5748 62.2343 38.6433 62.4549 38.6433ZM63.6827 33.4971H65.303L66.4098 36.9888C66.4859 37.2018 66.5467 37.4186 66.5924 37.6392C66.638 37.8598 66.6722 38.0766 66.6951 38.2896H66.7293C66.7597 38.0918 66.7978 37.8826 66.8434 37.662C66.8967 37.4338 66.9575 37.2094 67.026 36.9888L68.11 33.4971H69.7074L67.2542 40.4918C67.0336 41.1156 66.7293 41.591 66.3413 41.9181C65.9534 42.2528 65.4475 42.4202 64.8237 42.4202C64.6488 42.4202 64.4928 42.4088 64.3559 42.3859C64.2266 42.3707 64.1125 42.3517 64.0136 42.3289V41.1878C64.0897 41.203 64.181 41.2183 64.2874 41.2335C64.4016 41.2487 64.5233 41.2563 64.6526 41.2563C64.9797 41.2563 65.2383 41.1498 65.4285 40.9368C65.6263 40.7314 65.767 40.4728 65.8507 40.1609L66.0104 39.6588L63.6827 33.4971ZM72.0503 39.6816H70.5327V31.0096H72.0503V39.6816ZM76.1277 33.383C76.9265 33.383 77.5579 33.6303 78.0219 34.1247C78.4859 34.6192 78.7179 35.3076 78.7179 36.19V36.9203H74.9296C74.9449 37.4832 75.0818 37.9206 75.3404 38.2325C75.5991 38.5368 75.9718 38.6889 76.4586 38.6889C76.8314 38.6889 77.1661 38.6509 77.4628 38.5748C77.7671 38.4911 78.0789 38.3732 78.3984 38.2211V39.3736C78.1094 39.5181 77.8051 39.6246 77.4856 39.6931C77.1737 39.7615 76.7934 39.7957 76.3445 39.7957C75.7664 39.7957 75.2529 39.6816 74.8041 39.4534C74.3629 39.2176 74.0168 38.8677 73.7658 38.4037C73.5147 37.932 73.3892 37.3425 73.3892 36.635C73.3892 35.5777 73.6402 34.7713 74.1423 34.216C74.652 33.6607 75.3138 33.383 76.1277 33.383ZM76.1506 34.4442C75.8159 34.4442 75.5382 34.5697 75.3176 34.8208C75.1046 35.0642 74.9829 35.4293 74.9525 35.9162H77.2802C77.2726 35.4902 77.1775 35.1403 76.9949 34.8664C76.8124 34.5849 76.5309 34.4442 76.1506 34.4442Z" fill="#142558"></path>
<g clip-path="url('#clip1_1392_15094')">
<path d="M275.11 38.1441C274.945 38.1439 274.786 38.0781 274.669 37.961L271.477 34.7694C271.381 34.6728 271.266 34.5962 271.14 34.5439C271.014 34.4916 270.879 34.4647 270.742 34.4647C270.605 34.4647 270.47 34.4916 270.344 34.5439C270.218 34.5962 270.103 34.6728 270.006 34.7694L266.819 37.9569C266.701 38.0706 266.544 38.1334 266.38 38.132C266.216 38.1306 266.06 38.065 265.944 37.9493C265.829 37.8336 265.763 37.6771 265.762 37.5135C265.76 37.3498 265.823 37.1922 265.937 37.0745L269.122 33.8871C269.551 33.4585 270.133 33.2178 270.74 33.2178C271.346 33.2178 271.928 33.4585 272.358 33.8871L275.551 37.0787C275.639 37.166 275.698 37.2772 275.722 37.3983C275.746 37.5193 275.734 37.6449 275.687 37.7589C275.64 37.873 275.56 37.9704 275.457 38.039C275.354 38.1076 275.234 38.1441 275.11 38.1441V38.1441Z" fill="#142558"></path>
</g>
<path d="M282.868 54.5805H26.1309V55.2937H282.868V54.5805Z" fill="black" fill-opacity="0.3" mask="url('#path-2-inside-1_1392_15094')"></path>
<path d="M31.0862 83.9053V77.7949H32.4726V82.8355H34.7405V83.9053H31.0862ZM37.819 79.1385C38.3952 79.1385 38.8402 79.2755 39.154 79.5493C39.4735 79.8175 39.6333 80.2311 39.6333 80.7902V83.9053H38.6833L38.418 83.272H38.3838C38.1955 83.523 37.9958 83.7056 37.7847 83.8197C37.5794 83.9338 37.2912 83.9909 36.9204 83.9909C36.5381 83.9909 36.2158 83.871 35.9534 83.6314C35.6966 83.3918 35.5683 83.0181 35.5683 82.5103C35.5683 82.014 35.7309 81.6488 36.0561 81.4149C36.387 81.1753 36.8719 81.0441 37.5109 81.0213L38.264 80.9956V80.7902C38.264 80.5449 38.2098 80.3652 38.1014 80.2511C37.993 80.1369 37.8447 80.0799 37.6564 80.0799C37.4567 80.0799 37.2513 80.1141 37.0402 80.1826C36.8348 80.2453 36.6266 80.3252 36.4155 80.4222L35.9961 79.5579C36.2415 79.4323 36.5182 79.3325 36.8263 79.2583C37.1343 79.1785 37.4653 79.1385 37.819 79.1385ZM38.2725 81.7401L37.8618 81.7572C37.5252 81.7687 37.2912 81.8428 37.16 81.9797C37.0288 82.1167 36.9632 82.2964 36.9632 82.5189C36.9632 82.7129 37.0088 82.8527 37.1001 82.9382C37.1971 83.0181 37.3226 83.058 37.4767 83.058C37.6935 83.058 37.8789 82.9782 38.0329 82.8184C38.1927 82.653 38.2725 82.4219 38.2725 82.1252V81.7401ZM40.419 79.2327H41.8824L42.6612 81.8599C42.7011 81.9855 42.7268 82.1167 42.7382 82.2536C42.7553 82.3848 42.7696 82.5246 42.781 82.6729H42.8152C42.8266 82.5246 42.8409 82.3848 42.858 82.2536C42.8808 82.1224 42.9122 81.9912 42.9521 81.8599L43.7309 79.2327H45.1686L43.3372 84.4958C43.1661 84.9807 42.9208 85.3459 42.6013 85.5912C42.2875 85.8365 41.8795 85.9592 41.3775 85.9592C41.2406 85.9592 41.1207 85.9506 41.018 85.9335C40.9211 85.9221 40.8355 85.9078 40.7613 85.8907V84.8809C40.8184 84.8923 40.8868 84.9037 40.9667 84.9151C41.0523 84.9265 41.1407 84.9322 41.232 84.9322C41.483 84.9322 41.677 84.8523 41.8139 84.6926C41.9509 84.5329 42.0478 84.336 42.1049 84.1021L42.1648 83.871L40.419 79.2327ZM50.0841 81.5604C50.0841 82.3363 49.8873 82.9354 49.4936 83.3576C49.1056 83.7798 48.575 83.9909 47.9018 83.9909C47.4796 83.9909 47.1059 83.8967 46.7807 83.7084C46.4555 83.5202 46.1988 83.2463 46.0105 82.8869C45.828 82.5217 45.7367 82.0796 45.7367 81.5604C45.7367 80.7845 45.9307 80.1883 46.3186 79.7718C46.7123 79.3553 47.2486 79.1471 47.9275 79.1471C48.344 79.1471 48.7148 79.2412 49.04 79.4295C49.3652 79.6178 49.6191 79.8916 49.8017 80.2511C49.99 80.6105 50.0841 81.0469 50.0841 81.5604ZM47.1316 81.5604C47.1316 82.0225 47.1915 82.3734 47.3113 82.613C47.4311 82.8469 47.6337 82.9639 47.9189 82.9639C48.1985 82.9639 48.3953 82.8469 48.5094 82.613C48.6292 82.3734 48.6892 82.0225 48.6892 81.5604C48.6892 81.0983 48.6292 80.7531 48.5094 80.5249C48.3896 80.291 48.1899 80.174 47.9104 80.174C47.6308 80.174 47.4311 80.291 47.3113 80.5249C47.1915 80.7531 47.1316 81.0983 47.1316 81.5604ZM55.42 79.2327V83.9053H54.3845L54.2048 83.3062H54.1278C53.9852 83.5458 53.794 83.7199 53.5544 83.8283C53.3148 83.9367 53.058 83.9909 52.7842 83.9909C52.3278 83.9909 51.9541 83.8568 51.6631 83.5886C51.3721 83.3148 51.2267 82.8783 51.2267 82.2793V79.2327H52.5959V81.9626C52.5959 82.2992 52.6444 82.5531 52.7414 82.7243C52.8384 82.8897 52.9953 82.9725 53.2121 82.9725C53.543 82.9725 53.7655 82.8412 53.8796 82.5788C53.9937 82.3107 54.0508 81.9284 54.0508 81.432V79.2327H55.42ZM58.8234 82.9725C58.9603 82.9725 59.0859 82.9611 59.2 82.9382C59.3198 82.9097 59.4424 82.8726 59.568 82.827V83.7769C59.4196 83.8397 59.2513 83.891 59.063 83.9309C58.8748 83.9709 58.6523 83.9909 58.3955 83.9909C58.116 83.9909 57.8706 83.9452 57.6595 83.8539C57.4485 83.7626 57.283 83.6057 57.1632 83.3832C57.0434 83.1607 56.9835 82.8469 56.9835 82.4419V80.1911H56.4272V79.652L57.0947 79.2241L57.4713 78.2399H58.3527V79.2327H59.5166V80.1911H58.3527V82.4419C58.3527 82.6187 58.3955 82.7528 58.4811 82.8441C58.5667 82.9297 58.6808 82.9725 58.8234 82.9725Z" fill="black"></path>
<path d="M60.4102 91.8976H30.4102V93.3239H60.4102V91.8976Z" fill="#142558" fill-opacity="0.3" mask="url('#path-10-inside-2_1392_15094')"></path>
<path d="M34.7832 113.021L34.1157 111.13H31.8479L31.1889 113.021H30.4102L32.6352 106.885H33.3541L35.5706 113.021H34.7832ZM33.8932 110.446L33.2599 108.597C33.2428 108.551 33.2171 108.469 33.1829 108.349C33.1487 108.229 33.1116 108.106 33.0717 107.981C33.0317 107.85 33.0032 107.75 32.9861 107.681C32.9461 107.858 32.9005 108.032 32.8492 108.203C32.8035 108.369 32.7636 108.5 32.7293 108.597L32.0961 110.446H33.8932ZM37.2238 113.021H36.4793V106.517H37.2238V113.021ZM39.1903 106.714C39.3044 106.714 39.4042 106.754 39.4898 106.834C39.5754 106.908 39.6182 107.028 39.6182 107.194C39.6182 107.359 39.5754 107.482 39.4898 107.562C39.4042 107.636 39.3044 107.673 39.1903 107.673C39.0705 107.673 38.9678 107.636 38.8822 107.562C38.7966 107.482 38.7538 107.359 38.7538 107.194C38.7538 107.028 38.7966 106.908 38.8822 106.834C38.9678 106.754 39.0705 106.714 39.1903 106.714ZM39.5583 108.434V113.021H38.8137V108.434H39.5583ZM42.6627 108.349C42.9423 108.349 43.1962 108.406 43.4244 108.52C43.6526 108.634 43.8466 108.808 44.0063 109.042H44.0491L44.1432 108.434H44.7423V113.099C44.7423 113.755 44.5825 114.248 44.2631 114.579C43.9436 114.91 43.4529 115.075 42.7911 115.075C42.1635 115.075 41.6443 114.978 41.2336 114.784V114.091C41.6672 114.331 42.2006 114.451 42.8339 114.451C43.199 114.451 43.4843 114.334 43.6897 114.1C43.9008 113.872 44.0063 113.558 44.0063 113.158V112.979C44.0063 112.91 44.0092 112.813 44.0149 112.688C44.0206 112.557 44.0263 112.465 44.032 112.414H43.9978C43.7011 112.876 43.2589 113.107 42.6713 113.107C42.1122 113.107 41.6757 112.899 41.3619 112.482C41.0538 112.066 40.8998 111.484 40.8998 110.737C40.8998 110.006 41.0538 109.427 41.3619 108.999C41.6757 108.566 42.1093 108.349 42.6627 108.349ZM42.7825 108.982C42.4288 108.982 42.155 109.136 41.961 109.444C41.767 109.747 41.67 110.18 41.67 110.745C41.67 111.31 41.7641 111.744 41.9524 112.046C42.1464 112.343 42.4288 112.491 42.7997 112.491C43.2218 112.491 43.5299 112.368 43.7239 112.123C43.9179 111.872 44.0149 111.47 44.0149 110.916V110.737C44.0149 110.115 43.915 109.667 43.7153 109.393C43.5157 109.119 43.2047 108.982 42.7825 108.982ZM48.4288 108.349C48.9422 108.349 49.3302 108.483 49.5926 108.751C49.8608 109.019 49.9949 109.447 49.9949 110.035V113.021H49.2503V110.086C49.2503 109.35 48.9365 108.982 48.309 108.982C47.8354 108.982 47.5102 109.125 47.3334 109.41C47.1565 109.695 47.0681 110.106 47.0681 110.642V113.021H46.3235V108.434H46.9226L47.0338 109.059H47.0766C47.2135 108.82 47.4047 108.643 47.65 108.529C47.8953 108.409 48.1549 108.349 48.4288 108.349ZM56.3162 108.349C56.8068 108.349 57.1719 108.483 57.4116 108.751C57.6512 109.019 57.771 109.447 57.771 110.035V113.021H57.035V110.069C57.035 109.344 56.7469 108.982 56.1707 108.982C55.7599 108.982 55.4661 109.111 55.2892 109.367C55.1181 109.624 55.0325 109.998 55.0325 110.488V113.021H54.2879V110.069C54.2879 109.344 53.9998 108.982 53.4236 108.982C52.9957 108.982 52.699 109.125 52.5336 109.41C52.3738 109.695 52.2939 110.106 52.2939 110.642V113.021H51.5494V108.434H52.1485L52.2597 109.059H52.3025C52.4337 108.82 52.6134 108.643 52.8417 108.529C53.0699 108.409 53.3123 108.349 53.5691 108.349C53.9 108.349 54.1767 108.412 54.3992 108.537C54.6217 108.663 54.7843 108.857 54.887 109.119H54.9383C55.081 108.857 55.2749 108.663 55.5203 108.537C55.7656 108.412 56.0309 108.349 56.3162 108.349ZM61.0016 108.349C61.3725 108.349 61.692 108.434 61.9601 108.606C62.2283 108.777 62.4336 109.019 62.5763 109.333C62.7246 109.641 62.7988 110.003 62.7988 110.42V110.873H59.8549C59.8663 111.393 59.9889 111.789 60.2229 112.063C60.4568 112.331 60.7848 112.465 61.207 112.465C61.4809 112.465 61.7233 112.44 61.9344 112.388C62.1512 112.331 62.3737 112.251 62.602 112.149V112.808C62.3794 112.91 62.1598 112.984 61.943 113.03C61.7319 113.081 61.4752 113.107 61.1728 113.107C60.7563 113.107 60.3912 113.019 60.0774 112.842C59.7693 112.665 59.5268 112.402 59.35 112.054C59.1731 111.706 59.0847 111.276 59.0847 110.762C59.0847 110.26 59.1645 109.829 59.3243 109.47C59.484 109.111 59.7065 108.834 59.9918 108.64C60.2828 108.446 60.6194 108.349 61.0016 108.349ZM61.0016 108.965C60.665 108.965 60.3997 109.082 60.2057 109.316C60.0175 109.544 59.9062 109.864 59.872 110.274H62.0286C62.0229 109.886 61.9373 109.573 61.7718 109.333C61.6064 109.088 61.3496 108.965 61.0016 108.965ZM66.2125 108.349C66.7259 108.349 67.1139 108.483 67.3763 108.751C67.6445 109.019 67.7786 109.447 67.7786 110.035V113.021H67.034V110.086C67.034 109.35 66.7202 108.982 66.0927 108.982C65.6191 108.982 65.2939 109.125 65.1171 109.41C64.9402 109.695 64.8518 110.106 64.8518 110.642V113.021H64.1072V108.434H64.7063L64.8175 109.059H64.8603C64.9973 108.82 65.1884 108.643 65.4337 108.529C65.679 108.409 65.9386 108.349 66.2125 108.349ZM70.8136 112.491C70.922 112.491 71.0333 112.482 71.1474 112.465C71.2615 112.448 71.3556 112.425 71.4298 112.397V112.97C71.3499 113.01 71.2358 113.041 71.0875 113.064C70.9449 113.093 70.8079 113.107 70.6767 113.107C70.4485 113.107 70.2374 113.067 70.0434 112.987C69.8494 112.902 69.6925 112.756 69.5727 112.551C69.4586 112.345 69.4016 112.057 69.4016 111.686V109.016H68.794V108.657L69.4187 108.357L69.7011 107.382H70.1461V108.434H71.3956V109.016H70.1461V111.669C70.1461 111.949 70.2089 112.157 70.3344 112.294C70.4599 112.425 70.6197 112.491 70.8136 112.491Z" fill="black"></path>
<rect x="30.4102" y="123.153" width="68.4632" height="34.2316" rx="1.42632" fill="#F2F2F7"></rect>
<rect x="55.3711" y="137.417" width="11.4105" height="2.13947" rx="1.06974" fill="#142558" fill-opacity="0.3"></rect>
<rect x="49.666" y="140.982" width="17.1158" height="2.13947" rx="1.06974" fill="#142558" fill-opacity="0.3"></rect>
<path d="M79.619 140.269C79.619 143.027 77.3839 145.262 74.6269 145.262C71.8698 145.262 69.6348 143.027 69.6348 140.269C69.6348 137.512 71.8698 135.277 74.6269 135.277C77.3839 135.277 79.619 137.512 79.619 140.269Z" fill="#142558" fill-opacity="0.3"></path>
<rect x="117.416" y="123.153" width="68.4632" height="34.2316" rx="1.42632" fill="#F2F2F7"></rect>
<path d="M156.64 135.99C156.64 138.747 154.405 140.982 151.648 140.982C148.891 140.982 146.656 138.747 146.656 135.99C146.656 133.233 148.891 130.998 151.648 130.998C154.405 130.998 156.64 133.233 156.64 135.99Z" fill="#142558" fill-opacity="0.3"></path>
<rect x="143.09" y="143.835" width="17.1158" height="2.13947" rx="1.06974" fill="#142558" fill-opacity="0.3"></rect>
<rect x="145.943" y="147.4" width="11.4105" height="2.13947" rx="1.06974" fill="#142558" fill-opacity="0.3"></rect>
<rect x="204.42" y="123.153" width="68.4632" height="34.2316" rx="1.42632" fill="#007AFF" fill-opacity="0.1"></rect>
<path d="M233.66 140.269C233.66 143.027 231.425 145.262 228.668 145.262C225.911 145.262 223.676 143.027 223.676 140.269C223.676 137.512 225.911 135.277 228.668 135.277C231.425 135.277 233.66 137.512 233.66 140.269Z" fill="#142558" fill-opacity="0.3"></path>
<rect x="236.512" y="137.417" width="11.4105" height="2.13947" rx="1.06974" fill="#142558" fill-opacity="0.3"></rect>
<rect x="236.512" y="140.982" width="17.1158" height="2.13947" rx="1.06974" fill="#142558" fill-opacity="0.3"></rect>
<path d="M32.9946 183.095C33.7306 183.095 34.2726 183.266 34.6206 183.608C34.9744 183.945 35.1512 184.41 35.1512 185.003C35.1512 185.363 35.0828 185.696 34.9458 186.004C34.8089 186.313 34.5807 186.561 34.2612 186.749C33.9417 186.937 33.5053 187.031 32.9519 187.031H32.4726V189.205H31.0862V183.095H32.9946ZM32.9519 184.156H32.4726V185.97H32.8235C33.0973 185.97 33.3227 185.899 33.4996 185.756C33.6764 185.608 33.7649 185.371 33.7649 185.046C33.7649 184.453 33.4939 184.156 32.9519 184.156ZM38.8606 184.447C38.9347 184.447 39.0146 184.45 39.1002 184.455C39.1858 184.461 39.2514 184.47 39.297 184.481L39.1858 185.679C39.0831 185.651 38.9376 185.636 38.7493 185.636C38.5839 185.636 38.4156 185.676 38.2444 185.756C38.0789 185.83 37.9392 185.953 37.8251 186.124C37.7167 186.295 37.6625 186.529 37.6625 186.826V189.205H36.2932V184.532H37.3201L37.5255 185.32H37.594C37.7195 185.08 37.8935 184.875 38.116 184.704C38.3385 184.532 38.5867 184.447 38.8606 184.447ZM40.9252 182.701C41.1249 182.701 41.2961 182.747 41.4387 182.838C41.5814 182.924 41.6527 183.086 41.6527 183.326C41.6527 183.56 41.5814 183.722 41.4387 183.814C41.2961 183.905 41.1249 183.951 40.9252 183.951C40.7199 183.951 40.5458 183.905 40.4032 183.814C40.2606 183.722 40.1893 183.56 40.1893 183.326C40.1893 183.086 40.2606 182.924 40.4032 182.838C40.5458 182.747 40.7199 182.701 40.9252 182.701ZM41.6013 184.532V189.205H40.2321V184.532H41.6013ZM48.2813 184.447C48.7834 184.447 49.1656 184.584 49.4281 184.858C49.6905 185.126 49.8217 185.559 49.8217 186.158V189.205H48.461V186.475C48.461 185.802 48.2613 185.465 47.862 185.465C47.5767 185.465 47.377 185.585 47.2629 185.825C47.1488 186.064 47.0918 186.409 47.0918 186.86V189.205H45.7225V186.475C45.7225 185.802 45.5257 185.465 45.132 185.465C44.8353 185.465 44.6328 185.599 44.5244 185.867C44.416 186.13 44.3618 186.509 44.3618 187.006V189.205H42.9925V184.532H44.028L44.2249 185.132H44.2762C44.4017 184.892 44.5757 184.718 44.7983 184.609C45.0265 184.501 45.2889 184.447 45.5856 184.447C46.2303 184.447 46.6724 184.675 46.9121 185.132H46.9891C47.126 184.892 47.3086 184.718 47.5368 184.609C47.7707 184.501 48.0189 184.447 48.2813 184.447ZM53.1707 184.438C53.7469 184.438 54.1919 184.575 54.5057 184.849C54.8252 185.117 54.985 185.531 54.985 186.09V189.205H54.0351L53.7698 188.572H53.7355C53.5473 188.823 53.3476 189.005 53.1365 189.119C52.9311 189.234 52.643 189.291 52.2721 189.291C51.8899 189.291 51.5675 189.171 51.3051 188.931C51.0483 188.692 50.92 188.318 50.92 187.81C50.92 187.314 51.0826 186.949 51.4078 186.715C51.7387 186.475 52.2236 186.344 52.8626 186.321L53.6157 186.295V186.09C53.6157 185.845 53.5615 185.665 53.4531 185.551C53.3447 185.437 53.1964 185.38 53.0081 185.38C52.8084 185.38 52.603 185.414 52.3919 185.482C52.1865 185.545 51.9783 185.625 51.7672 185.722L51.3479 184.858C51.5932 184.732 51.8699 184.632 52.178 184.558C52.4861 184.478 52.817 184.438 53.1707 184.438ZM53.6243 187.04L53.2135 187.057C52.8769 187.068 52.643 187.143 52.5117 187.28C52.3805 187.416 52.3149 187.596 52.3149 187.819C52.3149 188.013 52.3606 188.152 52.4518 188.238C52.5488 188.318 52.6743 188.358 52.8284 188.358C53.0452 188.358 53.2306 188.278 53.3847 188.118C53.5444 187.953 53.6243 187.722 53.6243 187.425V187.04ZM58.92 184.447C58.9942 184.447 59.0741 184.45 59.1597 184.455C59.2452 184.461 59.3108 184.47 59.3565 184.481L59.2452 185.679C59.1425 185.651 58.9971 185.636 58.8088 185.636C58.6433 185.636 58.475 185.676 58.3039 185.756C58.1384 185.83 57.9986 185.953 57.8845 186.124C57.7761 186.295 57.7219 186.529 57.7219 186.826V189.205H56.3527V184.532H57.3796L57.585 185.32H57.6535C57.779 185.08 57.953 184.875 58.1755 184.704C58.398 184.532 58.6462 184.447 58.92 184.447ZM59.7096 184.532H61.173L61.9518 187.16C61.9917 187.285 62.0174 187.416 62.0288 187.553C62.0459 187.685 62.0602 187.824 62.0716 187.973H62.1058C62.1172 187.824 62.1315 187.685 62.1486 187.553C62.1714 187.422 62.2028 187.291 62.2427 187.16L63.0215 184.532H64.4592L62.6278 189.796C62.4567 190.281 62.2113 190.646 61.8918 190.891C61.5781 191.136 61.1701 191.259 60.6681 191.259C60.5311 191.259 60.4113 191.25 60.3086 191.233C60.2116 191.222 60.1261 191.208 60.0519 191.191V190.181C60.109 190.192 60.1774 190.203 60.2573 190.215C60.3429 190.226 60.4313 190.232 60.5226 190.232C60.7736 190.232 60.9676 190.152 61.1045 189.992C61.2414 189.833 61.3384 189.636 61.3955 189.402L61.4554 189.171L59.7096 184.532ZM70.1604 184.087C69.7439 184.087 69.4215 184.273 69.1933 184.644C68.9651 185.015 68.851 185.522 68.851 186.167C68.851 186.817 68.9594 187.322 69.1762 187.682C69.3987 188.035 69.741 188.212 70.2031 188.212C70.4485 188.212 70.6881 188.184 70.922 188.127C71.1616 188.07 71.4098 187.99 71.6666 187.887V188.974C71.4155 189.082 71.1616 189.162 70.9049 189.214C70.6482 189.265 70.3686 189.291 70.0662 189.291C69.4558 189.291 68.9565 189.162 68.5686 188.906C68.1806 188.643 67.8925 188.278 67.7042 187.81C67.5217 187.337 67.4304 186.786 67.4304 186.158C67.4304 185.542 67.5359 184.997 67.747 184.524C67.9581 184.05 68.2662 183.68 68.6713 183.411C69.0821 183.143 69.5813 183.009 70.1689 183.009C70.4485 183.009 70.748 183.049 71.0675 183.129C71.387 183.203 71.6637 183.306 71.8976 183.437L71.4612 184.49C71.2501 184.381 71.0361 184.287 70.8193 184.207C70.6082 184.127 70.3886 184.087 70.1604 184.087ZM77.0853 186.86C77.0853 187.636 76.8884 188.235 76.4948 188.657C76.1068 189.08 75.5762 189.291 74.903 189.291C74.4808 189.291 74.1071 189.197 73.7819 189.008C73.4567 188.82 73.2 188.546 73.0117 188.187C72.8291 187.822 72.7378 187.379 72.7378 186.86C72.7378 186.084 72.9318 185.488 73.3198 185.072C73.7134 184.655 74.2497 184.447 74.9287 184.447C75.3452 184.447 75.716 184.541 76.0412 184.729C76.3664 184.918 76.6203 185.191 76.8028 185.551C76.9911 185.91 77.0853 186.347 77.0853 186.86ZM74.1328 186.86C74.1328 187.322 74.1927 187.673 74.3125 187.913C74.4323 188.147 74.6348 188.264 74.9201 188.264C75.1997 188.264 75.3965 188.147 75.5106 187.913C75.6304 187.673 75.6903 187.322 75.6903 186.86C75.6903 186.398 75.6304 186.053 75.5106 185.825C75.3908 185.591 75.1911 185.474 74.9116 185.474C74.632 185.474 74.4323 185.591 74.3125 185.825C74.1927 186.053 74.1328 186.398 74.1328 186.86ZM79.6142 189.205H78.2449V182.701H79.6142V189.205ZM85.1218 186.86C85.1218 187.636 84.9249 188.235 84.5313 188.657C84.1433 189.08 83.6127 189.291 82.9395 189.291C82.5173 189.291 82.1436 189.197 81.8184 189.008C81.4932 188.82 81.2365 188.546 81.0482 188.187C80.8656 187.822 80.7744 187.379 80.7744 186.86C80.7744 186.084 80.9683 185.488 81.3563 185.072C81.75 184.655 82.2863 184.447 82.9652 184.447C83.3817 184.447 83.7525 184.541 84.0777 184.729C84.4029 184.918 84.6568 185.191 84.8394 185.551C85.0276 185.91 85.1218 186.347 85.1218 186.86ZM82.1693 186.86C82.1693 187.322 82.2292 187.673 82.349 187.913C82.4688 188.147 82.6714 188.264 82.9566 188.264C83.2362 188.264 83.433 188.147 83.5471 187.913C83.6669 187.673 83.7268 187.322 83.7268 186.86C83.7268 186.398 83.6669 186.053 83.5471 185.825C83.4273 185.591 83.2276 185.474 82.9481 185.474C82.6685 185.474 82.4688 185.591 82.349 185.825C82.2292 186.053 82.1693 186.398 82.1693 186.86ZM88.8488 184.447C88.923 184.447 89.0029 184.45 89.0884 184.455C89.174 184.461 89.2396 184.47 89.2853 184.481L89.174 185.679C89.0713 185.651 88.9258 185.636 88.7376 185.636C88.5721 185.636 88.4038 185.676 88.2327 185.756C88.0672 185.83 87.9274 185.953 87.8133 186.124C87.7049 186.295 87.6507 186.529 87.6507 186.826V189.205H86.2815V184.532H87.3084L87.5138 185.32H87.5823C87.7078 185.08 87.8818 184.875 88.1043 184.704C88.3268 184.532 88.575 184.447 88.8488 184.447Z" fill="black"></path>
<path d="M90.4102 197.197H30.4102V198.624H90.4102V197.197Z" fill="#142558" fill-opacity="0.3" mask="url('#path-26-inside-3_1392_15094')"></path>
<rect x="30.4102" y="209.321" width="32.0921" height="32.0921" rx="3.56579" fill="black"></rect>
<rect x="73.9121" y="209.321" width="32.0921" height="32.0921" rx="3.56579" fill="#EF0459"></rect>
<rect x="117.416" y="209.321" width="32.0921" height="32.0921" rx="3.56579" fill="#007AFF"></rect>
<rect x="160.918" y="209.321" width="32.0921" height="32.0921" rx="3.56579" fill="#142558"></rect>
<rect x="204.42" y="209.321" width="32.0921" height="32.0921" rx="3.56579" fill="#E43A31"></rect>
<path d="M218.395 230.003C218.01 230.004 217.641 229.859 217.369 229.601L214.27 226.664C213.936 226.348 213.936 225.835 214.27 225.519C214.603 225.203 215.144 225.203 215.478 225.519L218.395 228.283L226.111 220.97C226.445 220.653 226.986 220.653 227.319 220.97C227.653 221.286 227.653 221.798 227.319 222.115L219.42 229.601C219.148 229.859 218.779 230.004 218.395 230.003Z" fill="white"></path>
<rect x="247.924" y="209.321" width="30.6658" height="32.0921" rx="3.56579" fill="#FF8A00"></rect>
<rect x="30.4102" y="252.824" width="32.0921" height="32.0921" rx="3.56579" fill="#306185"></rect>
<rect x="73.9121" y="252.824" width="32.0921" height="32.0921" rx="3.56579" fill="#33B476"></rect>
<rect x="117.416" y="252.824" width="32.0921" height="32.0921" rx="3.56579" fill="#5C33B4"></rect>
<rect x="160.918" y="252.824" width="32.0921" height="32.0921" rx="3.56579" fill="#B43378"></rect>
<rect x="204.42" y="252.824" width="32.0921" height="32.0921" rx="3.56579" fill="#9E750A"></rect>
<rect x="247.924" y="252.824" width="32.0921" height="32.0921" rx="3.56579" fill="#334FB4"></rect>
<path d="M34.6463 315.043C34.6463 315.585 34.4637 316.018 34.0986 316.344C33.7392 316.663 33.1943 316.823 32.4641 316.823C32.1217 316.823 31.8165 316.792 31.5484 316.729C31.2802 316.666 31.0206 316.575 30.7696 316.455V315.248C31.0606 315.374 31.3572 315.491 31.6596 315.599C31.9677 315.702 32.2587 315.753 32.5325 315.753C32.795 315.753 32.9832 315.693 33.0973 315.573C33.2171 315.448 33.2771 315.291 33.2771 315.103C33.2771 314.875 33.1829 314.692 32.9946 314.555C32.8121 314.412 32.5468 314.267 32.1988 314.119C31.9648 314.022 31.7423 313.902 31.5312 313.759C31.3259 313.617 31.1547 313.428 31.0178 313.194C30.8865 312.955 30.8209 312.649 30.8209 312.279C30.8209 311.731 31.0064 311.306 31.3772 311.004C31.7537 310.695 32.253 310.541 32.8748 310.541C33.2114 310.541 33.5224 310.578 33.8076 310.653C34.0986 310.727 34.3753 310.832 34.6378 310.969L34.2013 311.979C33.9503 311.865 33.7107 311.777 33.4824 311.714C33.2599 311.651 33.0431 311.62 32.832 311.62C32.6209 311.62 32.4583 311.677 32.3442 311.791C32.2358 311.905 32.1816 312.053 32.1816 312.236C32.1816 312.384 32.2187 312.507 32.2929 312.604C32.3728 312.701 32.4954 312.798 32.6609 312.895C32.8263 312.986 33.0374 313.097 33.2942 313.229C33.5794 313.371 33.8219 313.522 34.0216 313.682C34.227 313.836 34.381 314.022 34.4837 314.238C34.5921 314.455 34.6463 314.723 34.6463 315.043ZM39.8663 314.392C39.8663 315.168 39.6695 315.767 39.2758 316.19C38.8879 316.612 38.3573 316.823 37.6841 316.823C37.2619 316.823 36.8882 316.729 36.563 316.54C36.2378 316.352 35.981 316.078 35.7928 315.719C35.6102 315.354 35.5189 314.912 35.5189 314.392C35.5189 313.617 35.7129 313.02 36.1008 312.604C36.4945 312.187 37.0308 311.979 37.7097 311.979C38.1262 311.979 38.4971 312.073 38.8223 312.262C39.1475 312.45 39.4013 312.724 39.5839 313.083C39.7722 313.443 39.8663 313.879 39.8663 314.392ZM36.9138 314.392C36.9138 314.855 36.9738 315.205 37.0936 315.445C37.2134 315.679 37.4159 315.796 37.7012 315.796C37.9807 315.796 38.1776 315.679 38.2917 315.445C38.4115 315.205 38.4714 314.855 38.4714 314.392C38.4714 313.93 38.4115 313.585 38.2917 313.357C38.1719 313.123 37.9722 313.006 37.6926 313.006C37.4131 313.006 37.2134 313.123 37.0936 313.357C36.9738 313.585 36.9138 313.93 36.9138 314.392ZM42.9344 316.823C42.2669 316.823 41.742 316.632 41.3598 316.25C40.9832 315.867 40.7949 315.26 40.7949 314.427C40.7949 313.856 40.8891 313.391 41.0774 313.032C41.2713 312.672 41.5366 312.407 41.8732 312.236C42.2156 312.065 42.6064 311.979 43.0457 311.979C43.3309 311.979 43.5962 312.01 43.8416 312.073C44.0869 312.136 44.2923 312.21 44.4577 312.296L44.0555 313.254C43.8843 313.18 43.7274 313.12 43.5848 313.075C43.4422 313.029 43.291 313.006 43.1312 313.006C42.8346 313.006 42.6035 313.123 42.4381 313.357C42.2726 313.591 42.1899 313.945 42.1899 314.418C42.1899 314.886 42.2726 315.231 42.4381 315.454C42.6092 315.676 42.8403 315.787 43.1312 315.787C43.348 315.787 43.5534 315.753 43.7474 315.685C43.9414 315.611 44.1297 315.511 44.3122 315.385V316.472C44.124 316.598 43.9214 316.686 43.7046 316.737C43.4935 316.794 43.2368 316.823 42.9344 316.823ZM46.1846 310.233C46.3842 310.233 46.5554 310.279 46.698 310.37C46.8407 310.456 46.912 310.618 46.912 310.858C46.912 311.092 46.8407 311.255 46.698 311.346C46.5554 311.437 46.3842 311.483 46.1846 311.483C45.9792 311.483 45.8052 311.437 45.6625 311.346C45.5199 311.255 45.4486 311.092 45.4486 310.858C45.4486 310.618 45.5199 310.456 45.6625 310.37C45.8052 310.279 45.9792 310.233 46.1846 310.233ZM46.8606 312.065V316.737H45.4914V312.065H46.8606ZM50.2373 311.971C50.8135 311.971 51.2585 312.107 51.5723 312.381C51.8918 312.649 52.0516 313.063 52.0516 313.622V316.737H51.1016L50.8363 316.104H50.8021C50.6138 316.355 50.4141 316.538 50.2031 316.652C49.9977 316.766 49.7095 316.823 49.3387 316.823C48.9565 316.823 48.6341 316.703 48.3717 316.463C48.1149 316.224 47.9866 315.85 47.9866 315.342C47.9866 314.846 48.1492 314.481 48.4744 314.247C48.8053 314.007 49.2902 313.876 49.9292 313.853L50.6823 313.828V313.622C50.6823 313.377 50.6281 313.197 50.5197 313.083C50.4113 312.969 50.263 312.912 50.0747 312.912C49.875 312.912 49.6696 312.946 49.4585 313.015C49.2531 313.077 49.0449 313.157 48.8338 313.254L48.4145 312.39C48.6598 312.264 48.9365 312.165 49.2446 312.09C49.5527 312.01 49.8836 311.971 50.2373 311.971ZM50.6909 314.572L50.2801 314.589C49.9435 314.601 49.7095 314.675 49.5783 314.812C49.4471 314.949 49.3815 315.128 49.3815 315.351C49.3815 315.545 49.4271 315.685 49.5184 315.77C49.6154 315.85 49.7409 315.89 49.895 315.89C50.1118 315.89 50.2972 315.81 50.4512 315.65C50.611 315.485 50.6909 315.254 50.6909 314.957V314.572ZM54.7885 316.737H53.4192V310.233H54.7885V316.737ZM59.1904 310.233C59.3901 310.233 59.5613 310.279 59.7039 310.37C59.8466 310.456 59.9179 310.618 59.9179 310.858C59.9179 311.092 59.8466 311.255 59.7039 311.346C59.5613 311.437 59.3901 311.483 59.1904 311.483C58.9851 311.483 58.811 311.437 58.6684 311.346C58.5258 311.255 58.4545 311.092 58.4545 310.858C58.4545 310.618 58.5258 310.456 58.6684 310.37C58.811 310.279 58.9851 310.233 59.1904 310.233ZM59.8665 312.065V316.737H58.4973V312.065H59.8665ZM63.1661 316.823C62.4986 316.823 61.9737 316.632 61.5915 316.25C61.2149 315.867 61.0267 315.26 61.0267 314.427C61.0267 313.856 61.1208 313.391 61.3091 313.032C61.5031 312.672 61.7684 312.407 62.105 312.236C62.4473 312.065 62.8381 311.979 63.2774 311.979C63.5627 311.979 63.828 312.01 64.0733 312.073C64.3186 312.136 64.524 312.21 64.6895 312.296L64.2872 313.254C64.1161 313.18 63.9592 313.12 63.8165 313.075C63.6739 313.029 63.5227 313.006 63.363 313.006C63.0663 313.006 62.8352 313.123 62.6698 313.357C62.5043 313.591 62.4216 313.945 62.4216 314.418C62.4216 314.886 62.5043 315.231 62.6698 315.454C62.8409 315.676 63.072 315.787 63.363 315.787C63.5798 315.787 63.7852 315.753 63.9791 315.685C64.1731 315.611 64.3614 315.511 64.544 315.385V316.472C64.3557 316.598 64.1532 316.686 63.9364 316.737C63.7253 316.794 63.4685 316.823 63.1661 316.823ZM69.8395 314.392C69.8395 315.168 69.6426 315.767 69.249 316.19C68.861 316.612 68.3304 316.823 67.6572 316.823C67.235 316.823 66.8613 316.729 66.5361 316.54C66.2109 316.352 65.9542 316.078 65.7659 315.719C65.5833 315.354 65.492 314.912 65.492 314.392C65.492 313.617 65.686 313.02 66.074 312.604C66.4676 312.187 67.0039 311.979 67.6829 311.979C68.0993 311.979 68.4702 312.073 68.7954 312.262C69.1206 312.45 69.3745 312.724 69.557 313.083C69.7453 313.443 69.8395 313.879 69.8395 314.392ZM66.887 314.392C66.887 314.855 66.9469 315.205 67.0667 315.445C67.1865 315.679 67.389 315.796 67.6743 315.796C67.9539 315.796 68.1507 315.679 68.2648 315.445C68.3846 315.205 68.4445 314.855 68.4445 314.392C68.4445 313.93 68.3846 313.585 68.2648 313.357C68.145 313.123 67.9453 313.006 67.6657 313.006C67.3862 313.006 67.1865 313.123 67.0667 313.357C66.9469 313.585 66.887 313.93 66.887 314.392ZM73.635 311.979C74.1028 311.979 74.4794 312.116 74.7646 312.39C75.0556 312.658 75.2011 313.092 75.2011 313.691V316.737H73.8318V314.007C73.8318 313.671 73.7805 313.42 73.6778 313.254C73.5808 313.083 73.4239 312.998 73.2071 312.998C72.8762 312.998 72.6537 313.132 72.5396 313.4C72.4255 313.662 72.3684 314.042 72.3684 314.538V316.737H70.9991V312.065H72.0346L72.2229 312.664H72.2828C72.4255 312.424 72.6137 312.25 72.8476 312.142C73.0816 312.033 73.344 311.979 73.635 311.979ZM79.7512 315.351C79.7512 315.824 79.6 316.19 79.2976 316.446C78.9953 316.697 78.5217 316.823 77.877 316.823C77.5632 316.823 77.2894 316.8 77.0555 316.754C76.8216 316.714 76.5848 316.646 76.3452 316.549V315.496C76.6076 315.611 76.8786 315.705 77.1582 315.779C77.4377 315.853 77.6716 315.89 77.8599 315.89C78.0653 315.89 78.2108 315.853 78.2964 315.779C78.3877 315.705 78.4333 315.608 78.4333 315.488C78.4333 315.408 78.4105 315.337 78.3648 315.274C78.3192 315.211 78.2279 315.14 78.091 315.06C77.9541 314.98 77.7515 314.877 77.4834 314.752C77.2209 314.626 77.0041 314.504 76.833 314.384C76.6675 314.258 76.542 314.11 76.4564 313.939C76.3766 313.762 76.3366 313.542 76.3366 313.28C76.3366 312.846 76.4992 312.521 76.8244 312.304C77.1553 312.088 77.5889 311.979 78.1252 311.979C78.6672 311.979 79.195 312.102 79.7084 312.347L79.3233 313.263C79.1008 313.166 78.884 313.086 78.6729 313.023C78.4675 312.955 78.2821 312.92 78.1167 312.92C77.8143 312.92 77.6631 313.023 77.6631 313.229C77.6631 313.303 77.6859 313.371 77.7316 313.434C77.7772 313.491 77.8656 313.557 77.9968 313.631C78.1281 313.699 78.3192 313.788 78.5702 313.896C78.8213 314.004 79.0352 314.119 79.2121 314.238C79.3889 314.353 79.523 314.498 79.6143 314.675C79.7056 314.852 79.7512 315.077 79.7512 315.351Z" fill="black"></path>
<path d="M80.4102 324.73H30.4102V326.156H80.4102V324.73Z" fill="#142558" fill-opacity="0.3" mask="url('#path-42-inside-4_1392_15094')"></path>
<path d="M32.8406 350.442H30.7268V349.997L31.4029 349.835V344.948L30.7268 344.777V344.332H32.8406V344.777L32.1645 344.948V349.835L32.8406 349.997V350.442ZM35.8096 350.528C35.4217 350.528 35.0793 350.445 34.7827 350.28C34.486 350.114 34.2521 349.858 34.0809 349.51C33.9155 349.162 33.8327 348.717 33.8327 348.175C33.8327 347.61 33.9212 347.15 34.098 346.797C34.2749 346.443 34.5145 346.183 34.8169 346.018C35.125 345.852 35.473 345.77 35.861 345.77C36.0835 345.77 36.2974 345.795 36.5028 345.847C36.7139 345.892 36.8851 345.949 37.0163 346.018L36.7852 346.643C36.654 346.591 36.4999 346.543 36.3231 346.497C36.1519 346.452 35.9922 346.429 35.8438 346.429C35.0166 346.429 34.6029 347.008 34.6029 348.166C34.6029 348.719 34.7028 349.144 34.9025 349.441C35.1079 349.732 35.4102 349.878 35.8096 349.878C36.0435 349.878 36.2518 349.852 36.4343 349.801C36.6169 349.749 36.7852 349.686 36.9393 349.612V350.28C36.7909 350.36 36.6283 350.42 36.4515 350.459C36.2746 350.505 36.0606 350.528 35.8096 350.528ZM41.9608 348.14C41.9608 348.899 41.7782 349.487 41.413 349.903C41.0479 350.32 40.5544 350.528 39.9325 350.528C39.5503 350.528 39.208 350.437 38.9056 350.254C38.6089 350.066 38.375 349.795 38.2038 349.441C38.0327 349.082 37.9471 348.648 37.9471 348.14C37.9471 347.382 38.1268 346.797 38.4862 346.386C38.8457 345.975 39.3363 345.77 39.9582 345.77C40.3462 345.77 40.6913 345.864 40.9937 346.052C41.2961 346.235 41.5329 346.503 41.704 346.857C41.8752 347.205 41.9608 347.633 41.9608 348.14ZM38.7173 348.14C38.7173 348.682 38.8143 349.113 39.0083 349.433C39.208 349.746 39.5218 349.903 39.9496 349.903C40.3775 349.903 40.6913 349.746 40.891 349.433C41.0907 349.113 41.1905 348.682 41.1905 348.14C41.1905 347.598 41.0907 347.173 40.891 346.865C40.6913 346.557 40.3747 346.403 39.9411 346.403C39.5132 346.403 39.2023 346.557 39.0083 346.865C38.8143 347.173 38.7173 347.598 38.7173 348.14ZM45.4008 345.77C45.9143 345.77 46.3023 345.904 46.5647 346.172C46.8329 346.44 46.9669 346.868 46.9669 347.456V350.442H46.2224V347.507C46.2224 346.771 45.9086 346.403 45.281 346.403C44.8075 346.403 44.4823 346.546 44.3054 346.831C44.1286 347.116 44.0401 347.527 44.0401 348.063V350.442H43.2956V345.855H43.8947L44.0059 346.48H44.0487C44.1856 346.24 44.3768 346.064 44.6221 345.949C44.8674 345.83 45.127 345.77 45.4008 345.77ZM51.7034 350.442H50.9417V344.332H54.1595V345.008H51.7034V347.173H54.0055V347.849H51.7034V350.442ZM57.3163 345.77C57.3962 345.77 57.4818 345.775 57.573 345.787C57.6643 345.793 57.7442 345.804 57.8127 345.821L57.7271 346.514C57.6586 346.497 57.5816 346.483 57.496 346.472C57.4162 346.46 57.3391 346.454 57.265 346.454C57.0482 346.454 56.8428 346.52 56.6488 346.651C56.4605 346.777 56.3065 346.956 56.1867 347.19C56.0726 347.419 56.0155 347.687 56.0155 347.995V350.442H55.271V345.855H55.8786L55.9642 346.694H55.9984C56.1353 346.443 56.315 346.226 56.5375 346.044C56.76 345.861 57.0196 345.77 57.3163 345.77ZM60.335 345.778C60.8599 345.778 61.2507 345.901 61.5074 346.146C61.7699 346.392 61.9011 346.782 61.9011 347.319V350.442H61.3619L61.2165 349.792H61.1822C60.994 350.043 60.7971 350.228 60.5917 350.348C60.3863 350.468 60.1011 350.528 59.7359 350.528C59.348 350.528 59.0228 350.42 58.7603 350.203C58.5036 349.98 58.3752 349.635 58.3752 349.167C58.3752 348.711 58.5435 348.36 58.8802 348.115C59.2168 347.864 59.7359 347.727 60.4377 347.704L61.1651 347.678V347.404C61.1651 347.022 61.0881 346.757 60.9341 346.608C60.7857 346.46 60.5718 346.386 60.2922 346.386C60.0697 346.386 59.8558 346.423 59.6504 346.497C59.445 346.566 59.2539 346.646 59.077 346.737L58.8459 346.172C59.0399 346.064 59.2653 345.972 59.522 345.898C59.7787 345.818 60.0497 345.778 60.335 345.778ZM61.1651 348.2L60.5404 348.226C60.0155 348.249 59.6504 348.34 59.445 348.5C59.2453 348.659 59.1455 348.885 59.1455 349.176C59.1455 349.433 59.2168 349.621 59.3594 349.741C59.502 349.86 59.6875 349.92 59.9157 349.92C60.2694 349.92 60.5661 349.815 60.8057 349.604C61.0453 349.387 61.1651 349.056 61.1651 348.611V348.2ZM68.2247 345.77C68.7153 345.77 69.0805 345.904 69.3201 346.172C69.5597 346.44 69.6795 346.868 69.6795 347.456V350.442H68.9435V347.49C68.9435 346.765 68.6554 346.403 68.0792 346.403C67.6684 346.403 67.3746 346.531 67.1977 346.788C67.0266 347.045 66.941 347.419 66.941 347.909V350.442H66.1964V347.49C66.1964 346.765 65.9083 346.403 65.3321 346.403C64.9042 346.403 64.6075 346.546 64.4421 346.831C64.2823 347.116 64.2025 347.527 64.2025 348.063V350.442H63.4579V345.855H64.057L64.1682 346.48H64.211C64.3422 346.24 64.522 346.064 64.7502 345.949C64.9784 345.83 65.2208 345.77 65.4776 345.77C65.8085 345.77 66.0852 345.833 66.3077 345.958C66.5302 346.084 66.6928 346.278 66.7955 346.54H66.8468C66.9895 346.278 67.1835 346.084 67.4288 345.958C67.6741 345.833 67.9394 345.77 68.2247 345.77ZM72.9101 345.77C73.281 345.77 73.6005 345.855 73.8686 346.027C74.1368 346.198 74.3422 346.44 74.4848 346.754C74.6331 347.062 74.7073 347.424 74.7073 347.841V348.294H71.7634C71.7748 348.814 71.8975 349.21 72.1314 349.484C72.3653 349.752 72.6933 349.886 73.1155 349.886C73.3894 349.886 73.6319 349.86 73.8429 349.809C74.0597 349.752 74.2823 349.672 74.5105 349.569V350.228C74.288 350.331 74.0683 350.405 73.8515 350.451C73.6404 350.502 73.3837 350.528 73.0813 350.528C72.6648 350.528 72.2997 350.44 71.9859 350.263C71.6778 350.086 71.4353 349.823 71.2585 349.475C71.0816 349.127 70.9932 348.697 70.9932 348.183C70.9932 347.681 71.073 347.25 71.2328 346.891C71.3925 346.531 71.615 346.255 71.9003 346.061C72.1913 345.867 72.5279 345.77 72.9101 345.77ZM72.9101 346.386C72.5735 346.386 72.3082 346.503 72.1143 346.737C71.926 346.965 71.8147 347.285 71.7805 347.695H73.9371C73.9314 347.307 73.8458 346.994 73.6803 346.754C73.5149 346.509 73.2582 346.386 72.9101 346.386Z" fill="black"></path>
<path d="M50.8178 378.279H49.3715L46.7956 373.487H46.7613C46.7727 373.744 46.7842 374.02 46.7956 374.317C46.8127 374.608 46.8241 374.902 46.8298 375.198V378.279H45.8028V372.169H47.2406L49.8079 376.927H49.8422C49.8308 376.699 49.8165 376.436 49.7994 376.14C49.788 375.843 49.7823 375.555 49.7823 375.275V372.169H50.8178V378.279ZM56.14 375.952C56.14 376.722 55.9489 377.318 55.5666 377.74C55.1901 378.157 54.6737 378.365 54.0176 378.365C53.6126 378.365 53.2503 378.271 52.9308 378.082C52.617 377.894 52.3688 377.62 52.1862 377.261C52.0094 376.901 51.9209 376.465 51.9209 375.952C51.9209 375.181 52.1092 374.591 52.4858 374.18C52.868 373.764 53.3872 373.555 54.0433 373.555C54.4484 373.555 54.8078 373.649 55.1216 373.838C55.4411 374.02 55.6893 374.291 55.8661 374.651C56.0487 375.004 56.14 375.438 56.14 375.952ZM53.0763 375.952C53.0763 376.442 53.1504 376.822 53.2988 377.09C53.4528 377.358 53.6981 377.492 54.0347 377.492C54.3656 377.492 54.6053 377.358 54.7536 377.09C54.9076 376.822 54.9847 376.442 54.9847 375.952C54.9847 375.461 54.9076 375.084 54.7536 374.822C54.6053 374.559 54.3628 374.428 54.0262 374.428C53.6896 374.428 53.4471 374.559 53.2988 374.822C53.1504 375.084 53.0763 375.461 53.0763 375.952ZM59.572 373.555C60.0569 373.555 60.4392 373.689 60.7187 373.958C60.9983 374.226 61.1381 374.659 61.1381 375.258V378.279H59.9999V375.472C59.9999 374.776 59.7517 374.428 59.2553 374.428C58.8731 374.428 58.6135 374.565 58.4766 374.839C58.3396 375.113 58.2712 375.504 58.2712 376.011V378.279H57.133V373.641H58.0059L58.1685 374.249H58.2198C58.3567 374.009 58.545 373.835 58.7846 373.726C59.0243 373.612 59.2867 373.555 59.572 373.555ZM64.1708 373.555C64.7698 373.555 65.2434 373.741 65.5914 374.112C65.9394 374.482 66.1134 374.999 66.1134 375.661V376.208H63.2722C63.2836 376.63 63.3863 376.959 63.5803 377.192C63.7743 377.421 64.0538 377.535 64.4189 377.535C64.6985 377.535 64.9495 377.506 65.172 377.449C65.4003 377.386 65.6342 377.298 65.8738 377.184V378.048C65.657 378.157 65.4288 378.237 65.1892 378.288C64.9552 378.339 64.67 378.365 64.3334 378.365C63.8998 378.365 63.5147 378.279 63.1781 378.108C62.8471 377.931 62.5876 377.669 62.3993 377.321C62.211 376.967 62.1169 376.525 62.1169 375.994C62.1169 375.201 62.3051 374.597 62.6817 374.18C63.0639 373.764 63.5603 373.555 64.1708 373.555ZM64.1879 374.351C63.9369 374.351 63.7286 374.445 63.5632 374.634C63.4034 374.816 63.3121 375.09 63.2893 375.455H65.0351C65.0294 375.136 64.9581 374.873 64.8212 374.668C64.6842 374.457 64.4731 374.351 64.1879 374.351Z" fill="#142558"></path>
<rect x="30.7667" y="360.931" width="50.6342" height="28.6974" rx="3.20921" stroke="#142558" stroke-width="0.713158"></rect>
<path d="M106.512 372.169H108.309C109.073 372.169 109.641 372.283 110.012 372.511C110.389 372.739 110.577 373.136 110.577 373.701C110.577 374.055 110.488 374.351 110.312 374.591C110.135 374.825 109.904 374.973 109.618 375.036V375.079C109.818 375.124 110.001 375.198 110.166 375.301C110.337 375.404 110.474 375.555 110.577 375.755C110.68 375.949 110.731 376.205 110.731 376.525C110.731 377.078 110.543 377.509 110.166 377.817C109.795 378.125 109.285 378.279 108.634 378.279H106.512V372.169ZM107.659 374.659H108.412C108.783 374.659 109.039 374.591 109.182 374.454C109.325 374.311 109.396 374.109 109.396 373.846C109.396 373.572 109.31 373.376 109.139 373.256C108.974 373.136 108.708 373.076 108.343 373.076H107.659V374.659ZM107.659 375.541V377.364H108.497C108.885 377.364 109.153 377.278 109.302 377.107C109.456 376.93 109.533 376.702 109.533 376.422C109.533 376.154 109.453 375.94 109.293 375.78C109.139 375.621 108.862 375.541 108.463 375.541H107.659ZM115.746 375.952C115.746 376.722 115.555 377.318 115.172 377.74C114.796 378.157 114.28 378.365 113.623 378.365C113.218 378.365 112.856 378.271 112.537 378.082C112.223 377.894 111.975 377.62 111.792 377.261C111.615 376.901 111.527 376.465 111.527 375.952C111.527 375.181 111.715 374.591 112.092 374.18C112.474 373.764 112.993 373.555 113.649 373.555C114.054 373.555 114.414 373.649 114.727 373.838C115.047 374.02 115.295 374.291 115.472 374.651C115.655 375.004 115.746 375.438 115.746 375.952ZM112.682 375.952C112.682 376.442 112.756 376.822 112.905 377.09C113.059 377.358 113.304 377.492 113.641 377.492C113.971 377.492 114.211 377.358 114.359 377.09C114.513 376.822 114.59 376.442 114.59 375.952C114.59 375.461 114.513 375.084 114.359 374.822C114.211 374.559 113.969 374.428 113.632 374.428C113.295 374.428 113.053 374.559 112.905 374.822C112.756 375.084 112.682 375.461 112.682 375.952ZM119.109 373.555C119.183 373.555 119.263 373.561 119.349 373.572C119.44 373.578 119.514 373.587 119.571 373.598L119.469 374.599C119.343 374.571 119.195 374.557 119.024 374.557C118.835 374.557 118.653 374.605 118.476 374.702C118.299 374.793 118.154 374.936 118.04 375.13C117.931 375.324 117.877 375.572 117.877 375.875V378.279H116.739V373.641H117.612L117.766 374.445H117.826C117.957 374.2 118.134 373.992 118.356 373.821C118.579 373.644 118.83 373.555 119.109 373.555ZM121.595 378.365C121.098 378.365 120.696 378.165 120.388 377.766C120.08 377.361 119.926 376.762 119.926 375.969C119.926 375.17 120.083 374.568 120.397 374.163C120.71 373.758 121.121 373.555 121.629 373.555C121.948 373.555 122.205 373.621 122.399 373.752C122.599 373.883 122.761 374.043 122.887 374.231H122.921C122.91 374.152 122.895 374.032 122.878 373.872C122.861 373.707 122.853 373.55 122.853 373.401V371.775H123.991V378.279H123.118L122.904 377.672H122.853C122.739 377.866 122.579 378.031 122.373 378.168C122.174 378.299 121.914 378.365 121.595 378.365ZM121.971 377.492C122.319 377.492 122.565 377.378 122.707 377.15C122.85 376.921 122.921 376.576 122.921 376.114V375.977C122.921 375.481 122.853 375.101 122.716 374.839C122.585 374.571 122.333 374.437 121.963 374.437C121.677 374.437 121.458 374.574 121.304 374.848C121.155 375.116 121.081 375.495 121.081 375.986C121.081 376.476 121.155 376.85 121.304 377.107C121.458 377.364 121.68 377.492 121.971 377.492ZM127.044 373.555C127.643 373.555 128.117 373.741 128.465 374.112C128.813 374.482 128.987 374.999 128.987 375.661V376.208H126.146C126.157 376.63 126.26 376.959 126.454 377.192C126.648 377.421 126.927 377.535 127.292 377.535C127.572 377.535 127.823 377.506 128.046 377.449C128.274 377.386 128.508 377.298 128.747 377.184V378.048C128.531 378.157 128.302 378.237 128.063 378.288C127.829 378.339 127.544 378.365 127.207 378.365C126.773 378.365 126.388 378.279 126.052 378.108C125.721 377.931 125.461 377.669 125.273 377.321C125.085 376.967 124.99 376.525 124.99 375.994C124.99 375.201 125.179 374.597 125.555 374.18C125.937 373.764 126.434 373.555 127.044 373.555ZM127.061 374.351C126.81 374.351 126.602 374.445 126.437 374.634C126.277 374.816 126.186 375.09 126.163 375.455H127.909C127.903 375.136 127.832 374.873 127.695 374.668C127.558 374.457 127.347 374.351 127.061 374.351ZM132.331 373.555C132.405 373.555 132.485 373.561 132.57 373.572C132.662 373.578 132.736 373.587 132.793 373.598L132.69 374.599C132.565 374.571 132.416 374.557 132.245 374.557C132.057 374.557 131.874 374.605 131.697 374.702C131.52 374.793 131.375 374.936 131.261 375.13C131.152 375.324 131.098 375.572 131.098 375.875V378.279H129.96V373.641H130.833L130.987 374.445H131.047C131.178 374.2 131.355 373.992 131.578 373.821C131.8 373.644 132.051 373.555 132.331 373.555Z" fill="#142558"></path>
<rect x="94.4757" y="360.931" width="50.6342" height="28.6974" rx="3.20921" stroke="#142558" stroke-width="0.713158"></rect>
<rect x="157.828" y="360.574" width="51.3474" height="29.4105" rx="3.56579" fill="#142558"></rect>
<path d="M179.35 378.279H178.221V372.169H181.516V373.085H179.35V374.882H181.362V375.798H179.35V378.279ZM183.012 371.852C183.172 371.852 183.312 371.895 183.432 371.981C183.557 372.061 183.62 372.206 183.62 372.417C183.62 372.628 183.557 372.777 183.432 372.862C183.312 372.948 183.172 372.991 183.012 372.991C182.836 372.991 182.687 372.948 182.567 372.862C182.448 372.777 182.388 372.628 182.388 372.417C182.388 372.206 182.448 372.061 182.567 371.981C182.687 371.895 182.836 371.852 183.012 371.852ZM183.569 373.641V378.279H182.439V373.641H183.569ZM185.942 378.279H184.804V371.775H185.942V378.279ZM188.316 378.279H187.177V371.775H188.316V378.279Z" fill="white"></path>
<path d="M238.43 372.169H240.227C240.991 372.169 241.559 372.283 241.93 372.511C242.307 372.739 242.495 373.136 242.495 373.701C242.495 374.055 242.406 374.351 242.23 374.591C242.053 374.825 241.822 374.973 241.536 375.036V375.079C241.736 375.124 241.919 375.198 242.084 375.301C242.255 375.404 242.392 375.555 242.495 375.755C242.597 375.949 242.649 376.205 242.649 376.525C242.649 377.078 242.461 377.509 242.084 377.817C241.713 378.125 241.203 378.279 240.552 378.279H238.43V372.169ZM239.577 374.659H240.33C240.7 374.659 240.957 374.591 241.1 374.454C241.242 374.311 241.314 374.109 241.314 373.846C241.314 373.572 241.228 373.376 241.057 373.256C240.892 373.136 240.626 373.076 240.261 373.076H239.577V374.659ZM239.577 375.541V377.364H240.415C240.803 377.364 241.071 377.278 241.22 377.107C241.374 376.93 241.451 376.702 241.451 376.422C241.451 376.154 241.371 375.94 241.211 375.78C241.057 375.621 240.78 375.541 240.381 375.541H239.577ZM247.664 375.952C247.664 376.722 247.473 377.318 247.09 377.74C246.714 378.157 246.198 378.365 245.541 378.365C245.136 378.365 244.774 378.271 244.455 378.082C244.141 377.894 243.893 377.62 243.71 377.261C243.533 376.901 243.445 376.465 243.445 375.952C243.445 375.181 243.633 374.591 244.01 374.18C244.392 373.764 244.911 373.555 245.567 373.555C245.972 373.555 246.332 373.649 246.645 373.838C246.965 374.02 247.213 374.291 247.39 374.651C247.572 375.004 247.664 375.438 247.664 375.952ZM244.6 375.952C244.6 376.442 244.674 376.822 244.823 377.09C244.977 377.358 245.222 377.492 245.559 377.492C245.889 377.492 246.129 377.358 246.277 377.09C246.431 376.822 246.508 376.442 246.508 375.952C246.508 375.461 246.431 375.084 246.277 374.822C246.129 374.559 245.887 374.428 245.55 374.428C245.213 374.428 244.971 374.559 244.823 374.822C244.674 375.084 244.6 375.461 244.6 375.952ZM250.471 377.501C250.597 377.501 250.716 377.489 250.83 377.466C250.95 377.438 251.062 377.406 251.164 377.372V378.177C251.044 378.234 250.899 378.279 250.728 378.314C250.557 378.348 250.365 378.365 250.154 378.365C249.898 378.365 249.667 378.322 249.461 378.237C249.256 378.151 249.093 378 248.973 377.783C248.854 377.566 248.794 377.261 248.794 376.867V374.454H248.212V373.983L248.862 373.607L249.204 372.623H249.923V373.641H251.121V374.454H249.923V376.859C249.923 377.075 249.972 377.238 250.069 377.346C250.172 377.449 250.306 377.501 250.471 377.501ZM253.146 371.775V373.324C253.146 373.507 253.138 373.687 253.121 373.863C253.109 374.035 253.098 374.163 253.086 374.249H253.155C253.292 374.015 253.471 373.841 253.694 373.726C253.916 373.612 254.162 373.555 254.43 373.555C254.909 373.555 255.291 373.692 255.577 373.966C255.868 374.234 256.013 374.665 256.013 375.258V378.279H254.875V375.472C254.875 374.776 254.627 374.428 254.13 374.428C253.754 374.428 253.494 374.565 253.352 374.839C253.215 375.113 253.146 375.504 253.146 376.011V378.279H252.008V371.775H253.146Z" fill="#142558"></path>
<rect x="221.894" y="360.931" width="50.6342" height="28.6974" rx="3.20921" stroke="#142558" stroke-width="0.713158"></rect>
<path d="M31.9506 414.984H31.1889V408.874H34.4067V409.55H31.9506V411.715H34.2527V412.391H31.9506V414.984ZM37.5635 410.312C37.6434 410.312 37.729 410.317 37.8202 410.329C37.9115 410.335 37.9914 410.346 38.0599 410.363L37.9743 411.056C37.9058 411.039 37.8288 411.025 37.7432 411.014C37.6634 411.002 37.5863 410.996 37.5122 410.996C37.2954 410.996 37.09 411.062 36.896 411.193C36.7077 411.319 36.5537 411.498 36.4339 411.732C36.3198 411.961 36.2627 412.229 36.2627 412.537V414.984H35.5182V410.397H36.1258L36.2114 411.236H36.2456C36.3825 410.985 36.5622 410.768 36.7847 410.586C37.0072 410.403 37.2668 410.312 37.5635 410.312ZM40.5822 410.32C41.1071 410.32 41.4979 410.443 41.7546 410.688C42.0171 410.934 42.1483 411.324 42.1483 411.861V414.984H41.6091L41.4637 414.334H41.4294C41.2412 414.585 41.0443 414.77 40.8389 414.89C40.6335 415.01 40.3483 415.07 39.9831 415.07C39.5952 415.07 39.27 414.962 39.0075 414.745C38.7508 414.522 38.6224 414.177 38.6224 413.709C38.6224 413.253 38.7907 412.902 39.1274 412.657C39.464 412.406 39.9831 412.269 40.6849 412.246L41.4123 412.22V411.946C41.4123 411.564 41.3353 411.299 41.1812 411.15C41.0329 411.002 40.819 410.928 40.5394 410.928C40.3169 410.928 40.103 410.965 39.8976 411.039C39.6922 411.108 39.501 411.188 39.3242 411.279L39.0931 410.714C39.2871 410.606 39.5125 410.514 39.7692 410.44C40.0259 410.36 40.2969 410.32 40.5822 410.32ZM41.4123 412.742L40.7876 412.768C40.2627 412.791 39.8976 412.882 39.6922 413.042C39.4925 413.201 39.3926 413.427 39.3926 413.718C39.3926 413.975 39.464 414.163 39.6066 414.283C39.7492 414.402 39.9346 414.462 40.1629 414.462C40.5166 414.462 40.8133 414.357 41.0529 414.146C41.2925 413.929 41.4123 413.598 41.4123 413.153V412.742ZM48.4719 410.312C48.9625 410.312 49.3277 410.446 49.5673 410.714C49.8069 410.982 49.9267 411.41 49.9267 411.998V414.984H49.1907V412.032C49.1907 411.307 48.9026 410.945 48.3264 410.945C47.9156 410.945 47.6218 411.073 47.4449 411.33C47.2738 411.587 47.1882 411.961 47.1882 412.451V414.984H46.4436V412.032C46.4436 411.307 46.1555 410.945 45.5793 410.945C45.1514 410.945 44.8547 411.088 44.6893 411.373C44.5295 411.658 44.4497 412.069 44.4497 412.605V414.984H43.7051V410.397H44.3042L44.4154 411.022H44.4582C44.5894 410.782 44.7691 410.606 44.9974 410.491C45.2256 410.372 45.468 410.312 45.7248 410.312C46.0557 410.312 46.3324 410.375 46.5549 410.5C46.7774 410.626 46.94 410.82 47.0427 411.082H47.094C47.2367 410.82 47.4307 410.626 47.676 410.5C47.9213 410.375 48.1866 410.312 48.4719 410.312ZM53.1573 410.312C53.5282 410.312 53.8477 410.397 54.1158 410.569C54.384 410.74 54.5894 410.982 54.732 411.296C54.8803 411.604 54.9545 411.966 54.9545 412.383V412.836H52.0106C52.022 413.356 52.1446 413.752 52.3786 414.026C52.6125 414.294 52.9405 414.428 53.3627 414.428C53.6366 414.428 53.879 414.402 54.0901 414.351C54.3069 414.294 54.5294 414.214 54.7577 414.111V414.77C54.5352 414.873 54.3155 414.947 54.0987 414.993C53.8876 415.044 53.6309 415.07 53.3285 415.07C52.912 415.07 52.5469 414.982 52.2331 414.805C51.925 414.628 51.6825 414.365 51.5057 414.017C51.3288 413.669 51.2404 413.239 51.2404 412.725C51.2404 412.223 51.3202 411.792 51.48 411.433C51.6397 411.073 51.8622 410.797 52.1475 410.603C52.4385 410.409 52.7751 410.312 53.1573 410.312ZM53.1573 410.928C52.8207 410.928 52.5554 411.045 52.3614 411.279C52.1732 411.507 52.0619 411.827 52.0277 412.237H54.1843C54.1786 411.849 54.093 411.536 53.9275 411.296C53.7621 411.051 53.5054 410.928 53.1573 410.928ZM61.9523 413.35C61.9523 413.892 61.7669 414.314 61.396 414.616C61.0252 414.919 60.526 415.07 59.8984 415.07C59.5789 415.07 59.2794 415.044 58.9998 414.993C58.726 414.942 58.4977 414.87 58.3152 414.779V414.043C58.5149 414.134 58.7573 414.217 59.0426 414.291C59.3336 414.365 59.6302 414.402 59.9326 414.402C60.3491 414.402 60.6629 414.314 60.874 414.137C61.0851 413.96 61.1906 413.721 61.1906 413.418C61.1906 413.219 61.1478 413.05 61.0623 412.913C60.9824 412.776 60.8455 412.651 60.6515 412.537C60.4575 412.423 60.1922 412.297 59.8556 412.16C59.3821 411.972 59.0169 411.741 58.7602 411.467C58.5092 411.193 58.3836 410.82 58.3836 410.346C58.3836 410.027 58.4607 409.75 58.6147 409.516C58.7745 409.282 58.9913 409.102 59.2651 408.977C59.5447 408.851 59.867 408.788 60.2321 408.788C60.5459 408.788 60.8341 408.82 61.0965 408.883C61.3589 408.945 61.6014 409.028 61.8239 409.131L61.5843 409.79C61.3789 409.698 61.1593 409.621 60.9253 409.559C60.6971 409.496 60.4604 409.465 60.215 409.465C59.8613 409.465 59.596 409.547 59.4191 409.713C59.2423 409.872 59.1539 410.086 59.1539 410.355C59.1539 410.56 59.1938 410.731 59.2737 410.868C59.3535 411.005 59.4848 411.13 59.6673 411.245C59.8499 411.353 60.0924 411.467 60.3947 411.587C60.7314 411.718 61.0138 411.861 61.242 412.015C61.4759 412.163 61.6528 412.343 61.7726 412.554C61.8924 412.765 61.9523 413.03 61.9523 413.35ZM63.9742 408.48V410.389C63.9742 410.617 63.96 410.831 63.9315 411.031H63.9828C64.1197 410.797 64.308 410.62 64.5476 410.5C64.7872 410.38 65.044 410.32 65.3178 410.32C65.837 410.32 66.2307 410.454 66.4988 410.723C66.767 410.985 66.901 411.41 66.901 411.998V414.984H66.1565V412.049C66.1565 411.313 65.8427 410.945 65.2151 410.945C64.7416 410.945 64.4164 411.091 64.2395 411.382C64.0627 411.667 63.9742 412.078 63.9742 412.614V414.984H63.2297V408.48H63.9742ZM70.1073 410.32C70.6322 410.32 71.023 410.443 71.2797 410.688C71.5421 410.934 71.6734 411.324 71.6734 411.861V414.984H71.1342L70.9887 414.334H70.9545C70.7662 414.585 70.5694 414.77 70.364 414.89C70.1586 415.01 69.8734 415.07 69.5082 415.07C69.1203 415.07 68.7951 414.962 68.5326 414.745C68.2759 414.522 68.1475 414.177 68.1475 413.709C68.1475 413.253 68.3158 412.902 68.6524 412.657C68.989 412.406 69.5082 412.269 70.21 412.246L70.9374 412.22V411.946C70.9374 411.564 70.8604 411.299 70.7063 411.15C70.558 411.002 70.344 410.928 70.0645 410.928C69.842 410.928 69.628 410.965 69.4226 411.039C69.2172 411.108 69.0261 411.188 68.8493 411.279L68.6182 410.714C68.8122 410.606 69.0375 410.514 69.2943 410.44C69.551 410.36 69.822 410.32 70.1073 410.32ZM70.9374 412.742L70.3127 412.768C69.7878 412.791 69.4226 412.882 69.2172 413.042C69.0176 413.201 68.9177 413.427 68.9177 413.718C68.9177 413.975 68.989 414.163 69.1317 414.283C69.2743 414.402 69.4597 414.462 69.6879 414.462C70.0417 414.462 70.3383 414.357 70.578 414.146C70.8176 413.929 70.9374 413.598 70.9374 413.153V412.742ZM75.3098 410.312C75.8403 410.312 76.2654 410.509 76.5849 410.902C76.9101 411.296 77.0727 411.889 77.0727 412.682C77.0727 413.464 76.9101 414.057 76.5849 414.462C76.2597 414.867 75.8318 415.07 75.3012 415.07C74.9646 415.07 74.6907 415.004 74.4796 414.873C74.2685 414.742 74.1002 414.585 73.9747 414.402H73.9234C73.9348 414.499 73.9462 414.622 73.9576 414.77C73.969 414.919 73.9747 415.047 73.9747 415.156V417.038H73.2302V410.397H73.8378L73.9405 411.022H73.9747C74.1002 410.822 74.2657 410.654 74.4711 410.517C74.6822 410.38 74.9617 410.312 75.3098 410.312ZM75.1643 410.945C74.7364 410.945 74.4311 411.076 74.2486 411.339C74.066 411.601 73.9747 412.001 73.9747 412.537V412.682C73.9747 413.247 74.0603 413.684 74.2315 413.992C74.4026 414.294 74.7193 414.445 75.1814 414.445C75.4381 414.445 75.6492 414.371 75.8147 414.223C75.9801 414.069 76.1028 413.858 76.1827 413.589C76.2625 413.321 76.3025 413.016 76.3025 412.674C76.3025 412.149 76.2083 411.73 76.0201 411.416C75.8375 411.102 75.5522 410.945 75.1643 410.945ZM80.0916 410.312C80.4625 410.312 80.782 410.397 81.0501 410.569C81.3183 410.74 81.5237 410.982 81.6663 411.296C81.8146 411.604 81.8888 411.966 81.8888 412.383V412.836H78.9449C78.9563 413.356 79.079 413.752 79.3129 414.026C79.5468 414.294 79.8748 414.428 80.297 414.428C80.5709 414.428 80.8134 414.402 81.0244 414.351C81.2412 414.294 81.4638 414.214 81.692 414.111V414.77C81.4695 414.873 81.2498 414.947 81.033 414.993C80.8219 415.044 80.5652 415.07 80.2628 415.07C79.8463 415.07 79.4812 414.982 79.1674 414.805C78.8593 414.628 78.6168 414.365 78.44 414.017C78.2631 413.669 78.1747 413.239 78.1747 412.725C78.1747 412.223 78.2545 411.792 78.4143 411.433C78.574 411.073 78.7965 410.797 79.0818 410.603C79.3728 410.409 79.7094 410.312 80.0916 410.312ZM80.0916 410.928C79.755 410.928 79.4897 411.045 79.2958 411.279C79.1075 411.507 78.9962 411.827 78.962 412.237H81.1186C81.1129 411.849 81.0273 411.536 80.8618 411.296C80.6964 411.051 80.4397 410.928 80.0916 410.928Z" fill="black"></path>
<rect x="30.4102" y="425.116" width="57.0526" height="32.2632" rx="3.56579" fill="#142558"></rect>
<path d="M49.1032 442.579C49.1032 443.121 48.9178 443.549 48.547 443.863C48.1818 444.177 47.6541 444.334 46.9638 444.334C46.6272 444.334 46.3248 444.305 46.0566 444.248C45.7885 444.191 45.5403 444.105 45.3121 443.991V442.964C45.5688 443.078 45.8455 443.184 46.1422 443.281C46.4446 443.372 46.7384 443.418 47.0237 443.418C47.3432 443.418 47.5771 443.347 47.7254 443.204C47.8795 443.056 47.9565 442.867 47.9565 442.639C47.9565 442.388 47.8623 442.186 47.6741 442.032C47.4915 441.878 47.1948 441.718 46.7841 441.552C46.5216 441.444 46.282 441.316 46.0652 441.167C45.8541 441.013 45.6858 440.822 45.5603 440.594C45.4348 440.36 45.372 440.069 45.372 439.721C45.372 439.202 45.5517 438.794 45.9111 438.497C46.2763 438.2 46.7555 438.052 47.3489 438.052C47.6798 438.052 47.9822 438.086 48.256 438.155C48.5299 438.223 48.7923 438.32 49.0433 438.446L48.6839 439.327C48.45 439.219 48.2189 439.133 47.9907 439.071C47.7625 439.008 47.5371 438.976 47.3146 438.976C47.0522 438.976 46.8525 439.042 46.7156 439.173C46.5787 439.304 46.5102 439.478 46.5102 439.695C46.5102 439.861 46.5501 440 46.63 440.115C46.7099 440.229 46.8354 440.337 47.0066 440.44C47.1777 440.537 47.4002 440.651 47.6741 440.782C47.9765 440.925 48.2332 441.073 48.4443 441.227C48.6611 441.381 48.8237 441.567 48.9321 441.783C49.0462 441.994 49.1032 442.26 49.1032 442.579ZM52.7353 446.302V444.342C52.7353 444.234 52.7382 444.117 52.7439 443.991C52.7553 443.866 52.7696 443.749 52.7867 443.64H52.7353C52.6269 443.834 52.47 444 52.2646 444.137C52.065 444.268 51.8025 444.334 51.4773 444.334C50.981 444.334 50.5787 444.134 50.2707 443.735C49.9626 443.329 49.8085 442.73 49.8085 441.937C49.8085 441.144 49.9626 440.545 50.2707 440.14C50.5844 439.729 50.9952 439.524 51.503 439.524C51.8282 439.524 52.0906 439.593 52.2903 439.729C52.49 439.861 52.6526 440.023 52.7781 440.217H52.8124L52.915 439.61H53.8735V446.302H52.7353ZM51.8624 443.478C52.2104 443.478 52.4529 443.364 52.5898 443.136C52.7325 442.907 52.8038 442.562 52.8038 442.1V441.946C52.8038 441.444 52.7353 441.062 52.5984 440.799C52.4672 440.537 52.2162 440.406 51.8453 440.406C51.5486 440.406 51.3261 440.542 51.1778 440.816C51.0352 441.084 50.9638 441.464 50.9638 441.955C50.9638 442.451 51.038 442.83 51.1864 443.093C51.3347 443.349 51.56 443.478 51.8624 443.478ZM59.075 439.61V444.248H58.2106L58.0566 443.649H57.9967C57.8541 443.889 57.6601 444.063 57.4148 444.171C57.1751 444.279 56.9156 444.334 56.636 444.334C56.1625 444.334 55.7831 444.2 55.4978 443.931C55.2182 443.663 55.0785 443.233 55.0785 442.639V439.61H56.2167V442.425C56.2167 442.773 56.2737 443.033 56.3878 443.204C56.5076 443.375 56.6959 443.461 56.9526 443.461C57.3349 443.461 57.5945 443.324 57.7314 443.05C57.874 442.776 57.9454 442.385 57.9454 441.878V439.61H59.075ZM62.1762 439.524C62.7353 439.524 63.1632 439.655 63.4598 439.918C63.7565 440.18 63.9049 440.585 63.9049 441.133V444.248H63.109L62.8865 443.606H62.8522C62.664 443.857 62.4643 444.043 62.2532 444.162C62.0478 444.277 61.7625 444.334 61.3974 444.334C61.0094 444.334 60.6842 444.217 60.4218 443.983C60.1651 443.749 60.0367 443.387 60.0367 442.896C60.0367 442.417 60.2021 442.057 60.533 441.818C60.864 441.578 61.3632 441.444 62.0307 441.415L62.7667 441.39V441.159C62.7667 440.862 62.7039 440.651 62.5784 440.525C62.4586 440.4 62.2874 440.337 62.0649 440.337C61.8538 440.337 61.6427 440.371 61.4316 440.44C61.2262 440.503 61.0266 440.582 60.8326 440.679L60.4817 439.926C60.7099 439.806 60.9666 439.71 61.2519 439.635C61.5372 439.561 61.8453 439.524 62.1762 439.524ZM62.7752 442.057L62.2874 442.074C61.8823 442.091 61.5999 442.174 61.4402 442.323C61.2804 442.465 61.2006 442.659 61.2006 442.904C61.2006 443.127 61.2548 443.287 61.3632 443.384C61.4773 443.475 61.6256 443.521 61.8082 443.521C62.0763 443.521 62.3045 443.432 62.4928 443.255C62.6811 443.073 62.7752 442.805 62.7752 442.451V442.057ZM67.4784 439.524C67.5526 439.524 67.6324 439.53 67.718 439.541C67.8093 439.547 67.8835 439.555 67.9405 439.567L67.8378 440.568C67.7123 440.54 67.564 440.525 67.3928 440.525C67.2045 440.525 67.022 440.574 66.8451 440.671C66.6682 440.762 66.5228 440.905 66.4086 441.099C66.3002 441.293 66.246 441.541 66.246 441.843V444.248H65.1078V439.61H65.9808L66.1348 440.414H66.1947C66.3259 440.169 66.5028 439.961 66.7253 439.789C66.9478 439.613 67.1988 439.524 67.4784 439.524ZM70.3488 439.524C70.9479 439.524 71.4214 439.71 71.7694 440.08C72.1175 440.451 72.2915 440.968 72.2915 441.629V442.177H69.4502C69.4617 442.599 69.5643 442.927 69.7583 443.161C69.9523 443.389 70.2319 443.504 70.597 443.504C70.8766 443.504 71.1276 443.475 71.3501 443.418C71.5783 443.355 71.8122 443.267 72.0518 443.153V444.017C71.835 444.125 71.6068 444.205 71.3672 444.257C71.1333 444.308 70.848 444.334 70.5114 444.334C70.0778 444.334 69.6927 444.248 69.3561 444.077C69.0252 443.9 68.7656 443.638 68.5773 443.29C68.3891 442.936 68.2949 442.494 68.2949 441.963C68.2949 441.17 68.4832 440.565 68.8597 440.149C69.242 439.732 69.7384 439.524 70.3488 439.524ZM70.3659 440.32C70.1149 440.32 69.9067 440.414 69.7412 440.602C69.5815 440.785 69.4902 441.059 69.4674 441.424H71.2132C71.2075 441.104 71.1361 440.842 70.9992 440.637C70.8623 440.426 70.6512 440.32 70.3659 440.32Z" fill="white"></path>
<path d="M124.796 438.976C124.311 438.976 123.931 439.176 123.657 439.575C123.384 439.969 123.247 440.511 123.247 441.201C123.247 441.897 123.375 442.439 123.632 442.827C123.894 443.215 124.291 443.409 124.821 443.409C125.067 443.409 125.303 443.384 125.532 443.332C125.766 443.275 126.005 443.201 126.25 443.11V444.043C126.011 444.145 125.768 444.22 125.523 444.265C125.278 444.311 125.001 444.334 124.693 444.334C124.094 444.334 123.598 444.205 123.204 443.949C122.816 443.686 122.528 443.321 122.339 442.853C122.151 442.38 122.057 441.826 122.057 441.193C122.057 440.577 122.163 440.035 122.374 439.567C122.585 439.093 122.893 438.722 123.298 438.454C123.709 438.186 124.211 438.052 124.804 438.052C125.089 438.052 125.383 438.086 125.686 438.155C125.988 438.223 126.253 438.323 126.482 438.454L126.096 439.353C125.897 439.256 125.688 439.17 125.472 439.096C125.255 439.016 125.03 438.976 124.796 438.976ZM127.933 437.821C128.093 437.821 128.233 437.864 128.352 437.949C128.478 438.029 128.541 438.175 128.541 438.386C128.541 438.597 128.478 438.745 128.352 438.831C128.233 438.916 128.093 438.959 127.933 438.959C127.756 438.959 127.608 438.916 127.488 438.831C127.368 438.745 127.308 438.597 127.308 438.386C127.308 438.175 127.368 438.029 127.488 437.949C127.608 437.864 127.756 437.821 127.933 437.821ZM128.489 439.61V444.248H127.36V439.61H128.489ZM132.095 439.524C132.169 439.524 132.249 439.53 132.335 439.541C132.426 439.547 132.5 439.555 132.557 439.567L132.455 440.568C132.329 440.54 132.181 440.525 132.01 440.525C131.821 440.525 131.639 440.574 131.462 440.671C131.285 440.762 131.139 440.905 131.025 441.099C130.917 441.293 130.863 441.541 130.863 441.843V444.248H129.725V439.61H130.597L130.752 440.414H130.811C130.943 440.169 131.119 439.961 131.342 439.789C131.565 439.613 131.816 439.524 132.095 439.524ZM134.991 444.334C134.352 444.334 133.844 444.142 133.468 443.76C133.097 443.378 132.912 442.776 132.912 441.955C132.912 441.384 133.003 440.922 133.185 440.568C133.374 440.209 133.631 439.946 133.956 439.781C134.281 439.61 134.655 439.524 135.077 439.524C135.339 439.524 135.585 439.553 135.813 439.61C136.047 439.667 136.241 439.735 136.395 439.815L136.052 440.645C135.898 440.582 135.744 440.528 135.59 440.483C135.436 440.437 135.279 440.414 135.12 440.414C134.418 440.414 134.067 440.925 134.067 441.946C134.067 442.442 134.158 442.816 134.341 443.067C134.523 443.318 134.78 443.444 135.111 443.444C135.334 443.444 135.539 443.412 135.727 443.349C135.921 443.287 136.104 443.201 136.275 443.093V444.026C136.098 444.134 135.91 444.211 135.71 444.257C135.516 444.308 135.276 444.334 134.991 444.334ZM138.393 444.248H137.255V437.744H138.393V444.248ZM141.451 439.524C142.05 439.524 142.523 439.71 142.871 440.08C143.219 440.451 143.393 440.968 143.393 441.629V442.177H140.552C140.564 442.599 140.666 442.927 140.86 443.161C141.054 443.389 141.334 443.504 141.699 443.504C141.979 443.504 142.23 443.475 142.452 443.418C142.68 443.355 142.914 443.267 143.154 443.153V444.017C142.937 444.125 142.709 444.205 142.469 444.257C142.235 444.308 141.95 444.334 141.613 444.334C141.18 444.334 140.795 444.248 140.458 444.077C140.127 443.9 139.868 443.638 139.679 443.29C139.491 442.936 139.397 442.494 139.397 441.963C139.397 441.17 139.585 440.565 139.962 440.149C140.344 439.732 140.84 439.524 141.451 439.524ZM141.468 440.32C141.217 440.32 141.009 440.414 140.843 440.602C140.683 440.785 140.592 441.059 140.569 441.424H142.315C142.309 441.104 142.238 440.842 142.101 440.637C141.964 440.426 141.753 440.32 141.468 440.32Z" fill="#142558"></path>
<rect x="104.935" y="425.473" width="56.3395" height="31.55" rx="3.20921" stroke="#142558" stroke-width="0.713158"></rect>
<path d="M30.4102 478.495C30.4102 476.286 32.201 474.495 34.4102 474.495H274.589C276.798 474.495 278.589 476.286 278.589 478.495V500.758C278.589 502.967 276.798 504.758 274.589 504.758H34.4102C32.201 504.758 30.4102 502.967 30.4102 500.758V478.495Z" fill="#007AFF"></path>
<path d="M147.466 491.425C147.466 492.147 147.218 492.714 146.724 493.125C146.237 493.536 145.556 493.741 144.681 493.741C143.807 493.741 143.088 493.6 142.525 493.319V492.155C142.829 492.292 143.175 492.417 143.563 492.532C143.951 492.638 144.343 492.691 144.739 492.691C145.233 492.691 145.602 492.585 145.845 492.372C146.096 492.159 146.222 491.874 146.222 491.516C146.222 491.265 146.165 491.056 146.051 490.888C145.944 490.713 145.765 490.554 145.514 490.409C145.271 490.257 144.944 490.101 144.533 489.941C144.145 489.782 143.807 489.599 143.518 489.394C143.236 489.188 143.016 488.933 142.856 488.629C142.696 488.325 142.616 487.952 142.616 487.511C142.616 486.841 142.848 486.317 143.312 485.936C143.784 485.556 144.4 485.366 145.161 485.366C145.579 485.366 145.971 485.411 146.336 485.503C146.701 485.594 147.04 485.712 147.352 485.856L146.952 486.872C146.663 486.743 146.363 486.636 146.051 486.552C145.739 486.469 145.431 486.427 145.126 486.427C144.708 486.427 144.392 486.526 144.179 486.724C143.974 486.921 143.871 487.18 143.871 487.499C143.871 487.751 143.925 487.96 144.031 488.127C144.138 488.294 144.309 488.45 144.545 488.595C144.78 488.732 145.092 488.884 145.48 489.051C145.906 489.234 146.268 489.428 146.564 489.633C146.861 489.831 147.085 490.074 147.237 490.364C147.39 490.645 147.466 490.999 147.466 491.425ZM151.145 487.363C151.868 487.363 152.412 487.534 152.777 487.876C153.15 488.211 153.336 488.739 153.336 489.462V493.627H152.458L152.218 492.771H152.172C151.921 493.106 151.655 493.353 151.374 493.513C151.1 493.665 150.719 493.741 150.233 493.741C149.715 493.741 149.282 493.593 148.932 493.296C148.589 492.992 148.418 492.52 148.418 491.881C148.418 490.641 149.32 489.987 151.123 489.919L152.104 489.884V489.542C152.104 489.093 152.009 488.777 151.819 488.595C151.636 488.405 151.377 488.31 151.043 488.31C150.761 488.31 150.48 488.355 150.198 488.447C149.924 488.538 149.662 488.648 149.411 488.777L149.034 487.899C149.316 487.747 149.635 487.621 149.993 487.522C150.358 487.416 150.742 487.363 151.145 487.363ZM152.104 490.672L151.362 490.694C150.731 490.725 150.293 490.843 150.05 491.048C149.814 491.254 149.696 491.535 149.696 491.893C149.696 492.212 149.78 492.444 149.947 492.589C150.122 492.733 150.347 492.805 150.62 492.805C151.039 492.805 151.389 492.672 151.67 492.406C151.959 492.14 152.104 491.74 152.104 491.208V490.672ZM156.37 493.627L154.168 487.477H155.48L156.633 491.071C156.709 491.307 156.785 491.573 156.861 491.87C156.937 492.159 156.987 492.398 157.009 492.589H157.055C157.078 492.398 157.127 492.159 157.203 491.87C157.28 491.573 157.359 491.307 157.443 491.071L158.596 487.477H159.919L157.706 493.627H156.37ZM163.113 487.363C163.874 487.363 164.479 487.614 164.927 488.116C165.376 488.61 165.601 489.287 165.601 490.147V490.809H161.732C161.748 491.44 161.9 491.923 162.189 492.258C162.478 492.592 162.885 492.76 163.41 492.76C163.782 492.76 164.113 492.726 164.402 492.657C164.699 492.581 165 492.471 165.304 492.326V493.33C165.015 493.475 164.718 493.578 164.414 493.638C164.117 493.707 163.756 493.741 163.33 493.741C162.767 493.741 162.269 493.623 161.835 493.387C161.409 493.152 161.074 492.802 160.831 492.338C160.588 491.874 160.466 491.295 160.466 490.603C160.466 489.569 160.709 488.77 161.196 488.207C161.683 487.644 162.322 487.363 163.113 487.363ZM163.124 488.298C162.721 488.298 162.402 488.439 162.166 488.72C161.938 489.002 161.805 489.401 161.767 489.919H164.38C164.372 489.439 164.266 489.051 164.06 488.755C163.862 488.45 163.55 488.298 163.124 488.298Z" fill="white"></path>
</g>
<defs>
<filter id="filter0_d_1392_15094" x="0.457891" y="0.73684" width="308.084" height="541.106" filterUnits="userSpaceOnUse" color-interpolation-filters="sRGB">
<feFlood flood-opacity="0" result="BackgroundImageFix"></feFlood>
<feColorMatrix in="SourceAlpha" type="matrix" values="0 0 0 0 0 0 0 0 0 0 0 0 0 0 0 0 0 0 127 0" result="hardAlpha"></feColorMatrix>
<feOffset dy="4.27895"></feOffset>
<feGaussianBlur stdDeviation="9.27105"></feGaussianBlur>
<feColorMatrix type="matrix" values="0 0 0 0 0 0 0 0 0 0 0 0 0 0 0 0 0 0 0.04 0"></feColorMatrix>
<feBlend mode="normal" in2="BackgroundImageFix" result="effect1_dropShadow_1392_15094"></feBlend>
<feBlend mode="normal" in="SourceGraphic" in2="effect1_dropShadow_1392_15094" result="shape"></feBlend>
</filter>
<clipPath id="clip0_1392_15094">
<rect width="12.8368" height="12.8368" fill="white" transform="translate(33.2617 29.2637)"></rect>
</clipPath>
<clipPath id="clip1_1392_15094">
<rect width="9.98421" height="9.98421" fill="white" transform="translate(275.736 30.6895) rotate(90)"></rect>
</clipPath>
</defs>
</svg>
